<svg width="24" height="21" viewBox="0 0 24 21" fill="none" xmlns="http://www.w3.org/2000/svg">
<path d="M9.00705 10.4965C8.33705 9.73651 8.62705 8.46651 9.36705 7.78651C10.107 7.10651 11.157 6.86651 12.157 6.73651C14.017 6.49651 16.327 6.73651 17.117 8.43651C17.847 10.0065 16.707 11.9365 15.137 12.6765C13.567 13.4165 11.747 13.2965 10.027 13.1565C8.69705 13.0465 7.34705 12.9365 6.12705 12.4065C4.90705 11.8765 3.81705 10.8565 3.56705 9.54651C3.18705 7.51651 4.88705 5.67651 6.66705 4.61651C8.78705 3.35651 11.267 2.61651 13.727 2.81651C16.187 3.01651 18.607 4.19651 20.057 6.19651C21.507 8.19651 21.857 11.0065 20.697 13.1865C19.117 16.1865 15.347 17.2865 11.957 17.3165C9.64705 17.3365 7.26705 16.9665 5.28705 15.7665C3.06705 14.4165 1.50705 11.9965 1.26705 9.40651C0.997047 6.35651 2.61705 3.21651 5.25705 1.67651C7.89705 0.136513 11.437 0.286513 13.937 2.03651C15.947 3.44651 17.217 5.67651 18.277 7.88651C20.237 11.9665 21.767 16.2465 22.837 20.6465" stroke="#7854FA" stroke-width="0.75" stroke-miterlimit="10"/>
</svg>
