<?xml version="1.0" encoding="UTF-8" standalone="no"?>
<!-- Generator: Adobe Illustrator 27.2.0, SVG Export Plug-In . SVG Version: 6.00 Build 0)  -->

<svg
   version="1.1"
   id="Layer_1"
   x="0px"
   y="0px"
   viewBox="0 0 243.03561 60.449555"
   xml:space="preserve"
   width="243.0356"
   height="60.449558"
   xmlns="http://www.w3.org/2000/svg"
   xmlns:svg="http://www.w3.org/2000/svg"><defs
   id="defs7" />
<style
   type="text/css"
   id="style1">
	.st0{fill:#7854FA;}
</style>
<g
   id="g7"
   transform="matrix(0.3017951,0,0,0.3017951,-100.07526,-44.997649)">
	<g
   id="g6">
		<path
   d="m 389.1,309.4 c -11,0 -20.7,-2 -29.1,-6 -8.4,-4 -15.2,-9.8 -20.1,-17.5 -5,-7.6 -7.7,-16.8 -8.1,-27.5 -0.1,-2.4 -0.2,-5.4 -0.2,-9 0,-3.6 0.1,-6.6 0.2,-9 0.4,-10.8 3.1,-20.1 8,-27.7 4.9,-7.6 11.6,-13.5 20.1,-17.5 8.5,-4 18.3,-6 29.2,-6 10.2,0 19,1.4 26.4,4.3 7.3,2.9 13.3,6.5 17.8,10.8 4.5,4.3 7.9,8.7 10.2,13.2 2.3,4.5 3.5,8.5 3.7,11.9 0.1,1.5 -0.4,2.8 -1.6,3.9 -1.2,1.1 -2.5,1.7 -4,1.7 h -28.2 c -1.6,0 -2.9,-0.4 -3.8,-1.1 -0.9,-0.7 -1.7,-1.9 -2.4,-3.3 -1.8,-4.6 -4,-7.9 -6.8,-9.8 -2.7,-1.9 -6.3,-2.9 -10.6,-2.9 -5.9,0 -10.5,1.9 -13.7,5.8 -3.2,3.9 -4.9,9.8 -5.2,17.8 -0.2,5.9 -0.2,11.2 0,15.8 0.4,8.2 2.2,14.1 5.3,17.8 3.1,3.7 7.6,5.6 13.6,5.6 4.6,0 8.2,-1 10.9,-3 2.7,-2 4.8,-5.2 6.5,-9.7 0.7,-1.5 1.6,-2.6 2.4,-3.3 0.9,-0.7 2.1,-1.1 3.8,-1.1 h 28.2 c 1.5,0 2.8,0.5 4,1.6 1.2,1 1.7,2.4 1.6,4 -0.2,2.4 -0.9,5.3 -2.2,8.7 -1.3,3.4 -3.4,7 -6.2,10.7 -2.8,3.7 -6.5,7.1 -11,10.2 -4.5,3.1 -10,5.7 -16.3,7.7 -6.6,1.9 -14,2.9 -22.4,2.9 z"
   id="path1" />
		<path
   d="m 480.3,349.4 c -1.3,0 -2.4,-0.4 -3.3,-1.3 -0.9,-0.9 -1.3,-2 -1.3,-3.3 0,-0.3 0,-0.7 0.1,-1.2 0.1,-0.5 0.3,-1.1 0.6,-1.7 l 17.3,-41.8 -42.7,-101 c -0.4,-1 -0.7,-1.9 -0.7,-2.7 0.3,-1.3 0.9,-2.5 1.8,-3.4 0.9,-1 2,-1.4 3.3,-1.4 h 25.4 c 1.9,0 3.4,0.5 4.3,1.4 1,1 1.7,2 2.1,3.2 l 25.4,64.7 26,-64.7 c 0.6,-1.2 1.4,-2.3 2.3,-3.2 1,-1 2.4,-1.4 4.3,-1.4 h 24.9 c 1.3,0 2.5,0.5 3.4,1.4 1,1 1.4,2 1.4,3.2 0,0.7 -0.2,1.7 -0.7,2.9 l -62.9,145.7 c -0.4,1.2 -1.2,2.3 -2.2,3.2 -1,1 -2.5,1.4 -4.5,1.4 z"
   id="path2" />
		<path
   d="m 592.6,307.1 c -1.6,0 -3,-0.6 -4,-1.7 -1,-1.1 -1.6,-2.4 -1.6,-3.9 V 197 c 0,-1.6 0.5,-3 1.6,-4 1,-1 2.4,-1.6 4,-1.6 h 24.2 c 1.6,0 3,0.5 4,1.6 1,1 1.6,2.4 1.6,4 v 7.6 c 3,-4 7.1,-7.5 12.5,-10.6 5.3,-3 11.6,-4.6 18.9,-4.8 17.2,-0.4 29,5.9 35.4,19.1 3.4,-5.6 8.3,-10.2 14.6,-13.8 6.3,-3.6 13.2,-5.3 20.8,-5.3 7.7,0 14.6,1.7 20.8,5.2 6.2,3.5 11.1,8.8 14.8,16 3.7,7.2 5.6,16.5 5.6,27.9 v 63.2 c 0,1.5 -0.5,2.8 -1.6,3.9 -1,1.1 -2.4,1.7 -4,1.7 h -25.8 c -1.6,0 -3,-0.6 -4.1,-1.7 -1.1,-1.1 -1.7,-2.4 -1.7,-3.9 V 240 c 0,-5.2 -0.7,-9.3 -2.2,-12.3 -1.5,-3 -3.5,-5.2 -6,-6.6 -2.5,-1.3 -5.4,-2 -8.7,-2 -2.7,0 -5.3,0.7 -7.9,2 -2.6,1.3 -4.7,3.5 -6.2,6.6 -1.6,3 -2.3,7.2 -2.3,12.3 v 61.6 c 0,1.5 -0.5,2.8 -1.6,3.9 -1,1.1 -2.4,1.7 -4,1.7 h -25.8 c -1.6,0 -3,-0.6 -4,-1.7 -1,-1.1 -1.6,-2.4 -1.6,-3.9 V 240 c 0,-5.2 -0.8,-9.3 -2.4,-12.3 -1.6,-3 -3.7,-5.2 -6.2,-6.6 -2.5,-1.3 -5.3,-2 -8.2,-2 -2.8,0 -5.5,0.7 -8.1,2 -2.6,1.3 -4.7,3.5 -6.2,6.6 -1.6,3 -2.3,7.1 -2.3,12.1 v 61.8 c 0,1.5 -0.6,2.8 -1.7,3.9 -1.1,1.1 -2.4,1.7 -3.9,1.7 h -26.7 z"
   id="path3" />
		<path
   d="m 839.7,309.4 c -17.5,0 -31.4,-4.7 -41.8,-14.2 -10.4,-9.5 -15.8,-23.6 -16.2,-42.3 0,-1 0,-2.4 0,-4 0,-1.6 0,-2.9 0,-3.8 0.4,-11.7 3.1,-21.8 7.9,-30.1 4.8,-8.4 11.5,-14.8 20,-19.1 8.5,-4.4 18.5,-6.6 29.9,-6.6 13,0 23.8,2.6 32.4,7.8 8.5,5.2 14.9,12.2 19.2,21.1 4.3,8.9 6.5,19.1 6.5,30.5 v 5.3 c 0,1.6 -0.5,3 -1.6,4 -1,1 -2.4,1.6 -4,1.6 h -71.2 c 0,0.2 0,0.4 0,0.7 0,0.3 0,0.6 0,0.9 0.1,4.3 0.9,8.2 2.3,11.8 1.4,3.6 3.5,6.4 6.2,8.5 2.7,2.1 6.1,3.1 10.1,3.1 3,0 5.4,-0.5 7.4,-1.4 2,-1 3.7,-2.1 5,-3.3 1.3,-1.3 2.4,-2.3 3.1,-3.2 1.3,-1.6 2.4,-2.6 3.2,-3 0.8,-0.4 2.1,-0.6 3.9,-0.6 h 27.6 c 1.5,0 2.7,0.4 3.7,1.3 1,0.9 1.4,2.1 1.2,3.6 -0.1,2.5 -1.4,5.6 -3.8,9.1 -2.4,3.6 -5.8,7.1 -10.3,10.6 -4.5,3.5 -10.2,6.3 -17,8.6 -6.8,1.9 -14.7,3.1 -23.7,3.1 z m -18.9,-71.9 h 37.6 v -0.4 c 0,-4.9 -0.7,-9.1 -2.1,-12.6 -1.4,-3.5 -3.6,-6.2 -6.5,-8.1 -2.9,-1.9 -6.3,-2.9 -10.3,-2.9 -3.9,0 -7.2,1 -10,2.9 -2.8,1.9 -5,4.6 -6.4,8.1 -1.5,3.5 -2.2,7.7 -2.2,12.6 v 0.4 z"
   id="path4" />
		<path
   d="m 919.5,307.1 c -1.6,0 -3,-0.6 -4,-1.7 -1,-1.1 -1.6,-2.4 -1.6,-3.9 V 197 c 0,-1.6 0.5,-3 1.6,-4 1,-1 2.4,-1.6 4,-1.6 h 25.6 c 1.6,0 3,0.5 4.1,1.6 1.1,1 1.7,2.4 1.7,4 v 8.5 c 3.7,-4.6 8.7,-8.5 14.9,-11.6 6.2,-3.1 13.6,-4.7 22,-4.7 8.6,0 16.2,1.9 22.8,5.8 6.6,3.9 11.8,9.5 15.6,16.9 3.8,7.4 5.7,16.6 5.7,27.6 v 62.1 c 0,1.5 -0.5,2.8 -1.6,3.9 -1,1.1 -2.4,1.7 -4,1.7 h -28 c -1.5,0 -2.8,-0.6 -3.9,-1.7 -1.1,-1.1 -1.7,-2.4 -1.7,-3.9 v -60.7 c 0,-7 -1.7,-12.3 -5,-16.1 -3.3,-3.8 -8.3,-5.7 -14.8,-5.7 -6.1,0 -10.9,1.9 -14.6,5.7 -3.6,3.8 -5.4,9.2 -5.4,16.1 v 60.7 c 0,1.5 -0.6,2.8 -1.7,3.9 -1.1,1.1 -2.4,1.7 -3.9,1.7 h -27.8 z"
   id="path5" />
		<path
   d="m 1110.6,307.1 c -9.5,0 -17.7,-1.5 -24.6,-4.6 -6.9,-3 -12.2,-7.8 -15.9,-14.2 -3.7,-6.5 -5.6,-14.8 -5.6,-25 v -42.7 h -17.3 c -1.6,0 -3,-0.5 -4.1,-1.6 -1.1,-1 -1.7,-2.4 -1.7,-4 v -18 c 0,-1.6 0.6,-3 1.7,-4 1.1,-1 2.5,-1.6 4.1,-1.6 h 17.3 v -36.7 c 0,-1.6 0.6,-3 1.7,-4 1.1,-1 2.4,-1.6 3.9,-1.6 h 25.8 c 1.6,0 3,0.5 4,1.6 1,1 1.6,2.4 1.6,4 v 36.7 h 27.8 c 1.6,0 3,0.5 4.1,1.6 1.1,1 1.7,2.4 1.7,4 v 18 c 0,1.6 -0.6,3 -1.7,4 -1.1,1 -2.5,1.6 -4.1,1.6 h -27.8 v 39.6 c 0,5 1,9 2.9,12 1.9,3 5.2,4.4 9.8,4.4 h 17.1 c 1.6,0 3,0.5 4,1.6 1,1 1.6,2.4 1.6,4 v 19.4 c 0,1.5 -0.5,2.8 -1.6,3.9 -1,1.1 -2.4,1.7 -4,1.7 h -20.7 z"
   id="path6" />
	</g>
	<path
   class="st0"
   d="m 294.7,193 c -1,-1 -2.4,-1.6 -4,-1.6 H 258.9 V 81.3 c 0,-1.5 -0.5,-2.8 -1.6,-3.9 -1,-1.1 -2.4,-1.7 -4,-1.7 h -26.2 c -1.6,0 -3,0.6 -4,1.7 -1,1.1 -1.6,2.4 -1.6,3.9 V 140 l -27.3,-37.6 c -0.9,-1.2 -2.1,-1.9 -3.5,-2.2 -1.5,-0.3 -2.9,0 -4.2,1 l -21.2,15.4 c -1.3,1 -2.1,2.2 -2.3,3.7 -0.2,1.5 0.2,2.9 1,4.1 l 34.5,47.5 -44.2,-14.4 c -1.4,-0.5 -2.8,-0.4 -4.2,0.3 -1.4,0.6 -2.3,1.7 -2.8,3.3 l -8.1,25 c -0.5,1.6 -0.4,3 0.3,4.3 0.7,1.3 1.8,2.2 3.2,2.7 l 55.8,18.1 -44.2,14.4 c -1.4,0.5 -2.5,1.4 -3.2,2.7 -0.7,1.3 -0.9,2.8 -0.3,4.3 l 8.1,25 c 0.5,1.6 1.4,2.6 2.8,3.3 1.4,0.6 2.8,0.7 4.2,0.3 l 55.8,-18.1 -27.3,37.6 c -0.9,1.2 -1.2,2.6 -1,4.1 0.2,1.5 0.9,2.7 2.3,3.7 l 21.2,15.4 c 1.3,1 2.7,1.3 4.2,1 1.5,-0.3 2.7,-1 3.5,-2.2 l 34.5,-47.5 v 46.5 c 0,1.5 0.5,2.8 1.6,3.9 1,1.1 2.4,1.7 4,1.7 h 26.2 c 1.6,0 3,-0.6 4,-1.7 1,-1.1 1.6,-2.4 1.6,-3.9 V 197 c -0.2,-1.6 -0.8,-2.9 -1.8,-4 z"
   id="path7" />
</g>
</svg>
