<?xml version="1.0" encoding="UTF-8"?>
<svg fill="#DC2626" width="100pt" height="100pt" version="1.1" viewBox="0 0 100 100" xmlns="http://www.w3.org/2000/svg">
 <path d="m50 97.5c26.199 0 47.5-21.301 47.5-47.5s-21.301-47.5-47.5-47.5-47.5 21.301-47.5 47.5 21.301 47.5 47.5 47.5zm-21.801-61.898c-2.1016-2.1016-2.1016-5.3008 0-7.3984 2.1016-2.1016 5.3008-2.1016 7.3984 0l14.402 14.398 14.398-14.398c2.1016-2.1016 5.3008-2.1016 7.3984 0 2.1016 2.1016 2.1016 5.3008 0 7.3984l-14.398 14.398 14.398 14.398c2.1016 2.1016 2.1016 5.3008 0 7.3984-1 1-2.3008 1.5-3.6992 1.5-1.3984 0-2.6992-0.5-3.6992-1.5l-14.398-14.398-14.398 14.402c-1 1-2.3008 1.5-3.6992 1.5-1.3984 0-2.6992-0.5-3.6992-1.5-2.1016-2.1016-2.1016-5.3008 0-7.3984l14.398-14.402z"/>
</svg>
