<svg width="326" height="665" viewBox="0 0 326 665" fill="none" xmlns="http://www.w3.org/2000/svg">
<g clip-path="url(#clip0_193_726)">
<path d="M324.98 664.795C311.51 576.645 268.44 411.905 228.75 332.045C202.9 280.035 163.6 225.235 105.79 219.675C60.3501 215.305 12.8301 251.295 10.8201 296.905C8.8101 342.515 60.2801 383.685 102.63 366.635C127.62 356.575 143.81 330.865 148.58 304.355C153.35 277.845 148.3 250.535 141.02 224.605C117.09 139.445 68.4401 61.4054 2.6001 2.33545" stroke="#CCCCCC" stroke-width="1.3" stroke-miterlimit="10"/>
<path d="M16.11 0.365479L16.13 2.96548L3.31 3.03548L4.32 15.8155L1.72 16.0155L0.5 0.455479L16.11 0.365479Z" fill="#CCCCCC"/>
</g>
<defs>
<clipPath id="clip0_193_726">
<rect width="325.12" height="664.53" fill="white" transform="translate(0.5 0.365479)"/>
</clipPath>
</defs>
</svg>
