<svg width="327" height="93" viewBox="0 0 327 93" fill="none" xmlns="http://www.w3.org/2000/svg">
<path d="M1.26562 32.5442C38.2474 19.2602 110.846 2.15369 149.736 1.948C175.052 1.81087 204.107 6.86739 217.587 30.5559C228.198 49.1708 223.482 77.4187 206.108 88.1488C188.734 98.879 162.611 85.6463 160.967 63.7233C159.989 50.7991 166.83 38.2521 176.231 30.4702C185.632 22.6883 197.25 18.9516 208.776 16.4662C247.046 8.23865 287.409 12.4553 323.615 28.4305" stroke="black" stroke-width="2" stroke-miterlimit="10"/>
<path d="M322.658 28.509L323.113 28.3027L322.907 27.8481L316.272 13.1513L318.17 12.1088L326.057 29.5872L309.765 36.9758L308.935 34.7441L322.658 28.509Z" fill="black" stroke="black"/>
</svg>
