<svg width="53" height="54" viewBox="0 0 53 54" fill="none" xmlns="http://www.w3.org/2000/svg">
<circle cx="26.5" cy="27.2227" r="26.5" fill="white"/>
<path d="M21.412 35.6347C21.2413 35.6347 21.092 35.5813 20.964 35.4747C20.836 35.368 20.772 35.208 20.772 34.9947V34.4507C20.772 34.2373 20.8147 34.0667 20.9 33.9387C21.0067 33.7893 21.188 33.6293 21.444 33.4587L30.692 27.0587L21.444 20.6587C21.188 20.488 21.0067 20.3387 20.9 20.2107C20.8147 20.0613 20.772 19.88 20.772 19.6667V19.1227C20.772 18.9093 20.836 18.7493 20.964 18.6427C21.092 18.536 21.2413 18.4827 21.412 18.4827C21.5613 18.4827 21.7213 18.536 21.892 18.6427C22.0627 18.728 22.1907 18.8027 22.276 18.8667L31.716 25.3947C32.0573 25.6293 32.292 25.864 32.42 26.0987C32.5693 26.312 32.644 26.568 32.644 26.8667V27.2507C32.644 27.528 32.5693 27.784 32.42 28.0187C32.292 28.2533 32.0573 28.488 31.716 28.7227L22.276 35.2507C22.1907 35.3147 22.0627 35.4 21.892 35.5067C21.7213 35.592 21.5613 35.6347 21.412 35.6347Z" fill="#7854FA"/>
</svg>
