<svg width="53" height="54" viewBox="0 0 53 54" fill="none" xmlns="http://www.w3.org/2000/svg">
<circle cx="26.5" cy="27.2227" r="26.5" transform="rotate(-180 26.5 27.2227)" fill="white"/>
<path d="M31.588 18.8107C31.7587 18.8107 31.908 18.864 32.036 18.9707C32.164 19.0773 32.228 19.2373 32.228 19.4507L32.228 19.9947C32.228 20.208 32.1853 20.3787 32.1 20.5067C31.9933 20.656 31.812 20.816 31.556 20.9867L22.308 27.3867L31.556 33.7867C31.812 33.9573 31.9933 34.1067 32.1 34.2347C32.1853 34.384 32.228 34.5653 32.228 34.7787L32.228 35.3227C32.228 35.536 32.164 35.696 32.036 35.8027C31.908 35.9093 31.7587 35.9627 31.588 35.9627C31.4387 35.9627 31.2787 35.9093 31.108 35.8027C30.9373 35.7173 30.8093 35.6427 30.724 35.5787L21.284 29.0507C20.9427 28.816 20.708 28.5813 20.58 28.3467C20.4307 28.1333 20.356 27.8773 20.356 27.5787L20.356 27.1947C20.356 26.9173 20.4307 26.6613 20.58 26.4267C20.708 26.192 20.9427 25.9573 21.284 25.7227L30.724 19.1947C30.8093 19.1307 30.9373 19.0453 31.108 18.9387C31.2787 18.8533 31.4387 18.8107 31.588 18.8107Z" fill="#7854FA"/>
</svg>
