<?xml version="1.0" encoding="UTF-8" standalone="no"?>
<!-- Generator: Adobe Illustrator 27.2.0, SVG Export Plug-In . SVG Version: 6.00 Build 0)  -->

<svg
   version="1.1"
   id="Layer_1"
   x="0px"
   y="0px"
   viewBox="0 0 35.095712 51.541517"
   xml:space="preserve"
   width="35.095711"
   height="51.541519"
   sodipodi:docname="isotipo.svg"
   inkscape:version="1.3.2 (091e20e, 2023-11-25)"
   xmlns:inkscape="http://www.inkscape.org/namespaces/inkscape"
   xmlns:sodipodi="http://sodipodi.sourceforge.net/DTD/sodipodi-0.dtd"
   xmlns="http://www.w3.org/2000/svg"
   xmlns:svg="http://www.w3.org/2000/svg"><sodipodi:namedview
   id="namedview1"
   pagecolor="#ffffff"
   bordercolor="#000000"
   borderopacity="0.25"
   inkscape:showpageshadow="2"
   inkscape:pageopacity="0.0"
   inkscape:pagecheckerboard="0"
   inkscape:deskcolor="#d1d1d1"
   showgrid="false"
   inkscape:zoom="0.64026043"
   inkscape:cx="124.94915"
   inkscape:cy="184.3"
   inkscape:window-width="1312"
   inkscape:window-height="449"
   inkscape:window-x="0"
   inkscape:window-y="38"
   inkscape:window-maximized="0"
   inkscape:current-layer="Layer_1" /><defs
   id="defs1" />
<style
   type="text/css"
   id="style1">
	.st0{fill:#7854FA;}
</style>
<path
   class="st0"
   d="M 34.759064,26.120336 C 34.521352,25.882624 34.227708,25.77076 33.864149,25.77076 H 26.774743 V 1.2444914 c 0,-0.33559319 -0.111864,-0.61525418 -0.349576,-0.86694907 C 26.187455,0.12584744 25.893811,0 25.530252,0 H 19.685337 C 19.321778,0 19.028134,0.12584744 18.790422,0.37754233 18.566693,0.62923722 18.440846,0.90889821 18.440846,1.2444914 V 14.318643 l -6.09661,-8.38983 C 12.148473,5.663135 11.882795,5.4953384 11.561185,5.4254232 11.225592,5.3555079 10.917965,5.4394062 10.624321,5.649152 L 5.8980502,9.0889821 C 5.6044062,9.2987279 5.4366096,9.5783889 5.3946605,9.913982 c -0.041949,0.335593 0.027966,0.64322 0.2237288,0.908898 L 13.295083,21.394066 3.4370335,18.191947 c -0.307627,-0.09788 -0.6292372,-0.0839 -0.9368643,0.05593 -0.3076271,0.139831 -0.5173728,0.391526 -0.6292372,0.727119 L 0.06711864,24.54025 c -0.1118644,0.349576 -0.0838983,0.671186 0.08389829,0.96483 0.1677966,0.293644 0.40550844,0.489407 0.71313552,0.601271 L 13.295083,30.147455 3.4370335,33.349573 C 3.1294065,33.447453 2.8777116,33.6572 2.723898,33.950844 2.5561014,34.244488 2.5281353,34.566098 2.64,34.915674 l 1.8038134,5.565254 c 0.1118644,0.349576 0.3216101,0.587288 0.6292372,0.727119 0.3076271,0.13983 0.6152542,0.167796 0.9368643,0.05593 l 12.4309311,-4.041101 -6.09661,8.389829 c -0.195763,0.265678 -0.265678,0.573305 -0.223729,0.908898 0.04195,0.335594 0.209746,0.615255 0.50339,0.825 l 4.726271,3.439831 c 0.293644,0.209745 0.601271,0.293644 0.936864,0.223728 0.335593,-0.06992 0.601271,-0.223728 0.797034,-0.503389 L 26.76076,39.935589 v 10.36144 c 0,0.335593 0.111864,0.615254 0.349576,0.866949 0.237712,0.251695 0.531356,0.377542 0.894915,0.377542 h 5.844915 c 0.363559,0 0.657203,-0.125847 0.894915,-0.377542 0.223729,-0.251695 0.349576,-0.531356 0.349576,-0.866949 V 27.015251 c 0.01398,-0.363559 -0.111864,-0.657203 -0.335593,-0.894915 z"
   id="path1"
   style="stroke-width:0.13983" />
</svg>
