<?xml version="1.0" encoding="UTF-8" standalone="no"?>
<svg
   width="121.11736pt"
   height="40pt"
   viewBox="0 0 121.11736 40"
   version="1.1"
   id="svg7"
   sodipodi:docname="logo.svg"
   inkscape:version="1.3.2 (091e20e, 2023-11-25)"
   xmlns:inkscape="http://www.inkscape.org/namespaces/inkscape"
   xmlns:sodipodi="http://sodipodi.sourceforge.net/DTD/sodipodi-0.dtd"
   xmlns="http://www.w3.org/2000/svg"
   xmlns:svg="http://www.w3.org/2000/svg">
  <defs
     id="defs7" />
  <sodipodi:namedview
     id="namedview7"
     pagecolor="#ffffff"
     bordercolor="#000000"
     borderopacity="0.25"
     inkscape:showpageshadow="2"
     inkscape:pageopacity="0.0"
     inkscape:pagecheckerboard="0"
     inkscape:deskcolor="#d1d1d1"
     inkscape:document-units="pt"
     inkscape:zoom="1.6857143"
     inkscape:cx="200.50847"
     inkscape:cy="52.20339"
     inkscape:window-width="1312"
     inkscape:window-height="449"
     inkscape:window-x="0"
     inkscape:window-y="38"
     inkscape:window-maximized="0"
     inkscape:current-layer="surface1" />
  <g
     id="surface1"
     transform="matrix(0.40212277,0,0,0.40212277,-1.2848257e-4,0)">
    <path
       style="fill:#000000;fill-opacity:1;fill-rule:nonzero;stroke:none"
       d="m 75.511719,70.53125 c -3.320313,0 -6.246094,-0.605469 -8.78125,-1.8125 -2.535157,-1.207031 -4.585938,-2.957031 -6.066407,-5.28125 -1.507812,-2.292969 -2.324218,-5.070312 -2.445312,-8.300781 -0.02734,-0.722657 -0.05859,-1.628907 -0.05859,-2.714844 0,-1.085937 0.03125,-1.992187 0.05859,-2.714844 0.121094,-3.261719 0.9375,-6.066406 2.414062,-8.359375 1.480469,-2.296875 3.503907,-4.074218 6.066407,-5.28125 2.566406,-1.210937 5.523437,-1.8125 8.8125,-1.8125 3.078125,0 5.734375,0.421875 7.96875,1.296875 2.203125,0.875 4.015625,1.960938 5.371093,3.261719 1.359376,1.296875 2.386719,2.625 3.078126,3.980469 0.695312,1.359375 1.058593,2.566406 1.117187,3.59375 0.03125,0.453125 -0.121094,0.84375 -0.484375,1.175781 -0.359375,0.332031 -0.753906,0.511719 -1.207031,0.511719 h -8.507813 c -0.484375,0 -0.875,-0.117188 -1.148437,-0.332031 C 81.429688,47.53125 81.1875,47.171875 80.976562,46.75 c -0.542968,-1.390625 -1.207031,-2.386719 -2.054687,-2.960938 -0.8125,-0.570312 -1.898437,-0.875 -3.199219,-0.875 -1.777344,0 -3.167968,0.574219 -4.132812,1.75 -0.964844,1.179688 -1.480469,2.960938 -1.570313,5.375 -0.05859,1.777344 -0.05859,3.378907 0,4.765626 0.121094,2.476562 0.664063,4.257812 1.601563,5.375 0.933594,1.113281 2.292968,1.6875 4.101562,1.6875 1.390625,0 2.476563,-0.300782 3.292969,-0.90625 0.8125,-0.601563 1.445313,-1.566407 1.960937,-2.925782 0.210938,-0.453125 0.480469,-0.785156 0.722657,-0.996094 0.273437,-0.210937 0.632812,-0.332031 1.148437,-0.332031 h 8.507813 c 0.453125,0 0.847656,0.152344 1.207031,0.484375 0.363281,0.300782 0.515625,0.722656 0.484375,1.207032 -0.05859,0.722656 -0.269531,1.597656 -0.664063,2.625 -0.390624,1.027343 -1.027343,2.113281 -1.871093,3.230468 -0.84375,1.113282 -1.960938,2.140625 -3.320313,3.078125 -1.355468,0.933594 -3.015625,1.71875 -4.917968,2.324219 -1.992188,0.570312 -4.226563,0.875 -6.761719,0.875 z m 0,0"
       id="path1" />
    <path
       style="fill:#000000;fill-opacity:1;fill-rule:nonzero;stroke:none"
       d="m 103.03516,82.601562 c -0.39063,0 -0.72266,-0.121093 -0.9961,-0.390624 -0.26953,-0.273438 -0.39062,-0.605469 -0.39062,-0.996094 0,-0.09375 0,-0.214844 0.0312,-0.363282 0.0273,-0.152343 0.0898,-0.332031 0.17969,-0.515624 l 5.2227,-12.613282 -12.886718,-30.480468 c -0.121093,-0.300782 -0.210937,-0.574219 -0.210937,-0.816407 0.08984,-0.390625 0.269531,-0.753906 0.542969,-1.023437 0.269531,-0.304688 0.601562,-0.425782 0.996094,-0.425782 h 7.664062 c 0.57422,0 1.02734,0.152344 1.29688,0.425782 0.30078,0.300781 0.51562,0.601562 0.63281,0.964844 l 7.66797,19.523437 7.84765,-19.523437 c 0.17969,-0.363282 0.42188,-0.695313 0.69141,-0.964844 0.30469,-0.304688 0.72656,-0.425782 1.30078,-0.425782 h 7.51172 c 0.39453,0 0.7539,0.152344 1.02734,0.425782 0.30078,0.300781 0.42188,0.601562 0.42188,0.964844 0,0.210937 -0.0586,0.511718 -0.21094,0.875 l -18.98437,43.972656 c -0.11719,0.359375 -0.35938,0.691406 -0.66407,0.964844 -0.30078,0.300781 -0.7539,0.421874 -1.35547,0.421874 z m 0,0"
       id="path2" />
    <path
       style="fill:#000000;fill-opacity:1;fill-rule:nonzero;stroke:none"
       d="m 136.92969,69.835938 c -0.48438,0 -0.90625,-0.179688 -1.20703,-0.511719 -0.30469,-0.332031 -0.48438,-0.726563 -0.48438,-1.179688 V 36.609375 c 0,-0.484375 0.15234,-0.90625 0.48438,-1.207031 0.30078,-0.304688 0.72265,-0.484375 1.20703,-0.484375 h 7.30078 c 0.48437,0 0.90625,0.152343 1.20703,0.484375 0.30469,0.300781 0.48437,0.722656 0.48437,1.207031 v 2.292969 c 0.90625,-1.207032 2.14063,-2.265625 3.77344,-3.199219 1.59766,-0.90625 3.5,-1.390625 5.70313,-1.449219 5.1914,-0.121094 8.75,1.78125 10.68359,5.765625 1.02734,-1.691406 2.50391,-3.078125 4.40625,-4.167969 1.90234,-1.085937 3.98438,-1.597656 6.27734,-1.597656 2.32422,0 4.40625,0.511719 6.27735,1.570313 1.87109,1.054687 3.34765,2.65625 4.46484,4.828125 1.11719,2.171875 1.69141,4.980468 1.69141,8.417968 v 19.074219 c 0,0.453125 -0.15235,0.847657 -0.48438,1.179688 -0.30078,0.332031 -0.72265,0.511719 -1.20703,0.511719 h -7.78515 c -0.48438,0 -0.90625,-0.179688 -1.23829,-0.511719 -0.33203,-0.332031 -0.51171,-0.726563 -0.51171,-1.179688 V 49.585938 c 0,-1.570313 -0.21094,-2.808594 -0.66407,-3.714844 -0.45312,-0.902344 -1.05468,-1.566406 -1.8125,-1.988282 -0.7539,-0.394531 -1.6289,-0.605468 -2.625,-0.605468 -0.8125,0 -1.59765,0.210937 -2.38281,0.605468 -0.78516,0.390626 -1.41797,1.054688 -1.87109,1.988282 -0.48438,0.90625 -0.69532,2.175781 -0.69532,3.714844 v 18.589843 c 0,0.453125 -0.14843,0.84375 -0.48046,1.175781 -0.30469,0.332032 -0.72657,0.515626 -1.20704,0.515626 h -7.78906 c -0.48047,0 -0.90625,-0.183594 -1.20703,-0.515626 -0.30078,-0.332031 -0.48047,-0.722656 -0.48047,-1.175781 V 49.585938 c 0,-1.570313 -0.24219,-2.808594 -0.72656,-3.714844 -0.48047,-0.902344 -1.11719,-1.566406 -1.87109,-1.988282 -0.75391,-0.394531 -1.59766,-0.605468 -2.47266,-0.605468 -0.84766,0 -1.66016,0.210937 -2.44531,0.605468 -0.78516,0.390626 -1.41797,1.054688 -1.8711,1.988282 -0.48437,0.90625 -0.69531,2.144531 -0.69531,3.652344 v 18.652343 c 0,0.453125 -0.17969,0.84375 -0.51172,1.175781 -0.33203,0.332032 -0.72656,0.515626 -1.17969,0.515626 h -8.05468 z m 0,0"
       id="path3" />
    <path
       style="fill:#000000;fill-opacity:1;fill-rule:nonzero;stroke:none"
       d="m 211.5,70.53125 c -5.28125,0 -9.47266,-1.421875 -12.61328,-4.289062 -3.13672,-2.863282 -4.76953,-7.121094 -4.89063,-12.765626 0,-0.300781 0,-0.722656 0,-1.207031 0,-0.480469 0,-0.875 0,-1.144531 0.1211,-3.53125 0.9375,-6.578125 2.38672,-9.085938 1.44922,-2.535156 3.46875,-4.464843 6.03516,-5.761718 2.5664,-1.328125 5.58203,-1.992188 9.02344,-1.992188 3.92187,0 7.18359,0.785156 9.77734,2.351563 2.56641,1.570312 4.49609,3.683593 5.79687,6.367187 1.29688,2.6875 1.96094,5.765625 1.96094,9.207032 v 1.597656 c 0,0.484375 -0.15234,0.90625 -0.48437,1.207031 C 228.19141,55.320312 227.76953,55.5 227.28516,55.5 h -21.48829 c 0,0.05859 0,0.121094 0,0.210938 0,0.08984 0,0.179687 0,0.273437 0.0312,1.296875 0.27344,2.472656 0.69532,3.558594 0.42187,1.085937 1.05468,1.933593 1.87109,2.566406 0.81641,0.632813 1.83984,0.9375 3.04688,0.9375 0.90625,0 1.6289,-0.152344 2.23437,-0.425781 0.60547,-0.300782 1.11719,-0.632813 1.50781,-0.996094 0.39453,-0.390625 0.72657,-0.691406 0.9375,-0.964844 0.39063,-0.480468 0.72266,-0.785156 0.96485,-0.90625 0.24218,-0.121094 0.63281,-0.179687 1.17578,-0.179687 h 8.33203 c 0.45312,0 0.8125,0.121093 1.11719,0.390625 0.30078,0.273437 0.42187,0.636718 0.35937,1.089844 -0.0273,0.753906 -0.42187,1.6875 -1.14453,2.746093 -0.72656,1.085938 -1.75,2.140625 -3.10937,3.199219 -1.35938,1.054688 -3.07813,1.898438 -5.12891,2.59375 -2.05469,0.574219 -4.4375,0.9375 -7.15625,0.9375 z m -5.70313,-21.699219 h 11.34766 v -0.121093 c 0,-1.480469 -0.21094,-2.746094 -0.63281,-3.804688 -0.42188,-1.054688 -1.08594,-1.871094 -1.96094,-2.445312 -0.875,-0.570313 -1.90234,-0.875 -3.10937,-0.875 -1.17579,0 -2.17188,0.304687 -3.01954,0.875 -0.84375,0.574218 -1.50781,1.390624 -1.92968,2.445312 -0.45313,1.058594 -0.66407,2.324219 -0.66407,3.804688 v 0.121093 z m 0,0"
       id="path4" />
    <path
       style="fill:#000000;fill-opacity:1;fill-rule:nonzero;stroke:none"
       d="m 235.58594,69.835938 c -0.48438,0 -0.90625,-0.179688 -1.20703,-0.511719 -0.30469,-0.332031 -0.48438,-0.726563 -0.48438,-1.179688 V 36.609375 c 0,-0.484375 0.15234,-0.90625 0.48438,-1.207031 0.30078,-0.304688 0.72265,-0.484375 1.20703,-0.484375 h 7.72656 c 0.48047,0 0.90234,0.152343 1.23437,0.484375 0.33204,0.300781 0.51563,0.722656 0.51563,1.207031 v 2.5625 c 1.11719,-1.386719 2.625,-2.5625 4.49609,-3.5 1.8711,-0.933594 4.10547,-1.417969 6.64063,-1.417969 2.59375,0 4.88672,0.574219 6.8789,1.75 1.99219,1.175782 3.5625,2.867188 4.70704,5.101563 1.14843,2.230469 1.72265,5.007812 1.72265,8.328125 v 18.742187 c 0,0.453125 -0.15234,0.84375 -0.48437,1.175781 -0.30078,0.332032 -0.72266,0.515626 -1.20703,0.515626 h -8.44922 c -0.45313,0 -0.84766,-0.183594 -1.17578,-0.515626 -0.33204,-0.332031 -0.51563,-0.722656 -0.51563,-1.175781 V 49.855469 c 0,-2.113281 -0.51172,-3.710938 -1.50781,-4.859375 -0.9961,-1.144532 -2.50391,-1.71875 -4.46875,-1.71875 -1.83985,0 -3.28906,0.574218 -4.40625,1.71875 -1.08594,1.148437 -1.62891,2.777344 -1.62891,4.859375 v 18.320312 c 0,0.453125 -0.17969,0.84375 -0.51172,1.175781 -0.33203,0.332032 -0.72656,0.515626 -1.17578,0.515626 h -8.39062 z m 0,0"
       id="path5" />
    <path
       style="fill:#000000;fill-opacity:1;fill-rule:nonzero;stroke:none"
       d="m 293.25781,69.835938 c -2.86719,0 -5.33984,-0.453126 -7.42578,-1.390626 -2.08203,-0.902343 -3.67969,-2.351562 -4.79687,-4.285156 -1.11719,-1.960937 -1.69141,-4.464844 -1.69141,-7.542968 V 43.730469 H 274.125 c -0.48438,0 -0.90625,-0.152344 -1.23828,-0.484375 -0.33203,-0.300782 -0.51172,-0.722656 -0.51172,-1.207032 v -5.429687 c 0,-0.484375 0.17969,-0.90625 0.51172,-1.207031 0.33203,-0.304688 0.7539,-0.484375 1.23828,-0.484375 h 5.21875 V 23.84375 c 0,-0.484375 0.18359,-0.90625 0.51562,-1.210938 0.33204,-0.300781 0.72266,-0.480468 1.17579,-0.480468 h 7.78515 c 0.48438,0 0.90625,0.148437 1.20703,0.480468 0.30469,0.304688 0.48438,0.726563 0.48438,1.210938 v 11.074219 h 8.39062 c 0.48047,0 0.90625,0.152343 1.23828,0.484375 0.33204,0.300781 0.51172,0.722656 0.51172,1.207031 v 5.429687 c 0,0.484376 -0.17968,0.90625 -0.51172,1.207032 -0.33203,0.304687 -0.75781,0.484375 -1.23828,0.484375 h -8.39062 v 11.949219 c 0,1.511718 0.30078,2.71875 0.875,3.625 0.57422,0.902343 1.57031,1.324218 2.95703,1.324218 h 5.16016 c 0.48437,0 0.90625,0.152344 1.20703,0.484375 0.30468,0.300781 0.48437,0.722657 0.48437,1.207031 v 5.855469 c 0,0.453125 -0.15234,0.84375 -0.48437,1.175781 -0.30078,0.332032 -0.72266,0.515626 -1.20703,0.515626 h -6.2461 z m 0,0"
       id="path6" />
    <path
       style="fill:#7851fa;fill-opacity:1;fill-rule:nonzero;stroke:none"
       d="M 47.023438,35.402344 C 46.722656,35.097656 46.300781,34.917969 45.816406,34.917969 H 36.21875 V 1.691406 c 0,-0.453125 -0.152344,-0.847656 -0.484375,-1.179687 C 35.433594,0.179688 35.011719,0 34.527344,0 h -7.90625 C 26.140625,0 25.714844,0.179688 25.414062,0.511719 25.113281,0.84375 24.933594,1.238281 24.933594,1.691406 V 19.40625 L 16.691406,8.058594 C 16.421875,7.695312 16.058594,7.484375 15.636719,7.394531 c -0.453125,-0.089843 -0.875,0 -1.265625,0.300781 L 7.972656,12.34375 c -0.394531,0.300781 -0.636718,0.664062 -0.695312,1.117188 -0.0625,0.453124 0.058594,0.875 0.300781,1.238281 L 17.992188,29.03125 4.652344,24.6875 C 4.230469,24.535156 3.804688,24.566406 3.382812,24.777344 2.960938,24.957031 2.691406,25.289062 2.539062,25.773438 L 0.09375,33.316406 c -0.1484375,0.484375 -0.1210938,0.90625 0.089844,1.300782 0.210937,0.390624 0.542968,0.664062 0.96875,0.8125 l 16.839844,5.464843 -13.339844,4.34375 C 4.230469,45.390625 3.898438,45.660156 3.6875,46.054688 3.472656,46.445312 3.414062,46.898438 3.59375,47.351562 l 2.445312,7.546876 c 0.152344,0.480468 0.421876,0.78125 0.84375,0.992187 0.425782,0.183594 0.847657,0.214844 1.269532,0.09375 l 16.839844,-5.464844 -8.238282,11.347657 c -0.273437,0.363281 -0.363281,0.785156 -0.300781,1.238281 0.05859,0.453125 0.269531,0.816406 0.691406,1.117187 l 6.398438,4.648438 c 0.394531,0.300781 0.816406,0.390625 1.269531,0.300781 0.453125,-0.08984 0.8125,-0.300781 1.054688,-0.664063 L 36.28125,54.171875 v 14.035156 c 0,0.453125 0.148438,0.84375 0.480469,1.175781 0.300781,0.332032 0.726562,0.511719 1.207031,0.511719 H 45.875 c 0.484375,0 0.90625,-0.179687 1.207031,-0.511719 0.304688,-0.332031 0.484375,-0.722656 0.484375,-1.175781 V 36.609375 c -0.05859,-0.484375 -0.242187,-0.875 -0.542968,-1.207031 z m 0,0"
       id="path7" />
  </g>
</svg>
