<?xml version="1.0" encoding="UTF-8" standalone="no"?>
<svg
   width="20"
   height="15"
   viewBox="0 0 20 15"
   fill="none"
   version="1.1"
   id="svg1"
   xmlns="http://www.w3.org/2000/svg"
   xmlns:svg="http://www.w3.org/2000/svg">
  <defs
     id="defs1" />
  <path
     d="m 0.352,1.624 c 0,-0.17067 0.053333,-0.32 0.16,-0.448 C 0.64,1.048 0.810667,0.984 1.024,0.984 h 2.912 c 0.32,0 0.56533,0.08533 0.736,0.256 0.17067,0.17067 0.32,0.36267 0.448,0.576 l 4.928,7.392 4.928,-7.392 C 15.104,1.60267 15.2533,1.41067 15.424,1.24 15.616,1.06933 15.8613,0.984 16.16,0.984 h 2.944 c 0.192,0 0.3413,0.064 0.448,0.192 0.128,0.128 0.192,0.27733 0.192,0.448 0,0.10667 -0.032,0.21333 -0.096,0.32 -0.0427,0.10667 -0.0853,0.20267 -0.128,0.288 L 11.904,13.4 c -0.2133,0.32 -0.4267,0.5547 -0.64,0.704 -0.192,0.1493 -0.448,0.224 -0.768,0.224 H 9.632 c -0.32,0 -0.58667,-0.0747 -0.8,-0.224 C 8.64,13.9547 8.43733,13.72 8.224,13.4 L 0.608,2.232 C 0.544,2.14667 0.48,2.05067 0.416,1.944 0.373333,1.83733 0.352,1.73067 0.352,1.624 Z"
     fill="#000000"
     id="path1" />
</svg>
