<?xml version="1.0" encoding="UTF-8" standalone="no"?>
<svg
   width="157"
   height="169"
   viewBox="0 0 157 169"
   fill="none"
   version="1.1"
   id="svg3"
   sodipodi:docname="noun-calendar-6641614.svg"
   inkscape:version="1.3.2 (091e20e, 2023-11-25)"
   xmlns:inkscape="http://www.inkscape.org/namespaces/inkscape"
   xmlns:sodipodi="http://sodipodi.sourceforge.net/DTD/sodipodi-0.dtd"
   xmlns="http://www.w3.org/2000/svg"
   xmlns:svg="http://www.w3.org/2000/svg">
  <defs
     id="defs3" />
  <sodipodi:namedview
     id="namedview3"
     pagecolor="#ffffff"
     bordercolor="#000000"
     borderopacity="0.25"
     inkscape:showpageshadow="2"
     inkscape:pageopacity="0.0"
     inkscape:pagecheckerboard="0"
     inkscape:deskcolor="#d1d1d1"
     inkscape:zoom="1.3964497"
     inkscape:cx="78.771186"
     inkscape:cy="84.5"
     inkscape:window-width="1312"
     inkscape:window-height="449"
     inkscape:window-x="0"
     inkscape:window-y="38"
     inkscape:window-maximized="0"
     inkscape:current-layer="svg3" />
  <path
     d="M139.933 13.792H121.022V3.71459C121.022 1.8572 119.492 0.355469 117.608 0.355469C115.724 0.355469 114.195 1.8572 114.195 3.71459V13.792H42.8053V3.71459C42.8053 1.8572 41.2758 0.355469 39.3918 0.355469C37.5078 0.355469 35.9783 1.8572 35.9783 3.71459V13.792H17.0674C7.65755 13.792 0 21.3302 0 30.5876V151.516C0 160.773 7.65755 168.312 17.0674 168.312H139.933C149.342 168.312 157 160.773 157 151.516V30.5876C157 21.3302 149.342 13.792 139.933 13.792ZM42.8053 20.5102H114.195V38.0369H42.8053V20.5102ZM6.82697 30.5876C6.82697 25.0352 11.4154 20.5102 17.0674 20.5102H35.9783V38.0369H6.82697V30.5876ZM150.173 151.516C150.173 157.069 145.585 161.593 139.933 161.593H17.0674C11.4255 161.593 6.82697 157.069 6.82697 151.516V44.7552H150.173V151.516ZM150.173 38.0369H121.022V20.5102H139.933C145.574 20.5102 150.173 25.0352 150.173 30.5876V38.0369Z"
     fill="black"
     id="path3" />
</svg>
