<?xml version="1.0" encoding="UTF-8" standalone="no"?>
<svg
   width="38.299"
   height="4.52"
   version="1.1"
   viewBox="0 0 28.724249 3.39"
   id="svg3"
   sodipodi:docname="noun-dashed-line-384455.svg"
   inkscape:version="1.3.2 (091e20e, 2023-11-25)"
   xmlns:inkscape="http://www.inkscape.org/namespaces/inkscape"
   xmlns:sodipodi="http://sodipodi.sourceforge.net/DTD/sodipodi-0.dtd"
   xmlns="http://www.w3.org/2000/svg"
   xmlns:svg="http://www.w3.org/2000/svg">
  <defs
     id="defs3" />
  <sodipodi:namedview
     id="namedview3"
     pagecolor="#ffffff"
     bordercolor="#000000"
     borderopacity="0.25"
     inkscape:showpageshadow="2"
     inkscape:pageopacity="0.0"
     inkscape:pagecheckerboard="0"
     inkscape:deskcolor="#d1d1d1"
     inkscape:document-units="pt"
     inkscape:zoom="13.430047"
     inkscape:cx="11.020066"
     inkscape:cy="12.509264"
     inkscape:window-width="1352"
     inkscape:window-height="805"
     inkscape:window-x="0"
     inkscape:window-y="38"
     inkscape:window-maximized="0"
     inkscape:current-layer="g3" />
  <g
     id="g3"
     transform="translate(-200,-550)">
    <path
       d="m 205.08475,550 h -3.38983 C 200.67797,550 200,550.67797 200,551.69492 c 0,1.01694 0.67797,1.69491 1.69492,1.69491 h 3.38983 c 1.01694,0 1.69491,-0.67797 1.69491,-1.69491 0,-1.01695 -0.67797,-1.69492 -1.69491,-1.69492 z"
       id="path1"
       style="fill:#cccccc;fill-opacity:1;stroke-width:0.0338983" />
    <path
       d="m 219.5297,550 h -3.38983 c -1.01695,0 -1.69492,0.67797 -1.69492,1.69492 0,1.01694 0.67797,1.69491 1.69492,1.69491 h 3.38983 c 1.01695,0 1.69491,-0.67797 1.69491,-1.69491 0,-1.01695 -0.67796,-1.69492 -1.69491,-1.69492 z"
       id="path3"
       style="fill:#cccccc;fill-opacity:1;stroke-width:0.0338983" />
  </g>
</svg>
