<?xml version="1.0" encoding="UTF-8"?>
<svg fill="#16A34A" width="100pt" height="100pt" version="1.1" viewBox="0 0 100 100" xmlns="http://www.w3.org/2000/svg">
 <path d="m50 2.5c-26.199 0-47.5 21.301-47.5 47.5s21.301 47.5 47.5 47.5 47.5-21.301 47.5-47.5-21.301-47.5-47.5-47.5zm21.301 42.102-21.102 21.199c-1.3984 1.3984-3.3008 2.1992-5.1992 2.1992s-3.8008-0.69922-5.1992-2.1992l-11.102-11.102c-2.8984-2.8984-2.8984-7.6016 0-10.5 2.8984-2.8984 7.6016-2.8984 10.5 0l5.8008 5.8008 15.898-16c2.8984-2.8984 7.6016-2.8984 10.5 0 2.9023 2.8984 2.8008 7.8008-0.097657 10.602z"/>
</svg>
