<?xml version="1.0" encoding="UTF-8"?>
<svg xmlns="http://www.w3.org/2000/svg" xmlns:xlink="http://www.w3.org/1999/xlink" width="353.487897" height="55" viewBox="0 0 353.487897 55">
<path fill-rule="nonzero" fill="rgb(0%, 0%, 0%)" fill-opacity="1" d="M 349.363281 12.414062 C 349.363281 12.199219 349.289062 12.035156 349.15625 11.929688 C 349.015625 11.820312 348.839844 11.765625 348.632812 11.765625 L 347.425781 11.765625 L 347.425781 13.066406 L 348.632812 13.066406 C 348.839844 13.066406 349.015625 13.015625 349.15625 12.910156 C 349.289062 12.804688 349.363281 12.640625 349.363281 12.414062 Z M 350.136719 12.390625 C 350.136719 12.753906 350.046875 13.046875 349.875 13.273438 C 349.695312 13.5 349.457031 13.652344 349.167969 13.738281 L 350.101562 15.582031 L 349.195312 15.582031 L 348.304688 13.820312 L 347.425781 13.820312 L 347.425781 15.582031 L 346.652344 15.582031 L 346.652344 11.011719 L 348.648438 11.011719 C 348.847656 11.011719 349.039062 11.035156 349.222656 11.09375 C 349.398438 11.148438 349.558594 11.230469 349.695312 11.34375 C 349.824219 11.457031 349.933594 11.597656 350.015625 11.773438 C 350.097656 11.945312 350.136719 12.15625 350.136719 12.394531 Z M 351.75 13.378906 C 351.75 12.882812 351.660156 12.421875 351.484375 11.992188 C 351.308594 11.5625 351.058594 11.1875 350.738281 10.871094 C 350.425781 10.554688 350.050781 10.308594 349.621094 10.128906 C 349.195312 9.949219 348.734375 9.863281 348.238281 9.863281 C 347.734375 9.863281 347.273438 9.949219 346.851562 10.128906 C 346.421875 10.308594 346.054688 10.554688 345.734375 10.871094 C 345.417969 11.1875 345.171875 11.5625 344.992188 11.992188 C 344.8125 12.421875 344.726562 12.882812 344.726562 13.378906 C 344.726562 13.882812 344.8125 14.34375 344.992188 14.769531 C 345.171875 15.199219 345.417969 15.570312 345.734375 15.886719 C 346.054688 16.203125 346.421875 16.453125 346.851562 16.628906 C 347.273438 16.808594 347.734375 16.894531 348.238281 16.894531 C 348.734375 16.894531 349.195312 16.804688 349.621094 16.628906 C 350.050781 16.449219 350.425781 16.203125 350.738281 15.886719 C 351.058594 15.570312 351.308594 15.195312 351.484375 14.769531 C 351.660156 14.34375 351.75 13.882812 351.75 13.378906 Z M 352.421875 13.378906 C 352.421875 13.976562 352.316406 14.527344 352.101562 15.039062 C 351.890625 15.546875 351.597656 15.992188 351.21875 16.367188 C 350.847656 16.742188 350.40625 17.035156 349.898438 17.25 C 349.382812 17.460938 348.832031 17.570312 348.238281 17.570312 C 347.640625 17.570312 347.089844 17.460938 346.582031 17.25 C 346.070312 17.035156 345.628906 16.742188 345.253906 16.367188 C 344.878906 15.992188 344.585938 15.546875 344.371094 15.039062 C 344.160156 14.527344 344.054688 13.972656 344.054688 13.378906 C 344.054688 12.78125 344.160156 12.230469 344.371094 11.71875 C 344.585938 11.207031 344.878906 10.765625 345.253906 10.390625 C 345.628906 10.015625 346.070312 9.722656 346.582031 9.507812 C 347.089844 9.292969 347.640625 9.1875 348.238281 9.1875 C 348.832031 9.1875 349.382812 9.292969 349.898438 9.507812 C 350.40625 9.71875 350.847656 10.015625 351.21875 10.390625 C 351.597656 10.765625 351.890625 11.207031 352.101562 11.71875 C 352.316406 12.230469 352.421875 12.78125 352.421875 13.378906 Z M 64.878906 47.679688 L 64.878906 18.304688 L 70.902344 18.304688 L 70.902344 47.679688 Z M 59.910156 41.289062 L 60.25 41.070312 L 58.808594 46.738281 L 58.742188 46.777344 C 57.765625 47.382812 56.117188 48.183594 53.421875 48.125 C 49.421875 48.058594 46.746094 44.96875 46.746094 40.445312 L 46.746094 23.863281 L 41.664062 23.863281 L 41.664062 18.339844 L 46.746094 18.339844 L 46.746094 12.359375 L 52.652344 9.1875 L 52.652344 18.339844 L 58.753906 18.339844 L 58.753906 23.863281 L 52.652344 23.863281 L 52.652344 39.460938 C 52.652344 41.742188 53.511719 42.769531 55.460938 42.769531 C 56.804688 42.769531 58.304688 42.269531 59.910156 41.289062 Z M 30.34375 47.679688 L 30.34375 18.304688 L 36.359375 18.304688 L 36.359375 47.679688 Z M 7.132812 33.039062 C 7.132812 38.53125 10.964844 42.480469 16.25 42.480469 C 18.792969 42.480469 21.253906 41.34375 23.371094 39.179688 L 23.5 39.042969 L 26.921875 43.15625 L 26.828125 43.265625 C 23.984375 46.617188 20.589844 48.246094 16.417969 48.246094 C 12.230469 48.246094 8.414062 46.84375 5.636719 44.289062 C 2.65625 41.527344 1.066406 37.632812 1.066406 33.039062 C 1.066406 28.433594 2.65625 24.546875 5.636719 21.789062 C 8.414062 19.238281 12.230469 17.839844 16.417969 17.839844 C 20.589844 17.839844 23.984375 19.457031 26.828125 22.8125 L 26.921875 22.917969 L 23.496094 27.042969 L 23.371094 26.910156 C 21.253906 24.726562 18.792969 23.585938 16.25 23.585938 C 10.964844 23.585938 7.132812 27.570312 7.132812 33.039062 Z M 292.453125 47.6875 L 285.585938 47.6875 L 282.796875 42.601562 C 281.621094 40.476562 280.285156 37.792969 279.726562 36.675781 C 279.222656 37.792969 277.660156 40.644531 276.542969 42.660156 L 273.695312 47.6875 L 267.183594 47.6875 L 276.175781 32.484375 L 267.796875 18.34375 L 274.476562 18.34375 L 276.765625 22.476562 C 277.9375 24.601562 279.335938 27.230469 279.835938 28.347656 C 280.449219 27.230469 281.847656 24.433594 282.960938 22.367188 L 285.195312 18.34375 L 291.839844 18.34375 L 283.40625 32.484375 Z M 246.890625 30.304688 L 261.386719 30.304688 C 261.105469 26.277344 258.769531 22.925781 254.027344 22.925781 C 250.175781 22.925781 247.390625 25.609375 246.890625 30.304688 Z M 267.191406 32.429688 C 267.191406 33.488281 267.078125 34.441406 267.023438 35.054688 L 246.777344 35.054688 C 247.390625 40.699219 251.011719 43.03125 254.582031 43.03125 C 257.039062 43.03125 259.652344 42.136719 261.605469 40.683594 L 264.792969 44.445312 C 262.222656 46.90625 258.714844 48.304688 254.25 48.304688 C 247.382812 48.304688 241.027344 42.769531 241.027344 33.042969 C 241.027344 23.09375 246.824219 17.726562 254.417969 17.726562 C 262.734375 17.726562 267.191406 24.492188 267.191406 32.429688 Z M 237.117188 30.644531 L 237.117188 47.6875 L 231.210938 47.6875 L 231.210938 31.085938 C 231.210938 25.160156 229.367188 23.039062 225.570312 23.039062 C 221.71875 23.039062 220.011719 25.777344 220.011719 30.527344 L 220.011719 47.6875 L 214.105469 47.6875 L 214.105469 31.085938 C 214.105469 25.160156 212.339844 23.039062 208.546875 23.039062 C 204.695312 23.039062 202.6875 25.777344 202.6875 30.527344 L 202.6875 47.6875 L 196.78125 47.6875 L 196.78125 18.34375 L 202.6875 18.34375 L 202.6875 21.136719 C 204.140625 19.011719 206.871094 17.726562 209.886719 17.726562 C 213.847656 17.726562 216.359375 19.234375 217.925781 22.03125 C 220.046875 19.40625 222.335938 17.726562 226.910156 17.726562 C 233.722656 17.726562 237.117188 20.808594 237.117188 30.644531 Z M 185.5 39.359375 L 185.5 35.167969 C 183.9375 34.382812 181.710938 33.882812 178.582031 33.882812 C 174.898438 33.882812 172.335938 35.558594 172.335938 38.242188 C 172.335938 41.148438 174.394531 43.105469 178.191406 43.105469 C 181.261719 43.105469 184.160156 41.203125 185.5 39.359375 Z M 179.8125 17.726562 C 186.34375 17.726562 191.40625 20.914062 191.40625 27.566406 L 191.40625 47.6875 L 185.5 47.6875 L 185.5 44.78125 C 183.492188 46.792969 180.425781 48.304688 177.242188 48.304688 C 172.496094 48.304688 166.789062 45.621094 166.789062 38.410156 C 166.789062 31.867188 172.105469 28.90625 178.75 28.90625 C 181.484375 28.90625 183.882812 29.296875 185.5 30.023438 L 185.5 27.84375 C 185.5 24.65625 183.109375 22.871094 179.535156 22.871094 C 176.523438 22.871094 174.179688 23.429688 171.886719 24.714844 L 169.65625 20.355469 C 172.445312 18.621094 175.683594 17.726562 179.8125 17.726562 Z M 127.871094 39.359375 L 127.871094 35.167969 C 126.308594 34.382812 124.082031 33.882812 120.953125 33.882812 C 117.269531 33.882812 114.707031 35.558594 114.707031 38.242188 C 114.707031 41.148438 116.769531 43.105469 120.5625 43.105469 C 123.632812 43.105469 126.53125 41.203125 127.871094 39.359375 Z M 122.183594 17.726562 C 128.71875 17.726562 133.777344 20.914062 133.777344 27.566406 L 133.777344 47.6875 L 127.871094 47.6875 L 127.871094 44.78125 C 125.863281 46.792969 122.796875 48.304688 119.613281 48.304688 C 114.871094 48.304688 109.160156 45.621094 109.160156 38.410156 C 109.160156 31.867188 114.480469 28.90625 121.121094 28.90625 C 123.855469 28.90625 126.253906 29.296875 127.871094 30.023438 L 127.871094 27.84375 C 127.871094 24.65625 125.480469 22.871094 121.910156 22.871094 C 118.894531 22.871094 116.550781 23.429688 114.261719 24.714844 L 112.027344 20.355469 C 114.816406 18.621094 118.054688 17.726562 122.183594 17.726562 Z M 163.242188 30.863281 L 163.242188 47.6875 L 157.335938 47.6875 L 157.335938 31.085938 C 157.335938 25.160156 155.105469 23.039062 151.308594 23.039062 C 147.457031 23.039062 145.058594 25.777344 145.058594 30.527344 L 145.058594 47.6875 L 139.152344 47.6875 L 139.152344 18.34375 L 145.058594 18.34375 L 145.058594 21.136719 C 146.511719 19.011719 149.734375 17.726562 152.75 17.726562 C 159.558594 17.726562 163.242188 21.515625 163.242188 30.863281 Z M 93.734375 42.992188 C 97.863281 42.992188 100.753906 39.863281 100.753906 33.660156 C 100.753906 26.277344 97.753906 23.039062 93.507812 23.039062 C 90.773438 23.039062 87.9375 24.882812 86.429688 26.78125 L 86.429688 39.136719 C 87.710938 40.871094 90.828125 42.992188 93.734375 42.992188 Z M 94.570312 17.726562 C 100.878906 17.726562 106.535156 22.3125 106.535156 33.488281 C 106.535156 43.554688 100.375 48.304688 94.292969 48.304688 C 91.332031 48.304688 88.101562 46.738281 86.484375 44.949219 L 86.484375 47.6875 L 80.578125 47.6875 L 80.578125 12.359375 L 86.484375 9.1875 L 86.484375 21.136719 C 88.605469 19.179688 91.5 17.726562 94.570312 17.726562 Z M 94.570312 17.726562 "/>
<path fill-rule="nonzero" fill="rgb(0%, 0%, 0%)" fill-opacity="1" d="M 74.871094 13.902344 L 67.960938 13.902344 C 63.238281 9.027344 57.035156 6.375 50.714844 6.375 C 44.285156 6.390625 38.1875 9.027344 33.453125 13.902344 L 26.558594 13.902344 C 31.730469 6.214844 40.976562 1.066406 50.714844 1.066406 C 60.597656 1.0625 69.863281 6.367188 74.871094 13.902344 M 336.257812 27.484375 C 337.839844 27.875 339.539062 28.375 341.144531 28.902344 C 343.390625 29.636719 344.058594 31.324219 344.058594 33.140625 C 344.058594 36.554688 341.679688 41.730469 339.148438 44.433594 C 337.707031 45.96875 336.558594 46.6875 335.117188 46.6875 C 334.277344 46.6875 333.363281 46.503906 332.234375 46.140625 C 330.511719 45.589844 328.398438 44.777344 327.199219 44.304688 C 327.300781 45.90625 327.339844 46.6875 327.339844 49.355469 C 327.339844 53.613281 322.550781 53.933594 319.855469 53.933594 C 317.277344 53.933594 314.128906 53.4375 311.65625 52.3125 C 308.875 50.96875 307.976562 49.664062 307.976562 45.222656 C 307.976562 43.441406 308.101562 42.183594 308.191406 40.890625 C 306.667969 41.472656 305.011719 42.0625 303.394531 42.582031 C 299.304688 43.925781 297.53125 39.503906 296.703125 36.949219 C 295.886719 34.542969 295.613281 32.332031 295.613281 30.425781 C 295.613281 25.996094 297.011719 24.496094 300.386719 23.40625 C 302.101562 22.855469 304.289062 22.296875 305.542969 21.972656 C 304.53125 20.738281 303.449219 19.359375 302.457031 17.976562 C 301.84375 17.167969 301.585938 16.378906 301.585938 15.636719 C 301.585938 13.171875 304.117188 11.152344 305.792969 9.941406 C 307.878906 8.527344 311.753906 6.375 315.242188 6.375 C 317.140625 6.375 318.378906 7.1875 319.949219 9.203125 C 321.019531 10.636719 322.242188 12.511719 322.9375 13.609375 C 323.804688 12.257812 324.792969 10.8125 325.800781 9.453125 C 326.71875 8.328125 327.847656 7.863281 328.996094 7.863281 C 331.042969 7.863281 333.179688 9.109375 334.589844 10.121094 C 336.527344 11.589844 338.816406 13.835938 340.105469 16.164062 C 340.839844 17.433594 341.21875 18.476562 341.21875 19.476562 C 341.21875 20.65625 340.691406 21.816406 339.589844 23.3125 C 338.53125 24.75 337.105469 26.503906 336.257812 27.484375 Z M 330.613281 26.503906 C 331.695312 26.503906 333.617188 26.804688 335.515625 27.296875 C 335.214844 25.222656 334.027344 20.792969 329.707031 17.699219 C 329.28125 17.402344 328.925781 17.265625 328.601562 17.265625 C 327.960938 17.265625 327.40625 17.839844 327.40625 18.46875 C 327.40625 19.054688 327.820312 19.726562 328.429688 20.535156 C 329.265625 21.644531 330.628906 23.261719 330.628906 24.761719 C 330.628906 25.730469 330.0625 26.351562 329.714844 26.589844 C 330.011719 26.527344 330.304688 26.503906 330.613281 26.503906 Z M 332.585938 38.839844 C 333.933594 36.875 334.683594 35.03125 334.683594 34.246094 C 334.683594 33.476562 333.933594 33.15625 333.445312 33.15625 C 332.761719 33.15625 332.125 33.679688 331.421875 34.664062 C 330.371094 36.160156 328.742188 38.742188 326.613281 38.046875 C 326.378906 37.960938 326.152344 37.875 326.003906 37.75 C 326.347656 38.371094 326.511719 39.058594 326.667969 39.714844 C 326.863281 40.691406 327.03125 42.007812 327.140625 43.488281 C 328.449219 42.78125 330.722656 41.359375 332.585938 38.839844 Z M 325.378906 36.996094 C 325.183594 36.53125 325.082031 35.96875 325.089844 35.308594 C 325.089844 34.21875 325.367188 32.960938 325.851562 31.433594 C 326.742188 28.746094 327.746094 27.484375 328.800781 26.925781 C 327.457031 27.085938 325.59375 26.238281 323.488281 24.730469 C 321.171875 23.046875 320.265625 21.714844 320.050781 20.5625 C 319.792969 21.871094 318.382812 23.378906 316.296875 24.886719 C 313.957031 26.5625 312.402344 26.992188 311.234375 26.832031 C 312.414062 27.476562 313.417969 29.261719 314.222656 31.707031 C 314.699219 33.132812 314.910156 34.164062 314.910156 35.070312 C 314.910156 35.859375 314.765625 36.453125 314.523438 36.9375 C 315.523438 36.03125 317.550781 35.625 320.132812 35.625 C 323.011719 35.625 324.539062 36.1875 325.378906 36.996094 Z M 319.285156 44.929688 C 320.496094 44.929688 320.902344 44.335938 320.902344 43.671875 C 320.902344 42.777344 320.019531 42.304688 318.628906 41.890625 C 316.875 41.355469 313.902344 40.625 313.902344 38.398438 C 313.902344 38.160156 313.933594 37.9375 314.003906 37.753906 C 313.511719 38.273438 312.886719 38.628906 312.289062 38.96875 C 311.445312 39.476562 310.238281 40.019531 308.957031 40.59375 C 310.351562 42.03125 313.945312 44.929688 319.285156 44.929688 Z M 307.875 32.226562 C 307.828125 30.410156 307.605469 27.371094 309.757812 26.691406 C 309.972656 26.589844 310.128906 26.570312 310.296875 26.589844 C 309.410156 26.148438 307.9375 24.730469 306.074219 22.597656 C 305.164062 24.472656 303.503906 28.753906 305.140625 33.648438 C 305.503906 34.773438 306.214844 34.984375 306.847656 34.78125 C 307.722656 34.5 307.898438 33.644531 307.878906 32.226562 Z M 311.464844 16.871094 C 310.851562 17.296875 310.644531 17.746094 310.644531 18.109375 C 310.644531 18.484375 310.941406 19.339844 311.984375 19.339844 C 313.480469 19.339844 315.484375 18.035156 317.550781 18.035156 C 319.480469 18.035156 319.949219 19.414062 320.019531 19.621094 C 320.074219 18.730469 320.863281 16.839844 322.484375 14.304688 C 321.910156 14.210938 321.113281 14.148438 320.1875 14.148438 C 317.78125 14.148438 314.558594 14.644531 311.464844 16.871094 Z M 311.464844 16.871094 "/>
</svg>
