<?xml version="1.0" encoding="UTF-8"?>
<svg xmlns="http://www.w3.org/2000/svg" xmlns:xlink="http://www.w3.org/1999/xlink" width="137.225549" height="55" viewBox="0 0 137.225549 55">
<path fill-rule="nonzero" fill="rgb(0%, 0%, 0%)" fill-opacity="1" d="M 17.746094 12.003906 C 8.066406 12.003906 0 16.109375 0 28.5 C 0 38.3125 5.421875 44.492188 17.992188 44.492188 C 32.789062 44.492188 33.738281 34.746094 33.738281 34.746094 L 26.570312 34.746094 C 26.570312 34.746094 25.03125 39.996094 17.558594 39.996094 C 11.46875 39.996094 7.089844 35.882812 7.089844 30.117188 L 34.488281 30.117188 L 34.488281 26.5 C 34.488281 20.796875 30.867188 12.003906 17.746094 12.003906 Z M 17.496094 16.628906 C 23.289062 16.628906 27.242188 20.179688 27.242188 25.5 L 7.246094 25.5 C 7.246094 19.851562 12.40625 16.628906 17.496094 16.628906 Z M 17.496094 16.628906 "/>
<path fill-rule="nonzero" fill="rgb(0%, 0%, 0%)" fill-opacity="1" d="M 34.484375 0.0078125 L 34.484375 38.273438 C 34.484375 40.445312 34.328125 43.492188 34.328125 43.492188 L 41.167969 43.492188 C 41.167969 43.492188 41.414062 41.304688 41.414062 39.300781 C 41.414062 39.300781 44.789062 44.585938 53.976562 44.585938 C 63.652344 44.585938 70.222656 37.871094 70.222656 28.25 C 70.222656 19.296875 64.1875 12.097656 53.992188 12.097656 C 44.449219 12.097656 41.480469 17.253906 41.480469 17.253906 L 41.480469 0.0078125 Z M 52.226562 16.832031 C 58.796875 16.832031 62.976562 21.707031 62.976562 28.25 C 62.976562 35.265625 58.148438 39.855469 52.273438 39.855469 C 45.265625 39.855469 41.480469 34.378906 41.480469 28.3125 C 41.480469 22.65625 44.875 16.832031 52.226562 16.832031 Z M 52.226562 16.832031 "/>
<path fill-rule="nonzero" fill="rgb(0%, 0%, 0%)" fill-opacity="1" d="M 87.21875 12.003906 C 72.65625 12.003906 71.722656 19.976562 71.722656 21.25 L 78.96875 21.25 C 78.96875 21.25 79.347656 16.597656 86.71875 16.597656 C 91.503906 16.597656 95.214844 18.789062 95.214844 23 L 95.214844 24.5 L 86.71875 24.5 C 75.4375 24.5 69.472656 27.800781 69.472656 34.496094 C 69.472656 41.085938 74.984375 44.671875 82.429688 44.671875 C 92.578125 44.671875 95.847656 39.066406 95.847656 39.066406 C 95.847656 41.296875 96.019531 43.496094 96.019531 43.496094 L 102.460938 43.496094 C 102.460938 43.496094 102.210938 40.769531 102.210938 39.027344 L 102.210938 23.960938 C 102.210938 14.082031 94.246094 12.003906 87.21875 12.003906 Z M 95.214844 29 L 95.214844 31 C 95.214844 33.605469 93.605469 40.089844 84.132812 40.089844 C 78.945312 40.089844 76.71875 37.5 76.71875 34.496094 C 76.71875 29.035156 84.210938 29 95.214844 29 Z M 95.214844 29 "/>
<path fill-rule="nonzero" fill="rgb(0%, 0%, 0%)" fill-opacity="1" d="M 98.308594 13.253906 L 106.460938 13.253906 L 118.164062 36.699219 L 129.839844 13.253906 L 137.226562 13.253906 L 115.960938 54.992188 L 108.210938 54.992188 L 114.347656 43.355469 Z M 98.308594 13.253906 "/>
</svg>
