<?xml version="1.0" encoding="UTF-8"?>
<svg xmlns="http://www.w3.org/2000/svg" xmlns:xlink="http://www.w3.org/1999/xlink" width="291.560646" height="55" viewBox="0 0 291.560646 55">
<path fill-rule="nonzero" fill="rgb(0%, 0%, 0%)" fill-opacity="1" d="M 114.1875 10.636719 L 122.246094 10.636719 L 122.246094 13.390625 C 123.113281 12.636719 125.90625 9.960938 131.066406 9.960938 C 137.140625 9.960938 141.964844 14.445312 141.964844 21.484375 L 141.964844 39.757812 L 133.449219 39.757812 L 133.449219 23.75 C 133.449219 19.824219 131.535156 17.496094 128.074219 17.496094 C 124.71875 17.496094 122.699219 19.691406 122.699219 23.75 L 122.699219 39.757812 L 114.1875 39.757812 L 114.1875 10.636719 M 195.277344 25.195312 C 195.277344 16.796875 202.003906 9.960938 210.816406 9.960938 C 219.621094 9.960938 226.347656 16.796875 226.347656 25.195312 C 226.347656 33.59375 219.621094 40.417969 210.816406 40.417969 C 202.003906 40.417969 195.277344 33.59375 195.277344 25.195312 M 203.683594 25.195312 C 203.683594 29.21875 206.6875 32.527344 210.863281 32.527344 C 215.050781 32.527344 218.058594 29.21875 218.058594 25.195312 C 218.058594 21.171875 215.050781 17.863281 210.863281 17.863281 C 206.6875 17.863281 203.683594 21.171875 203.683594 25.195312 M 78.359375 25.203125 C 78.359375 16.796875 85.089844 9.964844 93.890625 9.964844 C 102.703125 9.964844 109.429688 16.796875 109.429688 25.203125 C 109.429688 33.597656 102.703125 40.421875 93.890625 40.421875 C 85.085938 40.421875 78.359375 33.597656 78.359375 25.203125 M 86.761719 25.199219 C 86.761719 29.222656 89.765625 32.535156 93.949219 32.535156 C 98.132812 32.535156 101.140625 29.222656 101.140625 25.199219 C 101.140625 21.171875 98.132812 17.867188 93.949219 17.867188 C 89.765625 17.867188 86.761719 21.171875 86.761719 25.199219 M 267.644531 7.410156 L 276.273438 7.410156 L 276.273438 0 L 267.644531 0 Z M 267.644531 39.757812 L 276.273438 39.757812 L 276.273438 10.636719 L 267.644531 10.636719 Z M 282.929688 39.757812 L 291.5625 39.757812 L 291.5625 0 L 282.929688 0 Z M 239.519531 39.757812 L 231.335938 39.757812 L 231.335938 0 L 239.613281 0 L 239.613281 12.949219 C 240.023438 12.644531 242.707031 9.960938 248.5625 9.960938 C 256.226562 9.960938 262.621094 16.539062 262.621094 25.203125 C 262.621094 33.84375 255.808594 40.425781 248.464844 40.425781 C 242.878906 40.425781 240.214844 37.972656 239.613281 37.515625 L 239.519531 39.757812 M 253.875 25.179688 C 253.875 21.085938 250.769531 17.90625 246.613281 17.90625 C 242.480469 17.90625 239.304688 21.054688 239.304688 25.203125 C 239.304688 29.296875 242.4375 32.472656 246.601562 32.472656 C 250.730469 32.472656 253.875 29.285156 253.875 25.179688 M 28.164062 39.757812 L 38.148438 39.757812 L 47.121094 28.222656 L 52.714844 33.890625 L 39.914062 49.917969 L 49.929688 49.917969 L 58.125 39.296875 L 73.554688 55 L 85.648438 55 L 63.472656 32.699219 L 80.9375 10.636719 L 70.914062 10.636719 L 58.007812 27.207031 L 52.421875 21.59375 L 66.78125 3.511719 L 56.785156 3.511719 L 46.980469 16.128906 L 41.652344 10.636719 L 29.726562 10.636719 L 41.738281 22.765625 L 28.164062 39.757812 M 0 0 L 0 39.757812 L 26.183594 39.757812 L 26.183594 32.335938 L 8.90625 32.335938 L 8.90625 22.839844 L 25.40625 22.839844 L 25.40625 15.648438 L 8.90625 15.648438 L 8.90625 7.40625 L 26.183594 7.40625 L 26.183594 0 L 0 0 M 148.785156 0 L 148.785156 39.757812 L 157.160156 39.757812 L 157.160156 9.738281 L 157.539062 9.738281 L 164.75 39.757812 L 174.160156 39.757812 L 181.535156 9.738281 L 181.917969 9.738281 L 181.917969 39.757812 L 190.292969 39.757812 L 190.292969 0 L 176.613281 0 L 169.800781 29.015625 L 169.5 29.015625 L 162.859375 0 L 148.785156 0 "/>
</svg>
