<?xml version="1.0" encoding="UTF-8"?>
<svg xmlns="http://www.w3.org/2000/svg" xmlns:xlink="http://www.w3.org/1999/xlink" width="196.880531" height="55" viewBox="0 0 196.880531 55">
<path fill-rule="evenodd" fill="rgb(100%, 100%, 100%)" fill-opacity="1" stroke-width="1" stroke-linecap="butt" stroke-linejoin="miter" stroke="rgb(100%, 100%, 100%)" stroke-opacity="1" stroke-miterlimit="4" d="M 13.466903 12.247017 C 13.194034 12.937216 13.097727 58.281676 13.242188 113 L 13.499006 212.500994 L 67.495028 212.757812 C 127.41392 213.046733 130.688352 212.805966 148.72983 206.706534 C 178.456534 196.642472 205.213778 167.814631 212.500994 137.959517 C 216.417472 121.89233 215.374148 93.802841 210.350142 79.677841 C 196.979545 42.166335 165.503267 17.014205 125.696449 12.022301 C 113.208665 10.44929 14.060795 10.657955 13.466903 12.247017 M 181.602557 11.829688 C 181.329688 12.279119 183.33608 14.365767 186.064773 16.452415 C 193.063068 21.781392 203.367898 33.177699 209.178409 41.973722 C 241.778267 91.379119 231.954972 155.872585 185.968466 194.250852 C 180.190057 199.066193 162.469602 209.997017 160.431108 209.997017 C 159.773011 209.997017 158.681534 210.671165 158.007386 211.505824 C 156.899858 212.838068 192.501278 212.99858 477.376847 212.99858 L 798.014347 212.99858 L 797.50071 11.492614 L 489.816477 11.251847 C 320.573295 11.107386 181.891477 11.364205 181.602557 11.829688 M 109.003267 36.997869 C 106.531392 39.469744 106.531392 39.678409 109.035369 47.110085 C 111.828267 55.408523 112.85554 68.730966 110.752841 69.533523 C 108.489631 70.416335 93.337358 68.121023 87.99233 66.09858 C 79.533381 62.872301 73.433949 69.373011 78.746875 75.937926 C 80.865625 78.53821 82.823864 78.650568 89.998722 76.596023 C 93.032386 75.729261 99.212074 74.71804 103.754545 74.364915 L 112.00483 73.706818 L 111.988778 77.109659 C 111.940625 84.059801 109.035369 94.460938 105.873295 98.955256 C 102.887784 103.224858 102.775426 103.738494 103.353267 110.46392 C 104.011364 118.184517 113.786506 185.117756 114.332244 185.663494 C 114.508807 185.840057 115.921307 176.658807 117.446165 165.246449 C 118.987074 153.834091 121.523153 135.18267 123.080114 123.802415 L 125.905114 103.1125 L 123.015909 100.014631 C 120.126705 96.916761 117.863494 89.13196 116.643608 78.10483 L 116.146023 73.722869 L 125.022301 74.397017 C 129.885795 74.766193 136.30625 75.85767 139.259659 76.83679 C 147.702557 79.629688 151.891903 77.12571 150.832528 69.950852 C 150.14233 65.231818 146.209801 63.723011 140.383239 65.938068 C 134.026989 68.36179 118.200568 70.592898 116.852273 69.260653 C 115.68054 68.08892 117.398011 53.321875 119.50071 46.355682 C 121.844176 38.667188 120.0625 35.007528 113.99517 35.007528 C 112.325852 35.007528 110.110795 35.890341 109.003267 36.997869 M 482.673722 52.663778 C 482.304545 53.032955 481.999574 79.80625 481.999574 112.165341 L 481.999574 170.992756 L 501.004119 170.992756 L 501.004119 52.005682 L 492.159943 52.005682 C 487.3125 52.005682 483.026847 52.294602 482.673722 52.663778 M 526.701989 56.596307 C 521.340909 59.501563 520.409943 67.190057 524.824006 72.117756 C 530.281392 78.233239 540.072585 75.42429 541.597443 67.318466 C 543.266761 58.442188 534.695455 52.2625 526.701989 56.596307 M 641.997301 55.713494 C 633.458097 58.827415 633.907528 71.732528 642.671449 75.055114 C 652.173722 78.68267 659.830114 64.236648 651.916903 57.591477 C 649.011648 55.135653 645.416193 54.461506 641.997301 55.713494 M 332.001705 62.278409 C 303.944318 71.876989 289.177273 99.099716 295.389063 129.757386 C 302.900994 166.81946 332.402983 181.153125 374.745881 168.328267 L 382.996165 165.82429 L 382.996165 112.00483 L 345.003125 112.00483 L 345.003125 128.007812 L 364.00767 128.007812 L 364.00767 154.909517 L 360.444318 155.583665 C 353.26946 156.915909 340.845881 155.51946 335.46875 152.758665 C 312.72429 141.121591 307.796591 106.114063 326.303551 87.799716 C 335.661364 78.53821 338.85554 77.510938 358.502131 77.446733 L 375.500284 77.382528 L 377.683239 70.946023 C 378.887074 67.398722 379.561222 64.172443 379.175994 63.787216 C 375.227415 59.74233 342.450994 58.699006 332.001705 62.278409 M 421.502841 93.481818 C 404.761506 98.008239 403.926847 98.810795 407.425994 107.157386 L 408.886648 110.688636 L 416.109659 108.264915 C 433.509091 102.422301 444.006534 106.595597 444.006534 119.324148 L 444.006534 122.710938 L 433.252273 123.802415 C 408.565625 126.322443 396.447017 136.16179 398.341051 152.180824 C 400.796875 172.983097 422.000426 179.708523 439.752983 165.310653 C 444.263352 161.650994 444.64858 161.811506 445.210369 167.493608 L 445.49929 170.49517 L 461.999858 171.073011 L 461.999858 142.084659 C 461.999858 109.436648 461.32571 105.52017 454.520028 98.714489 C 448.308239 92.502699 433.685653 90.191335 421.502841 93.481818 M 586.492472 93.401563 C 575.433239 96.916761 567.038494 104.492898 561.677415 115.776847 C 556.878125 125.937216 556.862074 145.391193 561.661364 154.492188 C 571.91804 173.946165 591.564631 178.504688 615.256108 166.931818 C 620.681392 164.26733 620.681392 164.26733 617.96875 158.954403 C 615.785795 154.652699 616.219176 154.732955 607.005824 157.092472 C 584.742898 162.790625 568.932528 141.972301 579.54233 120.929261 C 584.775 110.560227 593.009233 106.35483 606.123011 107.333949 L 613.747301 107.91179 L 615.914205 102.293892 C 618.434233 95.696875 618.434233 95.696875 609.943182 93.610227 C 602.206534 91.716193 592.110369 91.619886 586.492472 93.401563 M 691.996591 93.578125 C 687.791193 94.685653 676.812216 98.553977 675.287358 99.468892 C 675.175 99.533097 676.009659 102.101278 677.133239 105.167045 L 679.187784 110.73679 L 686.346591 108.297017 C 703.248438 102.518608 712.927273 105.921449 714.612642 118.216619 L 715.222585 122.614631 L 703.601562 123.818466 C 679.364347 126.338494 668.995313 134.04304 668.995313 149.500284 C 668.995313 171.939773 693.778267 180.992614 710.728267 164.732813 C 714.468182 161.153409 714.965767 161.362074 715.72017 166.915767 L 716.265909 170.992756 L 733.151705 170.992756 L 732.830682 141.25 C 732.493608 111.539347 732.493608 111.491193 729.877273 105.889347 C 724.179119 93.770739 709.444176 88.9875 691.996591 93.578125 M 521.999006 132.502131 L 521.999006 170.992756 L 541.003551 170.992756 L 541.003551 93.995455 L 521.999006 93.995455 L 521.999006 132.502131 M 635.994176 132.502131 L 635.994176 170.992756 L 654.998722 170.992756 L 654.998722 93.995455 L 635.994176 93.995455 L 635.994176 132.502131 M 430.266761 136.049432 C 420.202699 138.039773 415.997301 141.779688 415.997301 148.761932 C 415.997301 159.371733 428.613494 162.132528 439.84929 153.994602 L 444.006534 150.99304 L 444.006534 135.006108 L 439.255398 135.102415 C 436.639063 135.166619 432.594176 135.6 430.266761 136.049432 M 701.001278 135.953125 C 687.871449 138.665767 682.189347 147.31733 688.561648 154.893466 C 693.232528 160.447159 700.969176 160.094034 710.294886 153.930398 L 714.997869 150.816477 L 714.997869 135.006108 L 709.749148 135.118466 C 706.859943 135.18267 702.927415 135.551847 701.001278 135.953125 " transform="matrix(0.243363, 0, 0, 0.243363, 0, 0)"/>
<path fill-rule="evenodd" fill="rgb(0%, 0%, 0%)" fill-opacity="1" stroke-width="1" stroke-linecap="butt" stroke-linejoin="miter" stroke="rgb(0%, 0%, 0%)" stroke-opacity="1" stroke-miterlimit="4" d="M 13.996591 112.00483 L 13.996591 212.003409 L 69.91875 212.003409 C 135.680256 212.003409 139.8375 211.521875 159.500142 201.730682 C 237.251847 163.015341 231.473438 48.87571 150.238636 18.442756 C 133.33679 12.118608 131.940341 12.00625 70.047159 12.00625 L 13.996591 12.00625 L 13.996591 112.00483 M 185.165909 14.670739 C 229.354688 50.224006 241.746165 111.892472 214.571591 160.992898 C 203.54446 180.912358 187.236506 196.835085 166.996023 207.476989 L 158.504972 211.939205 L 477.746023 211.971307 L 797.003125 212.003409 L 797.003125 12.00625 L 181.843324 12.00625 L 185.165909 14.670739 M 109.17983 36.30767 C 106.611648 39.052415 106.483239 41.090909 108.489631 47.077983 C 110.399716 52.711932 112.020881 67.206108 110.897301 68.425994 C 109.805824 69.613778 93.626278 67.527131 87.318182 65.39233 C 80.111222 62.936506 74.926705 66.852983 76.596023 73.498153 C 78.040625 79.276563 80.753267 79.838352 91.924858 76.644176 C 94.92642 75.777415 100.496165 74.782244 104.332386 74.397017 L 111.314631 73.706818 L 110.720739 81.106392 C 110.03054 90.014773 107.831534 96.515483 104.300284 100.207244 L 101.683949 102.935938 L 106.836364 139.725142 C 109.661364 159.949574 112.277699 179.09858 112.630824 182.276705 C 112.983949 185.45483 113.577841 188.247727 113.947017 188.472443 C 114.508807 188.809517 121.635511 140.110369 125.166761 111.796165 C 126.242188 103.160653 126.226136 103.064347 123.657955 99.99858 C 120.560085 96.322869 118.280824 89.164062 117.365909 80.255682 L 116.707813 73.771023 L 123.914773 74.493324 C 127.879403 74.894602 133.465199 75.889773 136.322301 76.708381 C 146.033239 79.51733 147.477841 79.485227 149.933665 76.355256 C 153.753835 71.491761 149.933665 62.984659 144.540483 64.365057 C 143.416903 64.653977 140.094318 65.568892 137.15696 66.419602 C 134.219602 67.254261 128.409091 68.233381 124.251847 68.618608 L 116.67571 69.308807 L 117.301705 61.235085 C 117.638778 56.78892 118.842614 50.43267 119.966193 47.110085 C 122.518324 39.533949 122.518324 39.421591 119.548864 36.452131 C 116.402841 33.306108 112.052983 33.241903 109.17983 36.30767 M 482.705824 51.636506 C 482.320597 52.021733 481.999574 79.260511 481.999574 112.165341 L 481.999574 172.003977 L 502.015341 172.003977 L 501.501705 51.492045 L 492.448864 51.219176 C 487.473011 51.058665 483.091051 51.251278 482.705824 51.636506 M 527.215625 55.50483 C 520.730966 58.313778 519.462926 68.474148 524.952415 73.45 C 528.435511 76.596023 535.080682 76.644176 538.756392 73.546307 C 548.724148 65.151562 539.205824 50.28821 527.215625 55.50483 M 641.499716 54.894886 C 634.597727 57.880398 632.896307 67.09375 638.273438 72.470881 C 645.624858 79.822301 655.993892 75.135369 655.993892 64.461364 C 655.993892 57.751989 647.647301 52.246449 641.499716 54.894886 M 335.115625 60.576989 C 315.420881 65.873864 299.59446 81.78054 294.907528 100.99375 C 292.981392 108.874858 293.254261 127.092898 295.421165 134.444318 C 305.870455 169.981534 339.754403 182.870597 381.262642 167.09233 L 384.007386 166.049006 L 384.007386 112.00483 L 344.007955 112.00483 L 344.007955 128.922727 L 363.494034 129.500568 L 363.782955 141.699432 L 364.055824 153.898295 L 360.47642 154.572443 C 342.53125 157.943182 326.929545 150.511506 319.658381 135.150568 C 315.148011 125.648295 314.939347 107.687074 319.225 98.955256 C 328.245739 80.608807 344.345028 74.332813 371.503551 78.554261 L 375.500284 79.180256 L 378.196875 71.604119 C 381.375 62.663636 381.712074 63.097017 369.641619 60.609091 C 359.946733 58.61875 342.450994 58.602699 335.115625 60.576989 M 421.599148 92.534801 C 411.117756 95.167188 403.782386 98.987358 404.408381 101.475284 C 406.061648 108.05625 408.100142 111.202273 410.299148 110.560227 C 418.324716 108.216761 427.634375 106.001705 429.416051 106.001705 C 437.778693 106.033807 442.995313 110.913352 442.995313 118.746307 L 442.995313 122.999858 L 437.746591 123.015909 C 410.604119 123.048011 394.167756 136.049432 397.987926 154.460085 C 401.888352 173.223864 421.133665 179.3875 438.244176 167.349148 C 444.102841 163.224006 443.685511 163.191903 444.504119 168.039347 L 445.194318 172.068182 L 453.845881 171.795313 L 462.497443 171.506392 L 462.497443 142.004403 C 462.497443 109.211932 461.951705 105.664631 455.932528 99.244176 C 448.918182 91.764347 435.274716 89.099858 421.599148 92.534801 M 586.492472 92.406392 C 551.966477 103.321165 545.995455 157.252983 577.776705 171.169318 C 587.824716 175.56733 600.970597 174.44375 614.742472 168.023295 C 621.756818 164.748864 621.821023 164.636506 618.899716 159.018608 C 616.171023 153.801989 616.508097 153.914347 608.980114 155.66392 C 589.42983 160.222443 577.503835 152.196875 577.503835 134.492472 C 577.503835 116.836222 587.198722 107.526563 604.887074 108.152557 L 614.485653 108.505682 L 616.764915 102.101278 C 619.461506 94.541193 619.926989 95.279545 610.890199 92.903977 C 602.655966 90.737074 592.39929 90.528409 586.492472 92.406392 M 690.00625 93.385511 C 679.396449 96.595739 674.998438 98.666335 674.998438 100.43196 C 674.998438 101.619744 677.662926 109.484801 678.481534 110.73679 C 678.56179 110.865199 683.248722 109.805824 688.898722 108.377273 C 705.046165 104.316335 711.75554 106.64375 713.489063 116.932528 C 714.403977 122.341761 713.745881 122.999858 707.534091 122.999858 C 682.430114 122.999858 666.716051 134.396165 668.240909 151.490625 C 670.167045 173.143608 693.232528 181.024716 710.439347 165.920597 L 713.922443 162.85483 L 714.420028 165.182244 C 714.692898 166.450284 715.062074 168.392472 715.222585 169.5 C 715.495455 171.297727 716.410369 171.522443 724.259375 171.795313 L 733.007244 172.084233 L 733.007244 142.726705 C 733.007244 108.457528 732.493608 105.439915 725.623722 98.570028 C 717.822869 90.769176 704.853551 88.875142 690.00625 93.385511 M 521.999006 132.502131 L 521.999006 172.003977 L 541.998722 172.003977 L 541.998722 93.000284 L 521.999006 93.000284 L 521.999006 132.502131 M 635.464489 94.22017 C 635.191619 94.92642 635.095313 112.598722 635.239773 133.497301 L 635.496591 171.506392 L 645.769318 171.779261 L 656.025994 172.068182 L 655.769176 132.791051 L 655.496307 93.497869 L 645.737216 93.208949 C 638.466051 93.000284 635.833665 93.257102 635.464489 94.22017 M 434.006676 135.985227 C 421.133665 137.702699 414.472443 143.818182 417.024574 151.55483 C 419.400142 158.793892 428.565341 160.02983 437.746591 154.363778 L 442.497727 151.42642 L 442.786648 143.208239 C 443.123722 133.978835 443.958381 134.669034 434.006676 135.985227 M 704.500426 135.985227 C 689.107386 138.376847 682.2375 147.381534 689.925994 155.070028 C 693.665909 158.809943 699.091193 159.002557 705.784517 155.615767 C 713.248295 151.827699 714.147159 150.350994 713.794034 142.37358 C 713.45696 134.588778 713.473011 134.60483 704.500426 135.985227 " transform="matrix(0.243363, 0, 0, 0.243363, 0, 0)"/>
<path fill-rule="evenodd" fill="rgb(0%, 0%, 0%)" fill-opacity="1" stroke-width="1" stroke-linecap="butt" stroke-linejoin="miter" stroke="rgb(0%, 0%, 0%)" stroke-opacity="1" stroke-miterlimit="4" d="M 15.007813 111.940625 L 15.007813 212.003409 L 66.756676 212.003409 C 123.128267 211.987358 131.667472 211.441619 145.230682 206.947301 C 187.236506 193.014915 214.330824 155.808381 214.330824 112.00483 C 214.330824 65.055256 183.641051 26.805398 136.001278 14.333665 C 130.335227 12.85696 122.133097 12.584091 72.246165 12.263068 L 15.007813 11.893892 L 15.007813 111.940625 M 108.505682 35.986648 C 106.322727 38.410369 106.258523 41.781108 108.280966 49.004119 C 109.131676 52.021733 110.126847 57.543324 110.496023 61.251136 L 111.154119 67.992614 L 106.322727 67.976562 C 103.67429 67.976562 98.345313 67.270313 94.49304 66.435653 C 81.250852 63.530398 81.138494 63.530398 78.457955 66.034375 C 73.658665 70.544744 76.403409 79.324716 82.567045 79.228409 C 84.18821 79.196307 88.650426 78.265341 92.502699 77.141761 C 96.354972 76.034233 102.085227 75.087216 105.263352 75.055114 L 111.02571 75.00696 L 110.431818 79.24446 C 108.489631 93.337358 107.189489 97.31804 103.481676 100.496165 L 101.154261 102.502557 L 104.043466 122.999858 C 107.751278 149.452131 113 189.13054 113 190.815909 C 113 193.849574 114.926136 190.607244 115.423722 186.722869 C 115.728693 184.395455 117.991903 168.328267 120.447727 150.99304 C 122.903551 133.673864 125.407528 115.760795 126.00142 111.202273 L 127.108949 102.887784 L 124.091335 99.452841 C 122.438068 97.574858 120.576136 94.155966 119.966193 91.876705 C 118.906818 87.960227 117.012784 77.54304 117.012784 75.600852 C 116.996733 74.092045 133.112074 75.761364 139.291761 77.912216 C 147.782813 80.865625 152.004261 78.586364 152.004261 71.058381 C 152.004261 64.011932 148.697727 63.129119 134.492472 66.371449 C 130.65625 67.23821 125.086506 67.976562 122.133097 67.976562 L 116.772017 67.992614 L 117.478267 61.347443 C 117.863494 57.687784 118.858665 52.40696 119.661222 49.598011 C 122.405966 40.11179 122.422017 39.084517 119.950142 36.43608 C 117.012784 33.322159 111.138068 33.081392 108.505682 35.986648 " transform="matrix(0.243363, 0, 0, 0.243363, 0, 0)"/>
</svg>
