<?xml version="1.0" encoding="UTF-8"?>
<svg xmlns="http://www.w3.org/2000/svg" xmlns:xlink="http://www.w3.org/1999/xlink" width="280.300249" height="55" viewBox="0 0 280.300249 55">
<path fill-rule="nonzero" fill="rgb(0%, 0%, 0%)" fill-opacity="1" d="M 22.386719 49.957031 C 8.542969 49.957031 0 38.328125 0 25.710938 C 0 12.398438 7.632812 1.761719 22.230469 1.761719 C 32.988281 1.761719 41.253906 8.1875 42.007812 17.1875 L 32.453125 17.1875 C 31.980469 12.972656 27.449219 9.550781 22.289062 9.550781 C 14.753906 9.550781 9.691406 15.484375 9.691406 26.144531 C 9.691406 33.582031 13.429688 41.96875 22.191406 41.96875 C 30.359375 41.96875 33.1875 38.011719 33.1875 31.644531 L 23.179688 31.644531 L 23.179688 24.148438 L 41.988281 24.148438 L 41.988281 31.644531 C 42.027344 42.480469 37.457031 49.957031 22.386719 49.957031 Z M 22.386719 49.957031 "/>
<path fill-rule="nonzero" fill="rgb(0%, 0%, 0%)" fill-opacity="1" d="M 47.464844 48.433594 L 47.464844 2.75 L 56.324219 2.75 L 56.324219 48.433594 Z M 47.464844 48.433594 "/>
<path fill-rule="nonzero" fill="rgb(0%, 0%, 0%)" fill-opacity="1" d="M 60.476562 29.09375 C 61.449219 21.332031 67.539062 15.210938 75.292969 14.199219 C 87.15625 13.132812 94.574219 20.25 94.574219 31.683594 C 94.574219 42.285156 87.988281 49.285156 77.546875 49.285156 C 65.859375 49.324219 59.332031 40.898438 60.476562 29.09375 Z M 85.65625 31.742188 C 85.65625 24.9375 82.925781 21.617188 77.546875 21.617188 C 72.167969 21.617188 69.4375 24.9375 69.4375 31.742188 C 69.4375 38.546875 72.1875 41.945312 77.546875 41.945312 C 82.90625 41.945312 85.65625 38.546875 85.65625 31.742188 Z M 85.65625 31.742188 "/>
<path fill-rule="nonzero" fill="rgb(0%, 0%, 0%)" fill-opacity="1" d="M 98.886719 48.433594 L 98.886719 2.75 L 107.566406 2.75 L 107.566406 19.363281 C 109.75 16.042969 113.484375 14.070312 117.457031 14.140625 C 126.097656 14.140625 131.199219 21.300781 131.160156 31.425781 C 131.160156 42.699219 125.089844 49.382812 116.664062 49.382812 C 112.882812 49.597656 109.292969 47.691406 107.351562 44.4375 L 107.351562 48.492188 L 98.886719 48.492188 Z M 122.28125 32 C 122.28125 25.15625 119.847656 21.675781 114.6875 21.675781 C 109.523438 21.675781 107.269531 25.253906 107.269531 32.59375 C 107.269531 38.230469 110.535156 42.183594 114.746094 42.183594 C 118.960938 42.183594 122.28125 37.953125 122.28125 32 Z M 122.28125 32 "/>
<path fill-rule="nonzero" fill="rgb(0%, 0%, 0%)" fill-opacity="1" d="M 157.308594 48.492188 C 157.027344 47.511719 156.855469 46.503906 156.792969 45.488281 C 154.125 48.171875 150.449219 49.609375 146.667969 49.441406 C 139.03125 49.441406 135.511719 45.703125 135.511719 40.265625 C 135.511719 30.632812 141.980469 29.527344 150.878906 28.398438 C 155.308594 27.765625 156.535156 26.917969 156.535156 24.601562 C 156.535156 22.289062 154.359375 21.121094 150.878906 21.121094 C 146.921875 21.121094 145.242188 23.097656 144.828125 26.085938 L 136.5625 26.085938 C 136.71875 19.125 140.515625 14.339844 151.253906 14.339844 C 161.992188 14.339844 165.535156 19.066406 165.535156 27.511719 L 165.535156 48.492188 Z M 156.734375 32.097656 C 155.84375 33.007812 154.320312 33.484375 151.039062 34.074219 C 146.035156 35.023438 144.410156 36.449219 144.410156 39.296875 C 144.410156 41.808594 145.875 43.035156 148.664062 43.035156 C 152.839844 43.160156 156.351562 39.929688 156.574219 35.757812 Z M 156.734375 32.097656 "/>
<path fill-rule="nonzero" fill="rgb(0%, 0%, 0%)" fill-opacity="1" d="M 193.042969 48.492188 L 193.042969 28.203125 C 193.042969 23.039062 191.5625 21.617188 187.347656 21.617188 C 182.699219 21.617188 180.484375 24.207031 180.484375 29.308594 L 180.484375 48.492188 L 171.644531 48.492188 L 171.644531 15.03125 L 180.070312 15.03125 L 180.070312 19.933594 C 182.199219 16.03125 186.4375 13.753906 190.867188 14.140625 C 193.605469 13.9375 196.3125 14.835938 198.390625 16.628906 C 200.46875 18.425781 201.746094 20.972656 201.945312 23.710938 C 201.984375 24.246094 201.984375 24.78125 201.945312 25.316406 L 201.945312 48.492188 Z M 193.042969 48.492188 "/>
<path fill-rule="nonzero" fill="rgb(0%, 0%, 0%)" fill-opacity="1" d="M 227.4375 35.953125 C 227.21875 39.632812 225.597656 41.691406 222.273438 41.691406 C 218.953125 41.691406 217.152344 39.21875 217.152344 35.003906 L 217.152344 21.300781 L 230.859375 21.300781 L 230.859375 14.199219 L 217.210938 14.199219 L 217.210938 6.03125 L 208.46875 6.03125 L 208.46875 35.953125 C 208.46875 43.171875 212.425781 49.441406 222.117188 49.441406 C 231.550781 49.441406 235.644531 43.113281 235.644531 36.054688 Z M 227.4375 35.953125 "/>
<path fill-rule="nonzero" fill="rgb(0%, 0%, 0%)" fill-opacity="1" d="M 246.183594 0.277344 C 245.199219 -0.285156 243.945312 0.0390625 243.355469 1.007812 C 243.078125 1.488281 243 2.054688 243.140625 2.589844 L 247.09375 8.523438 C 254.789062 20.019531 254.789062 35.019531 247.09375 46.515625 L 243.140625 52.449219 C 242.972656 52.957031 243.019531 53.511719 243.269531 53.984375 C 243.519531 54.457031 243.949219 54.808594 244.464844 54.960938 C 244.996094 55.140625 245.582031 55.058594 246.046875 54.742188 L 279.273438 29.664062 C 280.398438 28.828125 280.636719 27.238281 279.804688 26.105469 C 279.652344 25.898438 279.472656 25.714844 279.273438 25.550781 Z M 246.183594 0.277344 "/>
</svg>
