<?xml version="1.0" encoding="UTF-8"?>
<svg xmlns="http://www.w3.org/2000/svg" xmlns:xlink="http://www.w3.org/1999/xlink" width="243.362832" height="55" viewBox="0 0 243.362832 55">
<path fill-rule="nonzero" fill="rgb(0%, 0%, 0%)" fill-opacity="1" d="M 126.121094 24.636719 L 126.121094 43.734375 L 114.28125 43.734375 C 107.40625 43.734375 107.40625 41.824219 107.40625 34.183594 C 107.40625 27.691406 107.40625 24.636719 114.28125 24.636719 Z M 139.679688 55 L 139.679688 0 L 126.121094 0 L 126.121094 13.558594 L 114.28125 13.558594 C 97.476562 13.558594 93.65625 19.289062 93.65625 34.183594 C 93.65625 48.316406 96.328125 55 114.472656 55 Z M 162.214844 34.183594 C 162.214844 26.925781 162.214844 24.636719 169.089844 24.636719 L 173.292969 24.636719 L 173.292969 13.558594 L 169.089844 13.558594 C 152.285156 13.558594 148.464844 16.234375 148.464844 34.183594 L 148.464844 55 L 162.214844 55 Z M 213.394531 24.636719 L 213.394531 43.734375 L 201.554688 43.734375 C 194.679688 43.734375 194.679688 41.824219 194.679688 34.183594 C 194.679688 27.691406 194.679688 24.636719 201.554688 24.636719 Z M 226.953125 55 L 226.953125 13.558594 L 201.554688 13.558594 C 184.75 13.558594 180.929688 19.289062 180.929688 34.183594 C 180.929688 48.316406 183.605469 55 201.746094 55 Z M 40.28125 13.558594 L 40.375 55 L 53.933594 55 L 53.933594 24.636719 L 64.246094 24.636719 C 71.121094 24.636719 71.121094 26.925781 71.121094 34.183594 L 71.121094 55 L 84.871094 55 L 84.871094 34.183594 C 84.871094 16.234375 81.050781 13.558594 64.246094 13.558594 Z M 30.0625 13.558594 L 16.40625 13.558594 L 16.40625 55 L 30.0625 55 Z M 30.0625 13.558594 "/>
</svg>
