<?xml version="1.0" encoding="UTF-8"?>
<svg xmlns="http://www.w3.org/2000/svg" xmlns:xlink="http://www.w3.org/1999/xlink" width="60.760053" height="55" viewBox="0 0 60.760053 55">
<path fill-rule="nonzero" fill="rgb(0%, 0%, 0%)" fill-opacity="1" d="M 15.949219 43.652344 L 16.515625 43.652344 L 16.515625 54.984375 L 14.371094 54.984375 L 14.371094 45.027344 C 14.371094 44.703125 15.058594 43.652344 15.949219 43.652344 Z M 27.6875 46.160156 C 26.636719 46.160156 25.824219 46.605469 25.257812 47.496094 L 25.257812 43.652344 L 25.015625 43.652344 C 23.964844 43.652344 23.398438 44.21875 23.113281 44.703125 L 23.113281 44.621094 L 23.113281 51.140625 C 23.113281 53.691406 24.449219 54.984375 27.121094 54.984375 C 29.792969 54.945312 31.089844 53.488281 31.089844 50.65625 C 31.089844 47.699219 29.953125 46.242188 27.6875 46.160156 Z M 27.039062 53.125 C 25.824219 53.125 25.21875 52.234375 25.257812 50.53125 C 25.339844 48.875 25.90625 48.0625 27.082031 48.0625 C 28.253906 48.0625 28.820312 48.875 28.902344 50.53125 C 28.902344 52.273438 28.253906 53.125 27.039062 53.125 Z M 32.34375 50.53125 C 32.425781 47.78125 33.761719 46.242188 36.632812 46.242188 L 37.28125 46.242188 L 37.28125 48.46875 L 36.269531 48.46875 C 35.054688 48.46875 34.527344 49.238281 34.527344 50.492188 L 34.527344 54.945312 L 32.34375 54.945312 Z M 40.683594 52.757812 C 41.046875 53.082031 41.53125 53.246094 42.179688 53.246094 C 42.625 53.246094 43.03125 53.125 43.355469 52.878906 C 43.675781 52.636719 43.878906 52.394531 43.960938 52.152344 L 45.984375 52.152344 C 45.660156 53.164062 45.175781 53.851562 44.488281 54.296875 C 43.800781 54.742188 43.03125 54.945312 42.058594 54.945312 C 41.410156 54.945312 40.804688 54.824219 40.277344 54.621094 C 39.75 54.417969 39.304688 54.09375 38.941406 53.730469 C 38.578125 53.324219 38.292969 52.878906 38.089844 52.355469 C 37.890625 51.828125 37.808594 51.222656 37.808594 50.574219 C 37.808594 49.964844 37.929688 49.359375 38.132812 48.832031 C 38.335938 48.304688 38.617188 47.820312 38.980469 47.457031 C 39.347656 47.050781 39.792969 46.769531 40.316406 46.527344 C 40.84375 46.28125 41.410156 46.203125 42.058594 46.203125 C 42.746094 46.203125 43.394531 46.324219 43.921875 46.605469 C 44.445312 46.890625 44.890625 47.253906 45.214844 47.699219 C 45.539062 48.144531 45.78125 48.671875 45.945312 49.277344 C 46.105469 49.84375 46.148438 50.492188 46.105469 51.140625 L 40.074219 51.140625 C 40.15625 51.910156 40.359375 52.433594 40.683594 52.757812 Z M 43.273438 48.386719 C 42.988281 48.105469 42.585938 47.941406 42.019531 47.941406 C 41.652344 47.941406 41.328125 48.023438 41.085938 48.144531 C 40.84375 48.265625 40.640625 48.429688 40.519531 48.589844 C 40.359375 48.792969 40.277344 48.953125 40.195312 49.15625 C 40.117188 49.359375 40.117188 49.5625 40.074219 49.722656 L 43.800781 49.722656 C 43.757812 49.117188 43.554688 48.671875 43.273438 48.386719 Z M 18.824219 43.652344 L 20.96875 43.652344 L 20.96875 45.59375 L 18.824219 45.59375 Z M 18.824219 46.566406 L 20.96875 46.566406 L 20.96875 54.945312 L 18.824219 54.945312 Z M 57.96875 39.15625 C 57.601562 39.5625 57.117188 39.804688 56.507812 39.804688 C 55.902344 39.804688 55.417969 39.5625 55.050781 39.15625 C 54.6875 38.753906 54.566406 38.066406 54.566406 37.253906 C 54.566406 36.40625 54.730469 35.796875 55.050781 35.394531 C 55.417969 34.988281 55.902344 34.746094 56.507812 34.746094 C 57.117188 34.746094 57.601562 34.988281 57.96875 35.394531 C 58.332031 35.796875 58.453125 36.488281 58.453125 37.253906 C 58.453125 38.023438 58.332031 38.671875 57.96875 39.15625 Z M 59.667969 34.136719 C 59.019531 33.289062 57.925781 32.804688 56.507812 32.804688 C 55.132812 32.804688 54 33.207031 53.351562 34.136719 C 52.703125 34.988281 52.300781 36.042969 52.300781 37.214844 C 52.300781 38.429688 52.664062 39.480469 53.351562 40.292969 C 54 41.140625 55.09375 41.585938 56.507812 41.585938 C 57.886719 41.585938 59.019531 41.183594 59.667969 40.292969 C 60.316406 39.441406 60.71875 38.390625 60.71875 37.214844 C 60.761719 36.082031 60.394531 35.027344 59.667969 34.136719 M 49.140625 39.15625 C 48.859375 39.5625 48.375 39.804688 47.765625 39.804688 C 47.160156 39.804688 46.671875 39.5625 46.429688 39.15625 C 46.148438 38.671875 46.027344 38.066406 46.027344 37.253906 C 46.027344 36.527344 46.148438 35.960938 46.429688 35.515625 C 46.714844 35.027344 47.160156 34.785156 47.804688 34.785156 C 48.210938 34.785156 48.574219 34.90625 48.898438 35.152344 C 49.386719 35.554688 49.667969 36.363281 49.667969 37.417969 C 49.546875 38.144531 49.464844 38.753906 49.140625 39.15625 Z M 51.652344 30.332031 C 51.652344 30.332031 49.464844 30.089844 49.464844 31.832031 L 49.464844 34.136719 C 49.222656 33.773438 48.941406 33.492188 48.496094 33.207031 C 48.128906 32.964844 47.644531 32.925781 47.160156 32.925781 C 46.066406 32.925781 45.214844 33.328125 44.527344 34.136719 C 43.878906 34.90625 43.554688 36.082031 43.554688 37.539062 C 43.554688 38.753906 43.839844 39.804688 44.527344 40.492188 C 45.175781 41.261719 46.472656 41.585938 47.605469 41.585938 C 51.613281 41.585938 51.53125 38.1875 51.53125 38.1875 Z M 40.882812 38.144531 C 40.882812 38.875 40.640625 39.359375 40.277344 39.644531 C 39.871094 39.886719 39.425781 40.046875 38.980469 40.046875 C 38.699219 40.046875 38.457031 40.007812 38.253906 39.804688 C 38.050781 39.601562 37.96875 39.402344 37.96875 39.035156 C 37.96875 38.632812 38.132812 38.308594 38.457031 38.105469 C 38.617188 37.984375 38.980469 37.863281 39.425781 37.824219 L 39.914062 37.699219 C 40.15625 37.660156 40.316406 37.578125 40.519531 37.578125 C 40.640625 37.539062 40.804688 37.457031 40.925781 37.417969 Z M 41.976562 33.410156 C 41.25 33.046875 40.480469 32.882812 39.546875 32.882812 C 38.171875 32.882812 37.160156 33.25 36.59375 33.976562 C 36.230469 34.460938 36.066406 35.027344 35.988281 35.71875 L 38.050781 35.71875 C 38.089844 35.433594 38.210938 35.191406 38.335938 34.988281 C 38.578125 34.746094 38.941406 34.625 39.425781 34.625 C 39.914062 34.625 40.195312 34.664062 40.480469 34.785156 C 40.722656 34.90625 40.84375 35.152344 40.84375 35.515625 C 40.84375 35.796875 40.683594 36 40.359375 36.121094 C 40.195312 36.164062 39.871094 36.242188 39.507812 36.285156 L 38.78125 36.324219 C 37.929688 36.445312 37.324219 36.609375 36.878906 36.851562 C 36.109375 37.253906 35.703125 38.066406 35.703125 39.035156 C 35.703125 39.804688 35.945312 40.414062 36.433594 40.859375 C 36.917969 41.261719 37.523438 41.464844 38.292969 41.507812 C 43.03125 41.667969 42.988281 38.996094 42.988281 38.46875 L 42.988281 35.394531 C 43.03125 34.503906 42.707031 33.773438 41.976562 33.410156 M 31.25 34.746094 C 31.777344 34.746094 32.179688 34.90625 32.464844 35.230469 C 32.625 35.472656 32.75 35.757812 32.75 36.082031 L 35.054688 36.082031 C 34.933594 34.90625 34.527344 34.058594 33.839844 33.652344 C 33.195312 33.167969 32.261719 33.003906 31.167969 33.003906 C 29.875 33.003906 28.863281 33.371094 28.132812 34.179688 C 27.40625 34.988281 27.039062 36.082031 27.039062 37.457031 C 27.039062 38.753906 27.324219 39.726562 28.011719 40.492188 C 28.660156 41.261719 29.710938 41.667969 31.089844 41.667969 C 32.464844 41.667969 33.515625 41.183594 34.246094 40.292969 C 34.652344 39.683594 34.894531 39.078125 34.972656 38.390625 L 32.667969 38.390625 C 32.625 38.792969 32.503906 39.15625 32.261719 39.441406 C 32.019531 39.683594 31.65625 39.847656 31.089844 39.847656 C 30.359375 39.847656 29.792969 39.480469 29.589844 38.792969 C 29.46875 38.429688 29.347656 37.945312 29.347656 37.335938 C 29.347656 36.730469 29.386719 36.164062 29.589844 35.839844 C 29.953125 35.109375 30.441406 34.746094 31.25 34.746094 M 26.433594 32.925781 C 21.617188 32.925781 21.941406 37.175781 21.941406 37.175781 L 21.941406 41.464844 L 24.125 41.464844 L 24.125 37.457031 C 24.125 36.808594 24.167969 36.285156 24.367188 36 C 24.652344 35.472656 25.21875 35.152344 26.109375 35.152344 L 26.351562 35.152344 C 26.472656 35.152344 26.59375 35.152344 26.714844 35.191406 L 26.714844 33.003906 L 26.554688 33.003906 C 26.515625 32.925781 26.515625 32.925781 26.433594 32.925781 M 15.585938 35.152344 C 15.867188 34.867188 16.3125 34.664062 16.878906 34.664062 C 17.367188 34.664062 17.8125 34.785156 18.175781 35.070312 C 18.539062 35.351562 18.703125 35.796875 18.703125 36.363281 L 14.976562 36.363281 C 15.097656 35.878906 15.261719 35.472656 15.585938 35.152344 Z M 18.5 39.15625 C 18.457031 39.28125 18.335938 39.402344 18.214844 39.441406 C 17.933594 39.683594 17.488281 39.726562 17 39.726562 C 16.515625 39.726562 16.152344 39.683594 15.828125 39.441406 C 15.300781 39.15625 14.976562 38.511719 14.976562 37.742188 L 20.96875 37.742188 C 20.96875 37.011719 20.96875 36.445312 20.929688 36.121094 C 20.804688 35.472656 20.644531 34.90625 20.28125 34.421875 C 19.917969 33.894531 19.429688 33.449219 18.902344 33.207031 C 18.378906 32.964844 17.691406 32.84375 16.960938 32.84375 C 15.746094 32.84375 14.773438 33.207031 14.046875 34.015625 C 13.316406 34.785156 12.871094 35.878906 12.871094 37.296875 C 12.871094 38.792969 13.277344 39.925781 14.167969 40.574219 C 15.019531 41.222656 15.988281 41.628906 17.082031 41.628906 C 18.417969 41.628906 19.472656 41.222656 20.160156 40.414062 C 20.5625 40.007812 20.804688 39.5625 20.886719 39.117188 Z M 11.941406 41.425781 L 9.917969 41.425781 L 9.917969 36.445312 C 9.917969 35.960938 9.796875 34.949219 8.460938 34.949219 C 7.609375 34.949219 6.960938 35.554688 6.960938 36.445312 L 6.960938 41.425781 L 4.9375 41.425781 L 4.9375 36.445312 C 4.9375 35.960938 4.816406 34.949219 3.480469 34.949219 C 2.632812 34.949219 2.023438 35.554688 2.023438 36.445312 L 2.023438 41.425781 L 0 41.425781 L 0 36.488281 C 0 34.421875 1.335938 32.84375 3.441406 32.84375 C 4.492188 32.84375 5.34375 33.25 5.949219 34.015625 C 6.558594 33.289062 7.40625 32.84375 8.460938 32.84375 C 10.644531 32.84375 11.902344 34.339844 11.902344 36.488281 Z M 49.710938 12.601562 C 49.710938 5.679688 41.085938 0.015625 30.441406 0.015625 C 19.792969 0.015625 11.171875 5.679688 11.171875 12.601562 L 11.171875 13.332031 C 11.171875 20.699219 18.703125 26.648438 30.441406 26.648438 C 42.21875 26.648438 49.710938 20.699219 49.710938 13.332031 Z M 49.710938 12.601562 "/>
<path fill-rule="nonzero" fill="rgb(100%, 100%, 100%)" fill-opacity="1" d="M 49.019531 12.601562 C 49.019531 19.121094 40.722656 24.421875 30.523438 24.421875 C 20.320312 24.421875 12.023438 19.121094 12.023438 12.601562 C 12.023438 6.085938 20.320312 0.785156 30.523438 0.785156 C 40.722656 0.785156 49.019531 6.085938 49.019531 12.601562 Z M 49.019531 12.601562 "/>
<path fill-rule="nonzero" fill="rgb(100%, 100%, 100%)" fill-opacity="1" d="M 24.367188 8.878906 C 24.367188 8.878906 24.167969 9.082031 24.289062 9.242188 C 24.570312 9.609375 25.460938 9.808594 26.394531 9.609375 C 26.917969 9.488281 27.648438 8.917969 28.296875 8.394531 C 29.023438 7.828125 29.753906 7.21875 30.480469 7.015625 C 31.25 6.773438 31.734375 6.894531 32.058594 6.976562 C 32.425781 7.097656 32.828125 7.339844 33.515625 7.828125 C 34.773438 8.757812 39.871094 13.210938 40.761719 13.980469 C 41.453125 13.65625 44.609375 12.320312 48.898438 11.347656 C 48.535156 9.082031 47.160156 6.976562 45.054688 5.277344 C 42.140625 6.492188 38.535156 7.140625 35.015625 5.4375 C 35.015625 5.4375 33.113281 4.546875 31.210938 4.589844 C 28.417969 4.667969 27.242188 5.84375 25.949219 7.140625 Z M 24.367188 8.878906 "/>
<path fill-rule="nonzero" fill="rgb(100%, 100%, 100%)" fill-opacity="1" d="M 40.5625 14.464844 C 40.519531 14.425781 34.570312 9.242188 33.234375 8.230469 C 32.464844 7.664062 32.019531 7.503906 31.574219 7.421875 C 31.332031 7.382812 31.007812 7.421875 30.765625 7.503906 C 30.15625 7.664062 29.308594 8.230469 28.578125 8.796875 C 27.808594 9.40625 27.121094 9.972656 26.472656 10.09375 C 25.625 10.296875 24.613281 10.054688 24.167969 9.730469 C 23.964844 9.609375 23.84375 9.445312 23.761719 9.285156 C 23.601562 8.878906 23.921875 8.554688 23.964844 8.515625 L 25.582031 6.734375 L 26.148438 6.167969 C 25.625 6.25 25.136719 6.371094 24.652344 6.492188 C 24.046875 6.652344 23.476562 6.816406 22.910156 6.816406 C 22.667969 6.816406 21.375 6.613281 21.128906 6.53125 C 19.632812 6.125 18.335938 5.722656 16.394531 4.832031 C 14.085938 6.570312 12.507812 8.71875 12.0625 11.105469 C 12.386719 11.1875 12.953125 11.347656 13.15625 11.390625 C 18.417969 12.5625 20.039062 13.777344 20.359375 14.019531 C 20.683594 13.65625 21.128906 13.453125 21.65625 13.453125 C 22.222656 13.453125 22.75 13.738281 23.074219 14.183594 C 23.355469 13.9375 23.800781 13.738281 24.328125 13.738281 C 24.570312 13.738281 24.8125 13.777344 25.097656 13.859375 C 25.703125 14.0625 25.988281 14.464844 26.148438 14.828125 C 26.351562 14.75 26.59375 14.667969 26.878906 14.667969 C 27.160156 14.667969 27.445312 14.75 27.769531 14.871094 C 28.742188 15.273438 28.902344 16.246094 28.820312 16.976562 L 29.023438 16.976562 C 30.199219 16.976562 31.128906 17.90625 31.128906 19.082031 C 31.128906 19.445312 31.046875 19.769531 30.886719 20.050781 C 31.210938 20.214844 31.980469 20.617188 32.707031 20.539062 C 33.273438 20.457031 33.476562 20.292969 33.558594 20.171875 C 33.597656 20.09375 33.679688 20.011719 33.597656 19.929688 L 32.101562 18.269531 C 32.101562 18.269531 31.859375 18.027344 31.9375 17.945312 C 32.019531 17.867188 32.179688 17.988281 32.304688 18.066406 C 33.070312 18.714844 33.960938 19.648438 33.960938 19.648438 C 33.960938 19.648438 34.042969 19.769531 34.367188 19.847656 C 34.652344 19.890625 35.175781 19.847656 35.542969 19.566406 C 35.621094 19.484375 35.742188 19.402344 35.785156 19.324219 C 36.148438 18.835938 35.742188 18.351562 35.742188 18.351562 L 34.003906 16.410156 C 34.003906 16.410156 33.761719 16.164062 33.839844 16.085938 C 33.921875 16.003906 34.082031 16.125 34.207031 16.207031 C 34.773438 16.652344 35.542969 17.460938 36.269531 18.191406 C 36.433594 18.3125 37.078125 18.714844 37.929688 18.148438 C 38.457031 17.785156 38.578125 17.378906 38.535156 17.054688 C 38.496094 16.652344 38.171875 16.328125 38.171875 16.328125 L 35.824219 13.9375 C 35.824219 13.9375 35.582031 13.738281 35.664062 13.617188 C 35.742188 13.535156 35.90625 13.65625 36.027344 13.738281 C 36.796875 14.382812 38.820312 16.246094 38.820312 16.246094 C 38.859375 16.246094 39.546875 16.773438 40.4375 16.207031 C 40.761719 16.003906 40.964844 15.71875 40.964844 15.355469 C 41.007812 14.828125 40.5625 14.464844 40.5625 14.464844 Z M 40.5625 14.464844 "/>
<path fill-rule="nonzero" fill="rgb(100%, 100%, 100%)" fill-opacity="1" d="M 29.105469 17.5 C 28.742188 17.5 28.335938 17.703125 28.296875 17.703125 C 28.253906 17.703125 28.296875 17.542969 28.335938 17.460938 C 28.375 17.378906 28.863281 15.921875 27.6875 15.398438 C 26.796875 14.992188 26.230469 15.4375 26.070312 15.640625 C 26.027344 15.679688 25.988281 15.679688 25.988281 15.640625 C 25.988281 15.398438 25.867188 14.667969 25.058594 14.425781 C 23.921875 14.0625 23.234375 14.871094 23.03125 15.152344 C 22.953125 14.507812 22.425781 14.019531 21.738281 14.019531 C 21.007812 14.019531 20.441406 14.585938 20.441406 15.316406 C 20.441406 16.042969 21.007812 16.609375 21.738281 16.609375 C 22.101562 16.609375 22.386719 16.488281 22.628906 16.246094 L 22.628906 16.285156 C 22.585938 16.609375 22.464844 17.785156 23.679688 18.230469 C 24.167969 18.433594 24.570312 18.269531 24.933594 18.027344 C 25.058594 17.945312 25.058594 17.988281 25.058594 18.066406 C 25.015625 18.351562 25.058594 19 25.988281 19.363281 C 26.675781 19.648438 27.082031 19.363281 27.324219 19.121094 C 27.445312 19 27.484375 19.039062 27.484375 19.203125 C 27.527344 20.050781 28.253906 20.738281 29.105469 20.738281 C 29.996094 20.738281 30.722656 20.011719 30.722656 19.121094 C 30.722656 18.230469 29.996094 17.5 29.105469 17.5 Z M 29.105469 17.5 "/>
<path fill-rule="nonzero" fill="rgb(0%, 0%, 0%)" fill-opacity="1" d="M 40.804688 13.859375 C 38.980469 12.28125 34.773438 8.597656 33.597656 7.746094 C 32.949219 7.261719 32.503906 6.976562 32.101562 6.894531 C 31.9375 6.855469 31.695312 6.773438 31.371094 6.773438 C 31.089844 6.773438 30.765625 6.816406 30.441406 6.9375 C 29.710938 7.179688 28.984375 7.746094 28.253906 8.3125 L 28.214844 8.351562 C 27.566406 8.878906 26.878906 9.40625 26.351562 9.527344 C 26.109375 9.566406 25.90625 9.609375 25.664062 9.609375 C 25.097656 9.609375 24.570312 9.445312 24.367188 9.203125 C 24.328125 9.164062 24.367188 9.082031 24.449219 9 L 26.070312 7.261719 C 27.324219 6.003906 28.496094 4.832031 31.25 4.75 L 31.371094 4.75 C 33.070312 4.75 34.773438 5.519531 34.972656 5.601562 C 36.59375 6.371094 38.210938 6.773438 39.871094 6.773438 C 41.613281 6.773438 43.394531 6.328125 45.257812 5.480469 C 45.054688 5.316406 44.8125 5.113281 44.609375 4.953125 C 42.949219 5.679688 41.410156 6.003906 39.871094 6.003906 C 38.335938 6.003906 36.796875 5.640625 35.296875 4.914062 C 35.21875 4.871094 33.355469 3.980469 31.371094 3.980469 L 31.210938 3.980469 C 28.902344 4.023438 27.605469 4.832031 26.757812 5.558594 C 25.90625 5.558594 25.179688 5.804688 24.53125 5.964844 C 23.964844 6.125 23.4375 6.25 22.953125 6.25 L 22.34375 6.25 C 21.777344 6.25 18.945312 5.558594 16.71875 4.667969 C 16.476562 4.832031 16.273438 4.992188 16.03125 5.15625 C 18.378906 6.125 21.25 6.855469 22.140625 6.9375 C 22.386719 6.9375 22.667969 6.976562 22.953125 6.976562 C 23.558594 6.976562 24.125 6.816406 24.734375 6.652344 C 25.097656 6.570312 25.460938 6.449219 25.824219 6.371094 L 25.503906 6.695312 L 23.882812 8.472656 C 23.761719 8.597656 23.476562 8.960938 23.640625 9.363281 C 23.722656 9.527344 23.882812 9.6875 24.085938 9.851562 C 24.492188 10.09375 25.179688 10.296875 25.824219 10.296875 C 26.070312 10.296875 26.3125 10.253906 26.515625 10.214844 C 27.203125 10.054688 27.929688 9.488281 28.660156 8.878906 C 29.265625 8.394531 30.117188 7.785156 30.765625 7.582031 C 30.96875 7.542969 31.167969 7.503906 31.371094 7.503906 L 31.535156 7.503906 C 31.980469 7.542969 32.382812 7.707031 33.152344 8.273438 C 34.488281 9.285156 40.4375 14.464844 40.480469 14.507812 C 40.480469 14.507812 40.84375 14.828125 40.84375 15.398438 C 40.84375 15.679688 40.640625 15.964844 40.359375 16.164062 C 40.117188 16.328125 39.832031 16.410156 39.589844 16.410156 C 39.183594 16.410156 38.902344 16.207031 38.902344 16.207031 C 38.902344 16.207031 36.835938 14.34375 36.109375 13.695312 C 35.988281 13.574219 35.863281 13.492188 35.742188 13.492188 C 35.664062 13.492188 35.621094 13.535156 35.582031 13.574219 C 35.460938 13.738281 35.582031 13.9375 35.742188 14.0625 L 38.132812 16.449219 C 38.132812 16.449219 38.414062 16.730469 38.457031 17.097656 C 38.457031 17.5 38.292969 17.824219 37.890625 18.066406 C 37.605469 18.269531 37.324219 18.351562 37.039062 18.351562 C 36.675781 18.351562 36.433594 18.191406 36.351562 18.148438 L 35.988281 17.824219 C 35.378906 17.21875 34.730469 16.570312 34.246094 16.207031 C 34.125 16.125 34.003906 16.003906 33.882812 16.003906 C 33.839844 16.003906 33.761719 16.003906 33.71875 16.085938 C 33.679688 16.125 33.636719 16.246094 33.761719 16.449219 C 33.800781 16.53125 33.882812 16.570312 33.882812 16.570312 L 35.621094 18.511719 C 35.621094 18.511719 35.988281 18.957031 35.664062 19.324219 L 35.582031 19.402344 L 35.417969 19.566406 C 35.136719 19.808594 34.730469 19.847656 34.570312 19.847656 L 34.328125 19.847656 C 34.164062 19.808594 34.042969 19.769531 33.960938 19.6875 C 33.882812 19.566406 32.992188 18.714844 32.261719 18.109375 C 32.179688 18.027344 32.058594 17.945312 31.9375 17.945312 C 31.898438 17.945312 31.816406 17.988281 31.777344 18.027344 C 31.65625 18.191406 31.859375 18.433594 31.9375 18.511719 L 33.4375 20.132812 C 33.4375 20.132812 33.4375 20.171875 33.394531 20.253906 C 33.355469 20.335938 33.152344 20.496094 32.625 20.578125 L 32.425781 20.578125 C 31.859375 20.578125 31.289062 20.292969 30.96875 20.132812 C 31.089844 19.847656 31.167969 19.527344 31.167969 19.203125 C 31.167969 17.988281 30.199219 17.015625 28.984375 17.015625 L 28.902344 17.015625 C 28.941406 16.449219 28.863281 15.398438 27.769531 14.953125 C 27.445312 14.828125 27.160156 14.75 26.839844 14.75 C 26.59375 14.75 26.394531 14.789062 26.148438 14.871094 C 25.90625 14.425781 25.542969 14.101562 25.058594 13.9375 C 24.773438 13.859375 24.53125 13.816406 24.246094 13.816406 C 23.800781 13.816406 23.398438 13.9375 23.03125 14.222656 C 22.675781 13.785156 22.140625 13.53125 21.574219 13.535156 C 21.089844 13.535156 20.605469 13.738281 20.28125 14.0625 C 19.835938 13.695312 18.011719 12.5625 13.117188 11.429688 C 12.871094 11.390625 12.347656 11.226562 12.023438 11.105469 C 11.980469 11.347656 11.941406 11.632812 11.902344 11.914062 C 11.902344 11.914062 12.792969 12.117188 12.992188 12.15625 C 17.972656 13.25 19.632812 14.425781 19.917969 14.628906 C 19.835938 14.871094 19.792969 15.113281 19.792969 15.355469 C 19.792969 16.410156 20.644531 17.21875 21.65625 17.21875 C 21.777344 17.21875 21.898438 17.21875 22.019531 17.175781 C 22.183594 17.945312 22.667969 18.511719 23.4375 18.796875 C 23.679688 18.878906 23.882812 18.917969 24.085938 18.917969 C 24.207031 18.917969 24.367188 18.917969 24.53125 18.878906 C 24.652344 19.242188 24.976562 19.6875 25.703125 19.972656 C 25.949219 20.09375 26.191406 20.132812 26.433594 20.132812 C 26.636719 20.132812 26.839844 20.09375 27 20.011719 C 27.324219 20.820312 28.132812 21.386719 29.023438 21.386719 C 29.632812 21.386719 30.199219 21.144531 30.601562 20.699219 C 30.96875 20.902344 31.695312 21.265625 32.464844 21.265625 L 32.75 21.265625 C 33.515625 21.183594 33.839844 20.859375 34.003906 20.660156 C 34.042969 20.617188 34.042969 20.578125 34.082031 20.539062 C 34.246094 20.578125 34.449219 20.617188 34.691406 20.617188 C 35.097656 20.617188 35.5 20.496094 35.90625 20.171875 C 36.308594 19.890625 36.59375 19.484375 36.59375 19.121094 C 36.714844 19.160156 36.878906 19.160156 37 19.160156 C 37.402344 19.160156 37.847656 19.039062 38.253906 18.757812 C 39.023438 18.269531 39.144531 17.582031 39.144531 17.175781 C 39.265625 17.21875 39.425781 17.21875 39.546875 17.21875 C 39.953125 17.21875 40.359375 17.097656 40.722656 16.855469 C 41.207031 16.53125 41.492188 16.085938 41.53125 15.558594 C 41.574219 15.195312 41.453125 14.828125 41.289062 14.507812 C 42.585938 13.9375 45.5 12.886719 48.980469 12.078125 C 48.980469 11.792969 48.941406 11.550781 48.859375 11.269531 C 44.691406 12.15625 41.574219 13.492188 40.804688 13.859375 Z M 29.105469 20.617188 C 28.296875 20.617188 27.648438 19.972656 27.605469 19.160156 C 27.605469 19.082031 27.605469 18.917969 27.445312 18.917969 C 27.363281 18.917969 27.324219 18.957031 27.242188 19 C 27.082031 19.160156 26.839844 19.324219 26.515625 19.324219 C 26.351562 19.324219 26.191406 19.28125 26.027344 19.203125 C 25.179688 18.835938 25.136719 18.269531 25.179688 18.027344 C 25.179688 17.945312 25.179688 17.90625 25.136719 17.867188 L 25.097656 17.824219 L 25.058594 17.824219 C 25.015625 17.824219 24.976562 17.824219 24.894531 17.90625 C 24.652344 18.066406 24.410156 18.148438 24.167969 18.148438 C 24.046875 18.148438 23.882812 18.109375 23.761719 18.066406 C 22.628906 17.621094 22.710938 16.570312 22.789062 16.246094 C 22.789062 16.164062 22.789062 16.125 22.75 16.085938 L 22.667969 16.003906 L 22.585938 16.085938 C 22.34375 16.285156 22.0625 16.410156 21.777344 16.410156 C 21.128906 16.410156 20.605469 15.882812 20.605469 15.234375 C 20.605469 14.585938 21.128906 14.0625 21.777344 14.0625 C 22.34375 14.0625 22.871094 14.507812 22.953125 15.074219 L 22.992188 15.398438 L 23.15625 15.113281 C 23.15625 15.074219 23.640625 14.34375 24.53125 14.382812 C 24.691406 14.382812 24.855469 14.425781 25.058594 14.464844 C 25.746094 14.667969 25.867188 15.316406 25.867188 15.558594 C 25.867188 15.71875 25.988281 15.71875 25.988281 15.71875 C 26.027344 15.71875 26.109375 15.679688 26.109375 15.640625 C 26.230469 15.519531 26.515625 15.273438 26.960938 15.273438 C 27.160156 15.273438 27.363281 15.316406 27.605469 15.4375 C 28.699219 15.921875 28.214844 17.300781 28.214844 17.339844 C 28.132812 17.582031 28.09375 17.664062 28.214844 17.746094 L 28.296875 17.746094 C 28.335938 17.746094 28.417969 17.746094 28.496094 17.703125 C 28.660156 17.664062 28.863281 17.582031 29.066406 17.582031 C 29.875 17.582031 30.5625 18.269531 30.5625 19.082031 C 30.601562 19.972656 29.914062 20.617188 29.105469 20.617188 Z M 29.105469 20.617188 "/>
</svg>
