<?xml version="1.0" encoding="UTF-8"?>
<svg xmlns="http://www.w3.org/2000/svg" xmlns:xlink="http://www.w3.org/1999/xlink" width="100.833333" height="55" viewBox="0 0 100.833333 55">
<defs>
<filter id="filter-remove-color" x="0%" y="0%" width="100%" height="100%">
<feColorMatrix color-interpolation-filters="sRGB" values="0 0 0 0 1 0 0 0 0 1 0 0 0 0 1 0 0 0 1 0" />
</filter>
<clipPath id="clip-0">
<rect x="0" y="0" width="101" height="55"/>
</clipPath>
<g id="source-6" clip-path="url(#clip-0)">
<path fill-rule="evenodd" fill="rgb(0%, 0%, 0%)" fill-opacity="1" d="M 41.214844 23.457031 C 40.039062 23.457031 38.863281 23.457031 37.6875 23.457031 C 37.601562 22.351562 37.023438 21.675781 35.945312 21.425781 C 35.015625 21.339844 34.308594 21.695312 33.824219 22.492188 C 33.691406 22.753906 33.617188 23.027344 33.597656 23.316406 C 33.585938 27.839844 33.582031 32.363281 33.585938 36.882812 C 30.550781 36.882812 27.519531 36.882812 24.488281 36.882812 C 24.492188 32.316406 24.488281 27.75 24.476562 23.179688 C 24.308594 22.265625 23.78125 21.691406 22.882812 21.449219 C 21.953125 21.304688 21.222656 21.625 20.695312 22.402344 C 20.503906 22.726562 20.410156 23.078125 20.40625 23.457031 C 19.230469 23.457031 18.054688 23.457031 16.878906 23.457031 C 16.917969 21.476562 17.742188 19.921875 19.351562 18.792969 C 20.855469 17.847656 22.457031 17.625 24.164062 18.128906 C 26.011719 18.773438 27.230469 20.03125 27.820312 21.898438 C 27.9375 22.308594 28.003906 22.730469 28.027344 23.15625 C 28.039062 26.554688 28.042969 29.957031 28.039062 33.355469 C 28.710938 33.355469 29.382812 33.355469 30.054688 33.355469 C 30.050781 29.910156 30.054688 26.464844 30.066406 23.019531 C 30.292969 20.9375 31.328125 19.40625 33.171875 18.425781 C 34.714844 17.71875 36.273438 17.683594 37.847656 18.308594 C 39.757812 19.207031 40.867188 20.699219 41.179688 22.789062 C 41.203125 23.011719 41.214844 23.234375 41.214844 23.457031 Z M 41.214844 23.457031 "/>
</g>
<clipPath id="clip-1">
<rect x="0" y="0" width="101" height="55"/>
</clipPath>
<g id="source-10" clip-path="url(#clip-1)">
<path fill-rule="evenodd" fill="rgb(0%, 0%, 0%)" fill-opacity="1" d="M 83.933594 23.457031 C 82.757812 23.457031 81.578125 23.457031 80.402344 23.457031 C 80.402344 21.660156 80.402344 19.863281 80.402344 18.070312 C 81.578125 18.070312 82.757812 18.070312 83.933594 18.070312 C 83.933594 19.863281 83.933594 21.660156 83.933594 23.457031 Z M 83.933594 23.457031 "/>
</g>
<mask id="mask-0">
<g filter="url(#filter-remove-color)">
<rect x="-10.083333" y="-5.5" width="121" height="66" fill="rgb(0%, 0%, 0%)" fill-opacity="0.995"/>
</g>
</mask>
<clipPath id="clip-2">
<rect x="0" y="0" width="101" height="55"/>
</clipPath>
<g id="source-14" clip-path="url(#clip-2)">
<path fill-rule="evenodd" fill="rgb(0%, 0%, 0%)" fill-opacity="1" d="M 75.453125 24.554688 C 75.453125 26.367188 75.453125 28.175781 75.453125 29.988281 C 75.371094 28.777344 74.851562 27.800781 73.894531 27.066406 C 72.835938 26.351562 71.71875 26.25 70.550781 26.765625 C 69.46875 27.351562 68.808594 28.25 68.566406 29.460938 C 68.324219 31.050781 68.832031 32.335938 70.089844 33.320312 C 71.375 34.140625 72.652344 34.125 73.917969 33.273438 C 74.855469 32.527344 75.367188 31.550781 75.453125 30.351562 C 75.453125 32.171875 75.453125 33.988281 75.453125 35.808594 C 73.574219 37.15625 71.535156 37.457031 69.335938 36.710938 C 67.203125 35.828125 65.824219 34.273438 65.199219 32.050781 C 64.667969 29.890625 65.019531 27.886719 66.253906 26.042969 C 67.6875 24.105469 69.617188 23.179688 72.039062 23.261719 C 73.304688 23.367188 74.441406 23.796875 75.453125 24.554688 Z M 75.453125 24.554688 "/>
</g>
<mask id="mask-1">
<g filter="url(#filter-remove-color)">
<rect x="-10.083333" y="-5.5" width="121" height="66" fill="rgb(0%, 0%, 0%)" fill-opacity="0.995"/>
</g>
</mask>
<clipPath id="clip-3">
<rect x="0" y="0" width="101" height="55"/>
</clipPath>
<g id="source-18" clip-path="url(#clip-3)">
<path fill-rule="evenodd" fill="rgb(0%, 0%, 0%)" fill-opacity="1" d="M 46.164062 31.019531 C 44.988281 31.019531 43.8125 31.019531 42.636719 31.019531 C 42.636719 28.488281 42.636719 25.960938 42.636719 23.433594 C 43.8125 23.433594 44.988281 23.433594 46.164062 23.433594 C 46.164062 25.960938 46.164062 28.488281 46.164062 31.019531 Z M 46.164062 31.019531 "/>
</g>
<mask id="mask-2">
<g filter="url(#filter-remove-color)">
<rect x="-10.083333" y="-5.5" width="121" height="66" fill="rgb(0%, 0%, 0%)" fill-opacity="0.995"/>
</g>
</mask>
<clipPath id="clip-4">
<rect x="0" y="0" width="101" height="55"/>
</clipPath>
<g id="source-22" clip-path="url(#clip-4)">
<path fill-rule="evenodd" fill="rgb(0%, 0%, 0%)" fill-opacity="1" d="M 54.828125 31.019531 C 53.652344 31.019531 52.476562 31.019531 51.300781 31.019531 C 51.300781 28.488281 51.300781 25.960938 51.300781 23.433594 C 52.476562 23.433594 53.652344 23.433594 54.828125 23.433594 C 54.828125 25.960938 54.828125 28.488281 54.828125 31.019531 Z M 54.828125 31.019531 "/>
</g>
<clipPath id="clip-5">
<rect x="0" y="0" width="101" height="55"/>
</clipPath>
<g id="source-26" clip-path="url(#clip-5)">
<path fill-rule="evenodd" fill="rgb(0%, 0%, 0%)" fill-opacity="1" d="M 59.777344 26.960938 C 58.601562 26.960938 57.425781 26.960938 56.25 26.960938 C 56.25 25.785156 56.25 24.609375 56.25 23.433594 C 59.144531 23.433594 62.039062 23.433594 64.933594 23.433594 C 64.933594 24.609375 64.933594 25.785156 64.933594 26.960938 C 63.214844 26.960938 61.496094 26.960938 59.777344 26.960938 Z M 59.777344 26.960938 "/>
</g>
<mask id="mask-3">
<g filter="url(#filter-remove-color)">
<rect x="-10.083333" y="-5.5" width="121" height="66" fill="rgb(0%, 0%, 0%)" fill-opacity="0.996"/>
</g>
</mask>
<clipPath id="clip-6">
<rect x="0" y="0" width="101" height="55"/>
</clipPath>
<g id="source-30" clip-path="url(#clip-6)">
<path fill-rule="evenodd" fill="rgb(0%, 0%, 0%)" fill-opacity="1" d="M 75.453125 35.808594 C 75.453125 33.988281 75.453125 32.171875 75.453125 30.351562 C 75.453125 30.230469 75.453125 30.109375 75.453125 29.988281 C 75.453125 28.175781 75.453125 26.367188 75.453125 24.554688 C 75.453125 24.179688 75.453125 23.804688 75.453125 23.433594 C 76.628906 23.433594 77.804688 23.433594 78.980469 23.433594 C 78.980469 27.917969 78.980469 32.398438 78.980469 36.882812 C 77.804688 36.882812 76.628906 36.882812 75.453125 36.882812 C 75.453125 36.523438 75.453125 36.167969 75.453125 35.808594 Z M 75.453125 35.808594 "/>
</g>
<mask id="mask-4">
<g filter="url(#filter-remove-color)">
<rect x="-10.083333" y="-5.5" width="121" height="66" fill="rgb(0%, 0%, 0%)" fill-opacity="0.996"/>
</g>
</mask>
<clipPath id="clip-7">
<rect x="0" y="0" width="101" height="55"/>
</clipPath>
<g id="source-38" clip-path="url(#clip-7)">
<path fill-rule="evenodd" fill="rgb(0%, 0%, 0%)" fill-opacity="1" d="M 42.636719 31.019531 C 43.8125 31.019531 44.988281 31.019531 46.164062 31.019531 C 46.257812 32.296875 46.914062 33.125 48.136719 33.503906 C 49.195312 33.707031 50.070312 33.398438 50.761719 32.574219 C 51.101562 32.113281 51.28125 31.59375 51.300781 31.019531 C 52.476562 31.019531 53.652344 31.019531 54.828125 31.019531 C 54.777344 33.054688 53.953125 34.695312 52.351562 35.933594 C 50.550781 37.179688 48.609375 37.441406 46.53125 36.710938 C 44.304688 35.761719 43.019531 34.085938 42.671875 31.683594 C 42.648438 31.460938 42.636719 31.238281 42.636719 31.019531 Z M 42.636719 31.019531 "/>
</g>
</defs>
<use xlink:href="#source-6"/>
<use xlink:href="#source-10"/>
<g mask="url(#mask-0)">
<use xlink:href="#source-14"/>
</g>
<g mask="url(#mask-1)">
<use xlink:href="#source-18"/>
</g>
<g mask="url(#mask-2)">
<use xlink:href="#source-22"/>
</g>
<use xlink:href="#source-26"/>
<g mask="url(#mask-3)">
<use xlink:href="#source-30"/>
</g>
<path fill-rule="evenodd" fill="rgb(0%, 0%, 0%)" fill-opacity="1" d="M 16.878906 23.457031 C 18.054688 23.457031 19.230469 23.457031 20.40625 23.457031 C 20.40625 27.929688 20.40625 32.40625 20.40625 36.882812 C 19.230469 36.882812 18.054688 36.882812 16.878906 36.882812 C 16.878906 32.40625 16.878906 27.929688 16.878906 23.457031 Z M 16.878906 23.457031 "/>
<path fill-rule="evenodd" fill="rgb(0%, 0%, 0%)" fill-opacity="1" d="M 37.6875 23.457031 C 38.863281 23.457031 40.039062 23.457031 41.214844 23.457031 C 41.214844 27.929688 41.214844 32.40625 41.214844 36.882812 C 40.039062 36.882812 38.863281 36.882812 37.6875 36.882812 C 37.6875 32.40625 37.6875 27.929688 37.6875 23.457031 Z M 37.6875 23.457031 "/>
<path fill-rule="evenodd" fill="rgb(0%, 0%, 0%)" fill-opacity="1" d="M 80.402344 23.457031 C 81.578125 23.457031 82.757812 23.457031 83.933594 23.457031 C 83.933594 27.929688 83.933594 32.40625 83.933594 36.882812 C 82.757812 36.882812 81.578125 36.882812 80.402344 36.882812 C 80.402344 32.40625 80.402344 27.929688 80.402344 23.457031 Z M 80.402344 23.457031 "/>
<path fill-rule="evenodd" fill="rgb(0%, 0%, 0%)" fill-opacity="1" d="M 56.25 26.960938 C 57.425781 26.960938 58.601562 26.960938 59.777344 26.960938 C 59.777344 30.269531 59.777344 33.578125 59.777344 36.882812 C 58.601562 36.882812 57.425781 36.882812 56.25 36.882812 C 56.25 33.578125 56.25 30.269531 56.25 26.960938 Z M 56.25 26.960938 "/>
<g mask="url(#mask-4)">
<use xlink:href="#source-38"/>
</g>
</svg>
