<?xml version="1.0" encoding="UTF-8"?>
<svg xmlns="http://www.w3.org/2000/svg" xmlns:xlink="http://www.w3.org/1999/xlink" width="136.25" height="55" viewBox="0 0 136.25 55">
<path fill-rule="nonzero" fill="rgb(0%, 0%, 0%)" fill-opacity="1" d="M 3.777344 0.390625 C 2.640625 0.605469 1.554688 1.347656 0.996094 2.292969 C 0.808594 2.609375 0.632812 3.117188 0.539062 3.613281 C 0.476562 3.941406 0.46875 4.234375 0.46875 6.316406 C 0.46875 8.429688 0.476562 8.683594 0.542969 9.035156 C 0.71875 9.980469 1.003906 10.507812 1.679688 11.144531 C 2.382812 11.808594 3.113281 12.144531 4.078125 12.257812 C 4.546875 12.3125 5.261719 12.285156 5.71875 12.195312 C 6.96875 11.957031 8.0625 11.160156 8.585938 10.097656 C 8.949219 9.375 9.015625 8.9375 9.035156 7.171875 L 9.054688 5.773438 L 4.652344 5.773438 L 4.652344 7.394531 L 5.863281 7.394531 C 6.90625 7.394531 7.078125 7.402344 7.121094 7.453125 C 7.160156 7.5 7.164062 7.632812 7.148438 8.007812 C 7.101562 8.859375 6.925781 9.355469 6.488281 9.8125 C 6.089844 10.234375 5.628906 10.46875 5.015625 10.558594 C 4.566406 10.625 4.136719 10.542969 3.652344 10.304688 C 3.097656 10.03125 2.796875 9.691406 2.582031 9.105469 C 2.402344 8.601562 2.371094 8.253906 2.351562 6.613281 C 2.320312 3.96875 2.4375 3.355469 3.089844 2.703125 C 3.675781 2.113281 4.496094 1.898438 5.324219 2.109375 C 6.164062 2.328125 6.71875 2.863281 7.019531 3.761719 L 7.109375 4.019531 L 8.058594 4.03125 L 9.011719 4.039062 L 9.011719 3.894531 C 9.011719 3.640625 8.820312 3.03125 8.605469 2.59375 C 8.0625 1.488281 7.152344 0.753906 5.960938 0.449219 C 5.546875 0.339844 4.226562 0.308594 3.777344 0.390625 Z M 3.777344 0.390625 "/>
<path fill-rule="nonzero" fill="rgb(0%, 0%, 0%)" fill-opacity="1" d="M 46.726562 0.394531 C 45.910156 0.539062 45.105469 0.972656 44.496094 1.59375 C 44.058594 2.03125 43.746094 2.582031 43.601562 3.171875 C 43.429688 3.839844 43.417969 4.03125 43.417969 6.351562 C 43.417969 8.734375 43.433594 8.925781 43.636719 9.613281 C 43.859375 10.359375 44.4375 11.09375 45.203125 11.609375 C 46.402344 12.417969 48.257812 12.523438 49.632812 11.871094 C 50.066406 11.664062 50.375 11.449219 50.753906 11.082031 C 51.464844 10.398438 51.773438 9.691406 51.886719 8.484375 C 51.9375 7.886719 51.910156 4.015625 51.847656 3.652344 C 51.691406 2.738281 51.453125 2.238281 50.902344 1.65625 C 50.253906 0.972656 49.476562 0.542969 48.609375 0.394531 C 48.207031 0.320312 47.117188 0.324219 46.726562 0.394531 Z M 48.175781 2.089844 C 48.574219 2.1875 49.066406 2.464844 49.324219 2.742188 C 49.679688 3.121094 49.855469 3.539062 49.960938 4.265625 C 50.03125 4.742188 50.03125 7.855469 49.960938 8.378906 C 49.859375 9.113281 49.679688 9.527344 49.277344 9.921875 C 48.699219 10.488281 47.8125 10.714844 47.0625 10.484375 C 46.035156 10.171875 45.539062 9.558594 45.363281 8.378906 C 45.277344 7.832031 45.289062 4.617188 45.375 4.09375 C 45.449219 3.644531 45.582031 3.261719 45.746094 3.019531 C 46.042969 2.59375 46.589844 2.214844 47.089844 2.09375 C 47.386719 2.023438 47.871094 2.023438 48.175781 2.089844 Z M 48.175781 2.089844 "/>
<path fill-rule="nonzero" fill="rgb(0%, 0%, 0%)" fill-opacity="1" d="M 11.554688 6.296875 L 11.554688 12.179688 L 13.445312 12.179688 L 13.453125 9.734375 L 13.460938 7.296875 L 15.535156 7.296875 L 16.765625 9.734375 L 18 12.179688 L 20.191406 12.179688 L 20.191406 12.089844 C 20.191406 12.042969 19.605469 10.878906 18.882812 9.507812 L 17.582031 7.011719 L 17.71875 6.964844 C 17.988281 6.882812 18.519531 6.582031 18.769531 6.375 C 19.21875 6.007812 19.589844 5.410156 19.746094 4.808594 C 19.832031 4.480469 19.867188 3.601562 19.808594 3.230469 C 19.746094 2.839844 19.574219 2.335938 19.394531 2.03125 C 19.21875 1.726562 18.675781 1.167969 18.363281 0.972656 C 17.945312 0.707031 17.421875 0.527344 16.832031 0.453125 C 16.675781 0.433594 15.425781 0.414062 14.050781 0.414062 L 11.554688 0.414062 Z M 16.605469 2.203125 C 17.191406 2.394531 17.539062 2.664062 17.742188 3.09375 C 17.917969 3.460938 17.980469 3.828125 17.921875 4.171875 C 17.800781 4.933594 17.277344 5.449219 16.476562 5.601562 C 16.082031 5.679688 13.5625 5.6875 13.488281 5.613281 C 13.453125 5.578125 13.445312 5.136719 13.445312 3.867188 C 13.445312 2.929688 13.453125 2.148438 13.46875 2.132812 C 13.484375 2.117188 14.152344 2.109375 14.945312 2.117188 C 16.207031 2.132812 16.417969 2.144531 16.605469 2.203125 Z M 16.605469 2.203125 "/>
<path fill-rule="nonzero" fill="rgb(0%, 0%, 0%)" fill-opacity="1" d="M 22.15625 4.527344 C 22.15625 8.039062 22.164062 8.703125 22.214844 9.011719 C 22.359375 9.898438 22.671875 10.496094 23.347656 11.148438 C 24.101562 11.878906 24.945312 12.21875 26.128906 12.277344 C 27.003906 12.324219 27.800781 12.175781 28.5 11.835938 C 29.546875 11.320312 30.242188 10.472656 30.570312 9.296875 C 30.652344 8.996094 30.652344 8.984375 30.664062 4.703125 L 30.679688 0.414062 L 28.792969 0.414062 L 28.777344 4.527344 C 28.765625 8.355469 28.761719 8.664062 28.695312 8.875 C 28.441406 9.722656 27.871094 10.285156 27.054688 10.503906 C 26.726562 10.589844 26.152344 10.59375 25.820312 10.503906 C 25.445312 10.40625 25.035156 10.195312 24.777344 9.953125 C 24.597656 9.785156 24.503906 9.660156 24.375 9.386719 C 24.046875 8.714844 24.070312 9.085938 24.054688 4.492188 L 24.042969 0.414062 L 22.15625 0.414062 Z M 22.15625 4.527344 "/>
<path fill-rule="nonzero" fill="rgb(0%, 0%, 0%)" fill-opacity="1" d="M 33.453125 6.292969 L 33.453125 12.179688 L 35.34375 12.179688 L 35.351562 9.890625 L 35.359375 7.605469 L 37.078125 7.582031 C 38.675781 7.566406 38.816406 7.558594 39.113281 7.480469 C 40.183594 7.199219 40.945312 6.597656 41.410156 5.671875 C 41.851562 4.789062 41.890625 3.542969 41.511719 2.527344 C 41.316406 2.011719 40.785156 1.375 40.25 1.019531 C 39.921875 0.800781 39.625 0.671875 39.121094 0.535156 L 38.753906 0.4375 L 36.105469 0.421875 L 33.453125 0.410156 Z M 38.464844 2.203125 C 38.804688 2.316406 39.1875 2.523438 39.351562 2.6875 C 39.527344 2.867188 39.746094 3.277344 39.8125 3.574219 C 39.886719 3.886719 39.871094 4.332031 39.777344 4.621094 C 39.578125 5.214844 39.203125 5.570312 38.5625 5.777344 C 38.304688 5.863281 38.222656 5.867188 36.871094 5.882812 C 35.800781 5.894531 35.441406 5.886719 35.398438 5.851562 C 35.351562 5.808594 35.34375 5.527344 35.34375 3.980469 C 35.34375 2.980469 35.351562 2.148438 35.367188 2.132812 C 35.386719 2.117188 36.039062 2.109375 36.828125 2.117188 C 38.0625 2.132812 38.28125 2.144531 38.464844 2.203125 Z M 38.464844 2.203125 "/>
<path fill-rule="nonzero" fill="rgb(0%, 0%, 0%)" fill-opacity="0.990709" d="M 104.144531 8.113281 C 104.074219 8.289062 104.144531 9.382812 104.261719 9.953125 C 104.441406 10.863281 104.9375 11.789062 105.535156 12.332031 C 106.355469 13.082031 107.210938 13.515625 114.894531 17.097656 C 121.648438 20.242188 123.800781 21.253906 125.441406 22.050781 C 126.152344 22.394531 127.121094 22.867188 127.601562 23.09375 C 128.078125 23.320312 128.941406 23.738281 129.523438 24.015625 C 130.65625 24.5625 130.808594 24.605469 130.832031 24.402344 C 130.839844 24.34375 130.816406 24.28125 130.773438 24.242188 C 130.734375 24.210938 128.648438 22.902344 126.136719 21.339844 C 115.84375 14.925781 113.121094 13.242188 109.617188 11.136719 C 108.113281 10.230469 106.347656 9.164062 105.691406 8.769531 C 104.628906 8.128906 104.488281 8.050781 104.335938 8.050781 C 104.21875 8.050781 104.160156 8.070312 104.144531 8.113281 Z M 104.144531 8.113281 "/>
<path fill-rule="nonzero" fill="rgb(0%, 0%, 0%)" fill-opacity="1" d="M 103.132812 15.480469 C 103.078125 15.710938 103.316406 16.839844 103.539062 17.402344 C 103.730469 17.878906 104.039062 18.320312 104.523438 18.792969 C 105.15625 19.421875 105.738281 19.792969 106.550781 20.097656 C 106.75 20.171875 108.984375 20.773438 111.503906 21.433594 C 122.636719 24.351562 129.492188 26.164062 132.242188 26.917969 C 133.605469 27.289062 133.78125 27.3125 133.800781 27.140625 C 133.808594 27.085938 133.789062 27.023438 133.761719 27 C 133.660156 26.917969 126.695312 24.238281 111.253906 18.351562 C 107.871094 17.058594 104.742188 15.863281 104.296875 15.691406 C 103.386719 15.339844 103.175781 15.300781 103.132812 15.480469 Z M 103.132812 15.480469 "/>
<path fill-rule="nonzero" fill="rgb(0%, 0%, 0%)" fill-opacity="1" d="M 8.894531 18.664062 C 6.125 18.785156 3.90625 19.601562 2.40625 21.046875 C 1.347656 22.0625 0.726562 23.273438 0.507812 24.734375 C 0.433594 25.246094 0.433594 26.5625 0.507812 27.105469 C 0.714844 28.535156 1.25 29.609375 2.277344 30.640625 C 3.253906 31.613281 4.464844 32.3125 6.183594 32.890625 C 6.5625 33.015625 8.15625 33.457031 9.730469 33.871094 C 11.304688 34.289062 12.699219 34.667969 12.835938 34.714844 C 13.835938 35.09375 14.460938 35.601562 14.824219 36.339844 C 15.066406 36.832031 15.152344 37.242188 15.128906 37.808594 C 15.105469 38.359375 15.039062 38.625 14.828125 39.058594 C 14.421875 39.882812 13.511719 40.457031 12.285156 40.660156 C 11.613281 40.773438 10.789062 40.796875 6.097656 40.820312 C 3.535156 40.835938 1.402344 40.851562 1.367188 40.859375 C 1.304688 40.878906 1.300781 41.019531 1.300781 43.078125 L 1.300781 45.273438 L 6.148438 45.273438 C 11.011719 45.273438 12.101562 45.25 12.960938 45.140625 C 17.179688 44.585938 19.871094 42.238281 20.269531 38.753906 C 20.328125 38.253906 20.292969 36.78125 20.214844 36.226562 C 19.980469 34.675781 19.542969 33.695312 18.652344 32.769531 C 17.839844 31.917969 16.859375 31.335938 15.410156 30.84375 C 15.101562 30.734375 13.363281 30.242188 11.542969 29.746094 C 9.71875 29.246094 8.082031 28.785156 7.898438 28.71875 C 7.207031 28.476562 6.542969 28.082031 6.25 27.746094 C 5.757812 27.1875 5.527344 26.40625 5.613281 25.621094 C 5.75 24.429688 6.378906 23.671875 7.527344 23.328125 C 8.214844 23.125 8.203125 23.125 11.941406 23.09375 C 15.675781 23.0625 15.605469 23.066406 16.375 22.859375 C 17.875 22.449219 18.808594 21.515625 19.148438 20.078125 C 19.234375 19.714844 19.304688 19.167969 19.304688 18.839844 L 19.304688 18.621094 L 14.417969 18.628906 C 11.726562 18.628906 9.246094 18.648438 8.894531 18.664062 Z M 8.894531 18.664062 "/>
<path fill-rule="nonzero" fill="rgb(0%, 0%, 0%)" fill-opacity="1" d="M 25.203125 28.722656 C 25.203125 37.464844 25.210938 38.886719 25.261719 39.269531 C 25.449219 40.722656 26.023438 41.886719 27.054688 42.921875 C 28.546875 44.421875 30.648438 45.285156 33.453125 45.546875 C 34.125 45.609375 35.800781 45.597656 36.480469 45.523438 C 40.277344 45.125 43.085938 43.535156 44.3125 41.097656 C 44.519531 40.683594 44.714844 40.113281 44.832031 39.566406 L 44.921875 39.160156 L 44.921875 30.925781 C 44.921875 23.195312 44.917969 22.664062 44.851562 22.253906 C 44.71875 21.398438 44.496094 20.722656 44.191406 20.253906 C 43.980469 19.9375 43.425781 19.398438 43.128906 19.226562 C 42.480469 18.851562 41.453125 18.621094 40.402344 18.621094 L 40.160156 18.621094 L 40.160156 28.027344 C 40.160156 38.351562 40.175781 37.746094 39.929688 38.410156 C 39.304688 40.121094 37.351562 41.109375 34.765625 41.019531 C 33.703125 40.984375 32.882812 40.804688 32.113281 40.433594 C 31.597656 40.1875 31.394531 40.050781 31.066406 39.742188 C 30.59375 39.289062 30.257812 38.671875 30.070312 37.90625 C 30.023438 37.6875 30.011719 36.765625 29.980469 30.269531 C 29.960938 25.324219 29.933594 22.726562 29.90625 22.417969 C 29.796875 21.277344 29.433594 20.425781 28.789062 19.777344 C 28.121094 19.105469 27.3125 18.773438 26.070312 18.660156 C 25.839844 18.640625 25.546875 18.621094 25.425781 18.621094 L 25.203125 18.621094 Z M 25.203125 28.722656 "/>
<path fill-rule="nonzero" fill="rgb(0%, 0%, 0%)" fill-opacity="1" d="M 59.824219 18.664062 C 57.78125 18.808594 55.9375 19.453125 54.535156 20.511719 C 54.101562 20.839844 53.386719 21.566406 53.050781 22.015625 C 52.050781 23.355469 51.480469 24.886719 51.199219 26.988281 C 51.140625 27.425781 51.132812 28.292969 51.121094 36.371094 L 51.105469 45.273438 L 55.890625 45.273438 L 55.902344 36.449219 C 55.917969 26.769531 55.898438 27.558594 56.140625 26.664062 C 56.605469 24.953125 57.808594 23.761719 59.5 23.328125 C 60.199219 23.152344 60.476562 23.128906 62.175781 23.09375 C 63.867188 23.0625 64.136719 23.039062 64.796875 22.867188 C 66.320312 22.464844 67.175781 21.484375 67.414062 19.875 C 67.433594 19.722656 67.464844 19.382812 67.480469 19.109375 L 67.507812 18.621094 L 63.886719 18.625 C 61.898438 18.628906 60.066406 18.648438 59.824219 18.664062 Z M 59.824219 18.664062 "/>
<path fill-rule="nonzero" fill="rgb(0%, 0%, 0%)" fill-opacity="1" d="M 78.886719 18.648438 C 78.082031 18.6875 76.855469 18.90625 76.074219 19.140625 C 71.402344 20.550781 68.246094 24.515625 67.5 29.925781 C 67.339844 31.082031 67.28125 32.472656 67.339844 33.644531 C 67.410156 35.035156 67.539062 35.960938 67.824219 37.117188 C 68.410156 39.503906 69.40625 41.34375 70.941406 42.863281 C 72.605469 44.511719 74.539062 45.40625 77.078125 45.707031 C 77.703125 45.777344 79.347656 45.765625 79.949219 45.683594 C 81.1875 45.511719 82.1875 45.214844 83.144531 44.738281 C 84.328125 44.140625 85.433594 43.199219 86.148438 42.171875 C 86.300781 41.957031 86.308594 41.953125 86.34375 42.039062 C 86.363281 42.085938 86.410156 42.269531 86.445312 42.4375 C 86.644531 43.355469 87.105469 44.09375 87.757812 44.542969 C 88.378906 44.972656 89.300781 45.191406 90.679688 45.25 L 91.167969 45.273438 L 91.167969 18.621094 L 85.144531 18.628906 C 81.828125 18.632812 79.015625 18.640625 78.886719 18.648438 Z M 85.992188 23.0625 C 86.054688 23.125 86.058594 34.632812 85.996094 35.199219 C 85.753906 37.445312 84.734375 39.289062 83.148438 40.34375 C 80.722656 41.957031 76.984375 41.699219 74.9375 39.769531 C 73.738281 38.644531 72.957031 36.832031 72.671875 34.511719 C 72.578125 33.71875 72.578125 31.535156 72.671875 30.730469 C 73.003906 28.058594 73.769531 26.222656 75.109375 24.886719 C 76.242188 23.757812 77.675781 23.152344 79.429688 23.058594 C 79.726562 23.039062 81.3125 23.023438 82.957031 23.023438 C 85.238281 23.015625 85.957031 23.027344 85.992188 23.0625 Z M 85.992188 23.0625 "/>
<path fill-rule="nonzero" fill="rgb(0%, 0%, 0%)" fill-opacity="1" d="M 105.265625 23.507812 C 105.207031 23.5625 105.242188 23.878906 105.332031 24.105469 C 105.796875 25.355469 106.800781 26.460938 107.957031 27.003906 C 108.289062 27.164062 108.746094 27.316406 108.980469 27.351562 C 109.074219 27.363281 113.820312 27.679688 119.523438 28.050781 C 125.230469 28.425781 131.207031 28.816406 132.800781 28.917969 C 134.402344 29.027344 135.734375 29.105469 135.765625 29.09375 C 135.796875 29.082031 135.8125 29.027344 135.804688 28.949219 C 135.792969 28.839844 135.773438 28.824219 135.65625 28.796875 C 135.578125 28.78125 132.914062 28.308594 129.738281 27.746094 C 112.367188 24.671875 105.589844 23.480469 105.449219 23.480469 C 105.363281 23.480469 105.277344 23.492188 105.265625 23.507812 Z M 105.265625 23.507812 "/>
<path fill-rule="nonzero" fill="rgb(0%, 0%, 0%)" fill-opacity="1" d="M 121.875 30.46875 C 117 30.484375 112.667969 30.511719 112.257812 30.53125 L 111.503906 30.558594 L 111.492188 30.699219 C 111.453125 31.144531 112.335938 32.289062 113.121094 32.816406 C 113.679688 33.1875 114.226562 33.378906 114.859375 33.417969 C 115.234375 33.441406 114.355469 33.558594 128.824219 31.523438 C 134.902344 30.667969 134.621094 30.707031 134.664062 30.648438 C 134.679688 30.621094 134.691406 30.5625 134.6875 30.519531 C 134.675781 30.441406 134.644531 30.441406 132.710938 30.4375 C 131.628906 30.4375 126.753906 30.449219 121.875 30.46875 Z M 121.875 30.46875 "/>
<path fill-rule="nonzero" fill="rgb(0%, 0%, 0%)" fill-opacity="1" d="M 132.804688 32.335938 C 132.328125 32.472656 129.382812 33.234375 125.828125 34.140625 C 122.9375 34.878906 120.480469 35.515625 118.046875 36.171875 C 117.488281 36.316406 117.027344 36.441406 117.019531 36.441406 C 116.96875 36.441406 116.882812 36.578125 116.882812 36.660156 C 116.882812 36.804688 117.507812 37.796875 117.769531 38.074219 C 118.101562 38.425781 118.199219 38.464844 118.773438 38.464844 C 119.179688 38.464844 119.296875 38.449219 119.523438 38.375 C 120.390625 38.074219 131.761719 33.277344 133.027344 32.671875 C 133.378906 32.507812 133.386719 32.5 133.375 32.378906 C 133.363281 32.269531 133.347656 32.253906 133.25 32.246094 C 133.1875 32.242188 132.988281 32.28125 132.804688 32.335938 Z M 132.804688 32.335938 "/>
<path fill-rule="nonzero" fill="rgb(0%, 0%, 0%)" fill-opacity="0.890196" d="M 130.28125 35.601562 C 127.875 37.070312 123.78125 39.527344 122.375 40.335938 C 120.46875 41.441406 119.8125 41.839844 119.78125 41.910156 C 119.753906 41.984375 119.910156 43.375 119.972656 43.589844 C 119.988281 43.667969 120.070312 43.804688 120.148438 43.890625 C 120.28125 44.035156 120.289062 44.039062 120.535156 44.039062 C 120.847656 44.039062 121.085938 43.929688 121.535156 43.59375 C 121.957031 43.277344 123.609375 41.90625 128.191406 38.085938 C 131.105469 35.65625 131.878906 34.992188 131.878906 34.925781 C 131.878906 34.820312 131.8125 34.742188 131.730469 34.746094 C 131.695312 34.746094 131.042969 35.132812 130.28125 35.601562 Z M 130.28125 35.601562 "/>
<path fill-rule="nonzero" fill="rgb(0%, 0%, 0%)" fill-opacity="1" d="M 127.269531 41.285156 C 127.011719 41.480469 126.292969 42.085938 123.398438 44.558594 C 122.03125 45.730469 120.757812 46.8125 120.574219 46.972656 C 120.15625 47.320312 120.066406 47.492188 119.875 48.261719 C 119.800781 48.5625 119.644531 49.089844 119.523438 49.4375 C 119.28125 50.144531 119.269531 50.261719 119.449219 50.28125 C 119.554688 50.292969 119.609375 50.25 119.933594 49.914062 C 120.722656 49.085938 124.96875 44.425781 126.75 42.425781 C 127.546875 41.527344 127.621094 41.4375 127.621094 41.308594 C 127.621094 41.109375 127.511719 41.101562 127.269531 41.285156 Z M 127.269531 41.285156 "/>
<path fill-rule="nonzero" fill="rgb(0%, 0%, 0%)" fill-opacity="1" d="M 116.691406 46.070312 C 114.859375 46.691406 111.652344 47.402344 107.648438 48.066406 C 104.617188 48.570312 103.019531 48.753906 99.898438 48.9375 C 97.503906 49.082031 97.683594 49.058594 97.683594 49.257812 C 97.683594 49.367188 97.722656 49.429688 97.925781 49.621094 C 98.53125 50.203125 99.402344 50.597656 100.480469 50.773438 C 100.992188 50.859375 102.464844 50.871094 103.15625 50.796875 C 104.746094 50.625 106.550781 50.253906 108.785156 49.632812 C 110.8125 49.074219 112.96875 48.296875 114.945312 47.421875 C 115.660156 47.101562 117.003906 46.4375 117.414062 46.199219 C 117.605469 46.089844 117.621094 46.070312 117.609375 45.957031 C 117.601562 45.855469 117.578125 45.832031 117.5 45.828125 C 117.445312 45.824219 117.082031 45.933594 116.691406 46.070312 Z M 116.691406 46.070312 "/>
<path fill-rule="nonzero" fill="rgb(0%, 0%, 0%)" fill-opacity="1" d="M 117.519531 47.648438 C 117.191406 47.878906 116.507812 48.277344 115.84375 48.632812 C 112.710938 50.308594 107.695312 51.925781 103.121094 52.742188 C 102.710938 52.816406 102.351562 52.890625 102.320312 52.914062 C 102.292969 52.9375 102.269531 53.007812 102.269531 53.066406 C 102.269531 53.207031 102.457031 53.363281 102.871094 53.566406 C 104.339844 54.296875 107.144531 54.070312 109.769531 53.007812 C 112.777344 51.789062 115.570312 50.121094 117.148438 48.609375 C 117.722656 48.058594 117.921875 47.808594 117.921875 47.640625 C 117.921875 47.523438 117.914062 47.511719 117.820312 47.515625 C 117.757812 47.515625 117.625 47.578125 117.519531 47.648438 Z M 117.519531 47.648438 "/>
<path fill-rule="nonzero" fill="rgb(0%, 0%, 0%)" fill-opacity="1" d="M 117.050781 50.5625 C 116.90625 50.726562 116.035156 51.433594 115.621094 51.722656 C 114.351562 52.617188 112.726562 53.445312 111.082031 54.035156 C 110.472656 54.253906 110.464844 54.257812 110.453125 54.378906 C 110.433594 54.546875 110.488281 54.59375 110.84375 54.710938 C 111.132812 54.808594 111.207031 54.816406 111.832031 54.816406 C 112.589844 54.820312 112.875 54.773438 113.566406 54.546875 C 114.046875 54.390625 114.816406 54.027344 115.144531 53.800781 C 115.84375 53.328125 116.378906 52.71875 116.84375 51.867188 C 117.117188 51.371094 117.382812 50.75 117.382812 50.617188 C 117.382812 50.488281 117.375 50.480469 117.257812 50.480469 C 117.171875 50.480469 117.097656 50.511719 117.050781 50.5625 Z M 117.050781 50.5625 "/>
</svg>
