<?xml version="1.0" encoding="UTF-8"?>
<svg xmlns="http://www.w3.org/2000/svg" xmlns:xlink="http://www.w3.org/1999/xlink" width="55" height="55" viewBox="0 0 55 55">
<rect x="-5.5" y="-5.5" width="66" height="66" fill="rgb(100%, 100%, 100%)" fill-opacity="1"/>
<path fill-rule="evenodd" fill="rgb(100%, 100%, 100%)" fill-opacity="1" d="M 38.195312 24.382812 C 38.375 24.917969 38.644531 25.628906 38.589844 26.691406 C 38.796875 26.429688 38.988281 26.164062 39.304688 25.746094 C 38.84375 25.25 38.664062 24.714844 38.527344 24.316406 Z M 18.894531 21.871094 C 19.203125 22.761719 19.285156 24.007812 19.09375 25.136719 C 19.632812 24.675781 20.582031 24.1875 20.582031 24.1875 L 19.902344 22.089844 C 19.554688 22.085938 19.210938 22.011719 18.894531 21.871094 Z M 36.28125 24.496094 C 35.222656 24.523438 34.316406 24.242188 33.691406 24.332031 C 34.570312 24.890625 35.527344 25.519531 36.226562 26.269531 C 36.160156 26.011719 36.195312 25.9375 36.191406 25.480469 C 36.1875 25.113281 36.21875 24.789062 36.28125 24.496094 Z M 18.421875 21.621094 C 18.257812 21.523438 18.074219 21.347656 17.992188 21.246094 C 17.828125 20.992188 17.976562 20.617188 17.621094 20.3125 C 17.386719 20.113281 17.4375 19.945312 17.410156 19.835938 C 17.414062 19.4375 17.292969 19.335938 17.292969 19.335938 C 17.785156 22.140625 16.617188 24.292969 15.988281 24.347656 C 16.160156 24.597656 16.6875 25.417969 16.6875 25.417969 C 16.851562 23.375 18.03125 21.832031 18.421875 21.621094 Z M 13.902344 38.238281 C 13.902344 38.238281 12.785156 32.25 16.109375 28.40625 C 16.109375 28.40625 15.167969 28.414062 13.835938 27.800781 C 13.835938 27.800781 11.804688 26.789062 11.570312 26.136719 C 12.410156 25.578125 14.714844 25.507812 15.800781 25.878906 L 15.164062 24.839844 C 14.214844 25.605469 10.84375 23.941406 9.898438 21.976562 C 11.464844 21.5 13.519531 22.175781 14.058594 22.535156 C 13.964844 22.28125 13.792969 21.957031 13.65625 21.570312 C 13.042969 21.902344 10.03125 20.550781 9.382812 17.679688 C 11.527344 17.660156 12.851562 18.929688 13.261719 19.28125 C 13.410156 18.105469 13.953125 16.648438 15.320312 15.585938 C 16.269531 17.648438 15.445312 20.746094 14.496094 21.273438 C 14.625 21.675781 14.691406 21.816406 14.867188 22.214844 C 14.96875 21.515625 15.328125 19.632812 16.933594 18.589844 C 16.914062 18.230469 17.199219 18.28125 16.941406 17.488281 C 16.835938 17.167969 17.5 16.402344 17.988281 16.257812 C 17.972656 16.164062 17.933594 16.15625 17.925781 16.089844 C 17.558594 16.039062 17.53125 15.941406 17.445312 15.808594 C 17.398438 15.738281 17.328125 15.703125 17.210938 15.621094 C 16.1875 14.855469 16.195312 13.976562 16.632812 12.953125 C 16.046875 12.710938 15.355469 11.417969 15.566406 10.367188 C 16.089844 8.867188 16.476562 9.007812 16.949219 7.574219 C 17.019531 7.265625 17.046875 6.660156 16.960938 6.058594 C 17.914062 6.304688 18.148438 7.316406 18.148438 7.316406 C 18.148438 7.316406 18.867188 6.734375 19.0625 5.296875 C 19.132812 4.59375 19.074219 4.1875 19.058594 3.503906 C 20.871094 5.640625 20.675781 7.53125 20.675781 7.53125 C 20.675781 7.53125 21.027344 7.289062 21.4375 6.96875 C 21.140625 8.132812 21.578125 10.332031 20.335938 11.757812 C 20.539062 11.976562 20.921875 12.191406 21.082031 12.453125 C 21.601562 13.1875 21.445312 13.636719 21.332031 14.234375 C 21.257812 14.640625 21.351562 14.800781 21.191406 15.042969 C 21.191406 15.042969 21.449219 14.925781 21.679688 14.984375 C 21.679688 14.984375 21.632812 14.609375 21.613281 14.347656 C 22.460938 14.070312 22.714844 13.796875 23.144531 13.300781 C 25.421875 14.050781 27.75 12.808594 29.753906 13.898438 C 31.796875 12.601562 33.195312 13.953125 36.363281 13.792969 C 36.628906 14.054688 37.199219 14.230469 37.460938 14.253906 C 37.847656 16.085938 38.125 17.75 38.796875 19.824219 C 40.25 20.820312 40.683594 22.527344 40.699219 23.546875 L 41.144531 22.789062 C 39.488281 20.988281 40.335938 17.714844 40.769531 16.96875 C 42.023438 17.980469 42.511719 19.84375 42.558594 20.832031 C 43.550781 19.957031 45.230469 19.445312 46.59375 19.613281 C 45.515625 22.125 43.5 23.289062 41.914062 23.152344 L 41.46875 24.015625 C 42.976562 23.460938 44.4375 23.335938 45.738281 23.859375 C 42.300781 27.464844 40.171875 26.335938 40.132812 26.269531 L 39.40625 27.207031 C 40.488281 26.984375 42.398438 26.988281 43.742188 27.894531 C 43.742188 27.894531 41.160156 29.859375 38.808594 29.683594 C 38.808594 29.683594 40.820312 32.71875 40.152344 38.066406 C 40.152344 38.066406 38.628906 48.589844 27.136719 49.21875 C 24.503906 49.359375 15.847656 47.734375 13.902344 38.238281 Z M 13.902344 38.238281 "/>
<path fill-rule="evenodd" fill="rgb(0%, 0%, 0%)" fill-opacity="1" d="M 25.195312 22.65625 C 25.363281 22.691406 25.660156 22.730469 26.15625 22.707031 C 27.175781 22.660156 28.332031 22.402344 29.335938 22.390625 C 30.265625 22.382812 31.101562 22.726562 31.09375 22.726562 C 30.933594 21.757812 30.027344 16.027344 30 15.835938 C 29.953125 15.554688 30.078125 15.238281 30.1875 15.808594 C 30.324219 16.527344 31.464844 22.753906 31.464844 22.753906 C 31.871094 22.539062 32.71875 22.300781 33.558594 22.332031 C 34.773438 22.375 35.910156 23.011719 38.15625 22.597656 C 37.117188 19.203125 36.113281 14.398438 36.113281 14.398438 C 34.042969 14.542969 33.566406 13.953125 31.597656 13.910156 C 30.332031 13.882812 29.871094 14.6875 29.871094 14.6875 C 29.871094 14.6875 28.820312 13.9375 27.421875 14.042969 C 24.609375 14.253906 24.0625 14.167969 23.527344 14.03125 C 23.820312 16.125 24.21875 20.1875 24.3125 21.140625 C 24.488281 21.535156 24.707031 21.933594 24.96875 22.332031 C 25.03125 22.433594 25.109375 22.539062 25.195312 22.65625 Z M 20.730469 15.058594 L 20.851562 15.675781 L 20.90625 15.570312 C 21.082031 15.214844 21.859375 15.1875 22.007812 15.417969 L 22.074219 15.5 C 22.027344 15.203125 21.917969 14.550781 21.917969 14.550781 C 21.917969 14.550781 22.378906 14.371094 22.617188 14.210938 C 22.917969 14.007812 23.046875 13.835938 23.21875 13.617188 C 23.75 13.761719 24.371094 13.953125 27.382812 13.714844 C 28.835938 13.601562 29.785156 14.277344 29.785156 14.277344 C 29.785156 14.277344 30.394531 13.570312 31.625 13.59375 C 33.214844 13.625 34.285156 14.21875 36.269531 14.070312 C 36.585938 14.441406 37.242188 14.464844 37.242188 14.464844 C 37.242188 14.464844 37.691406 16.9375 38.210938 18.859375 C 38.382812 19.492188 38.582031 20.175781 38.777344 20.824219 C 38.859375 20.460938 38.9375 20.25 38.9375 20.25 C 38.9375 20.25 40.121094 21.289062 40.351562 22.890625 C 40.433594 23.488281 40.4375 24.09375 40.363281 24.6875 C 40.804688 23.976562 41.21875 23.242188 41.761719 22.265625 C 41.980469 21.804688 42.105469 21.128906 41.914062 20.152344 C 41.664062 18.855469 41.003906 18.1875 41.003906 18.1875 C 41.003906 18.1875 40.683594 18.910156 40.710938 20.085938 C 40.746094 21.417969 41.375 22.460938 41.375 22.460938 C 41.375 22.460938 41.269531 22.503906 41.128906 22.332031 C 40.941406 22.070312 40.507812 21.296875 40.453125 20.019531 C 40.390625 18.609375 40.875 17.460938 40.875 17.460938 C 40.875 17.460938 41.839844 18.410156 42.164062 19.96875 C 42.367188 20.9375 42.222656 21.625 42.222656 21.625 C 42.222656 21.625 42.550781 21.070312 43.40625 20.574219 C 44.785156 19.777344 46.164062 19.847656 46.164062 19.847656 C 46.164062 19.847656 45.699219 21 44.597656 21.875 C 43.675781 22.609375 42.898438 22.839844 42.429688 22.878906 C 42.175781 22.921875 42.054688 22.78125 42.054688 22.78125 C 42.054688 22.78125 43.328125 22.5625 44.359375 21.714844 C 45.261719 20.964844 45.585938 20.234375 45.585938 20.234375 C 45.585938 20.234375 44.640625 20.160156 43.503906 20.835938 C 42.667969 21.332031 42.210938 21.996094 41.960938 22.46875 C 41.484375 23.363281 41.109375 24.128906 40.703125 24.835938 C 40.863281 24.6875 41.363281 24.269531 42.285156 24.027344 C 43.90625 23.605469 45.226562 23.96875 45.226562 23.96875 C 45.226562 23.96875 44.425781 24.964844 43.097656 25.628906 C 42.117188 26.121094 41.308594 26.265625 40.652344 26.195312 C 40.359375 26.144531 40.253906 25.96875 40.253906 25.96875 C 40.253906 25.96875 41.367188 26.097656 42.867188 25.414062 C 43.988281 24.898438 44.484375 24.207031 44.484375 24.207031 C 44.484375 24.207031 43.539062 23.921875 42.207031 24.332031 C 41.183594 24.644531 40.53125 25.226562 40.355469 25.417969 C 40.304688 25.503906 40.273438 25.554688 40.296875 25.507812 C 39.753906 26.34375 39.085938 27.1875 38.539062 27.828125 C 38.828125 27.664062 39.347656 27.453125 40.117188 27.394531 C 41.875 27.261719 43.234375 27.902344 43.234375 27.902344 C 43.234375 27.902344 42.152344 28.722656 40.660156 29.179688 C 39.453125 29.546875 38.664062 29.40625 38.269531 29.289062 C 39.402344 31.222656 40.046875 33.464844 40.046875 35.871094 C 40.046875 43.078125 34.207031 48.917969 27 48.917969 C 19.792969 48.917969 13.949219 43.074219 13.949219 35.871094 C 13.945312 33.070312 14.847656 30.339844 16.519531 28.09375 C 16.089844 28.148438 15.390625 28.136719 14.40625 27.738281 C 12.957031 27.152344 11.949219 26.242188 11.949219 26.242188 C 11.949219 26.242188 13.359375 25.722656 15.097656 26.007812 C 15.863281 26.136719 16.359375 26.390625 16.632812 26.578125 C 16.144531 25.890625 15.550781 24.996094 15.082031 24.113281 C 15.101562 24.164062 15.078125 24.113281 15.035156 24.023438 C 14.878906 23.8125 14.277344 23.175781 13.285156 22.777344 C 11.996094 22.253906 11.023438 22.453125 11.023438 22.453125 C 11.023438 22.453125 11.457031 23.1875 12.535156 23.796875 C 13.964844 24.609375 15.085938 24.578125 15.085938 24.578125 C 15.085938 24.578125 14.964844 24.742188 14.671875 24.769531 C 14.007812 24.78125 13.21875 24.566406 12.285156 23.992188 C 11.019531 23.210938 10.308594 22.152344 10.308594 22.152344 C 10.308594 22.152344 11.65625 21.90625 13.230469 22.46875 C 14.128906 22.785156 14.59375 23.246094 14.738281 23.410156 C 14.394531 22.667969 14.085938 21.875 13.691406 20.941406 C 13.484375 20.449219 13.089844 19.75 12.296875 19.179688 C 11.222656 18.410156 10.273438 18.398438 10.273438 18.398438 C 10.273438 18.398438 10.53125 19.15625 11.371094 19.980469 C 12.320312 20.917969 13.570312 21.246094 13.570312 21.246094 C 13.570312 21.246094 13.441406 21.375 13.1875 21.308594 C 12.726562 21.230469 11.96875 20.933594 11.117188 20.121094 C 10.097656 19.152344 9.734375 17.964844 9.734375 17.964844 C 9.734375 17.964844 11.113281 18.015625 12.417969 18.929688 C 13.226562 19.496094 13.503906 20.082031 13.503906 20.078125 C 13.507812 20.082031 13.417969 19.382812 13.707031 18.433594 C 14.167969 16.910156 15.210938 16.046875 15.210938 16.046875 C 15.210938 16.046875 15.59375 17.234375 15.410156 18.632812 C 15.242188 19.902344 14.742188 20.632812 14.535156 20.878906 C 14.378906 21.039062 14.273438 20.984375 14.273438 20.984375 C 14.273438 20.984375 14.992188 20 15.144531 18.675781 C 15.277344 17.507812 15.019531 16.757812 15.019531 16.757812 C 15.019531 16.757812 14.304688 17.371094 13.941406 18.640625 C 13.664062 19.59375 13.730469 20.28125 13.910156 20.753906 C 14.363281 21.777344 14.710938 22.542969 15.09375 23.292969 C 15.070312 22.691406 15.125 22.089844 15.261719 21.503906 C 15.628906 19.925781 16.898438 18.996094 16.898438 18.996094 C 16.898438 18.996094 17.226562 20.257812 17.011719 21.722656 C 16.84375 22.882812 16.429688 23.574219 16.175781 23.890625 C 16 24.113281 15.796875 24.097656 15.796875 24.097656 C 15.796875 24.097656 16.523438 23.148438 16.730469 21.757812 C 16.914062 20.535156 16.671875 19.738281 16.671875 19.738281 C 16.671875 19.738281 15.835938 20.222656 15.492188 21.675781 C 15.273438 22.589844 15.28125 23.433594 15.324219 23.742188 L 15.402344 23.890625 C 15.902344 24.820312 16.554688 25.777344 17.054688 26.472656 C 17.003906 26.21875 16.878906 25.394531 17.121094 24.449219 C 17.539062 22.828125 18.585938 21.832031 18.585938 21.832031 C 18.585938 21.832031 19.03125 23.070312 18.890625 24.546875 C 18.839844 25.085938 18.75 25.511719 18.648438 25.84375 C 19.355469 25.253906 20.125 24.738281 20.941406 24.3125 C 20.65625 23.441406 20.207031 22.058594 20.128906 21.824219 C 19.585938 21.78125 19.304688 21.773438 18.765625 21.480469 C 18.386719 21.257812 18.144531 21.054688 18.136719 20.839844 C 18.121094 20.441406 18.101562 20.402344 17.957031 20.316406 C 17.714844 20.152344 17.574219 19.957031 17.632812 19.546875 C 17.707031 19.28125 17.609375 19.253906 17.285156 18.871094 C 17.0625 18.539062 17.414062 18.105469 17.363281 17.902344 C 17.25 17.691406 17.175781 17.523438 17.253906 17.332031 C 17.289062 17.125 17.660156 16.683594 18.003906 16.554688 C 18.148438 16.503906 18.261719 16.484375 18.367188 16.445312 L 18.125 15.804688 C 17.882812 15.800781 17.71875 15.75 17.691406 15.652344 C 17.679688 15.609375 17.691406 15.5625 17.730469 15.507812 C 17.382812 15.480469 17.109375 15.222656 16.917969 14.902344 C 16.667969 14.703125 16.601562 14.378906 16.65625 14.164062 C 16.597656 13.746094 16.65625 13.351562 16.9375 13.222656 L 16.898438 13.136719 C 16.832031 12.910156 17.582031 12.484375 18.496094 12.222656 C 19.414062 11.960938 20.253906 11.890625 20.320312 12.117188 L 20.363281 12.273438 C 20.535156 12.253906 20.832031 12.484375 20.984375 12.941406 C 21.121094 13.066406 21.195312 13.449219 21.117188 13.714844 C 21.105469 14.019531 21.042969 14.328125 20.828125 14.585938 C 21.195312 14.671875 20.929688 14.929688 20.730469 15.058594 Z M 38.734375 23.984375 C 38.421875 24.0625 38.109375 24.125 37.789062 24.167969 C 37.980469 24.582031 38.144531 25.09375 38.238281 25.664062 C 38.398438 26.628906 38.203125 27.4375 38.128906 27.683594 C 38.6875 27.039062 39.421875 26.140625 40 25.257812 L 40.09375 25.113281 C 40.160156 24.8125 40.242188 23.96875 40.105469 23.042969 C 39.890625 21.566406 39.0625 20.859375 39.0625 20.859375 C 39.0625 20.859375 38.789062 21.785156 38.863281 23.019531 C 38.949219 24.417969 39.589844 25.429688 39.589844 25.429688 C 39.589844 25.429688 39.386719 25.425781 39.230469 25.191406 C 39.082031 24.964844 38.875 24.570312 38.734375 23.984375 Z M 37.652344 23.875 C 37.996094 23.835938 38.335938 23.769531 38.671875 23.683594 C 38.632812 23.46875 38.605469 23.257812 38.59375 23.042969 C 38.476562 22.9375 38.378906 22.855469 38.371094 22.855469 C 37.917969 22.960938 37.5 23.015625 37.105469 23.039062 C 37.21875 23.1875 37.441406 23.472656 37.652344 23.875 Z M 36.605469 24.238281 C 35.152344 24.210938 34.164062 23.800781 32.78125 24.171875 C 34.234375 24.890625 35.535156 25.871094 36.628906 27.066406 C 36.542969 26.707031 36.476562 26.234375 36.46875 25.605469 C 36.46875 25.144531 36.511719 24.6875 36.605469 24.238281 Z M 36.605469 24.238281 "/>
<path fill-rule="evenodd" fill="rgb(100%, 100%, 100%)" fill-opacity="1" d="M 37.445312 29.046875 C 38.730469 31.007812 39.472656 33.347656 39.472656 35.871094 C 39.472656 42.761719 33.886719 48.34375 27 48.34375 C 20.109375 48.34375 14.523438 42.761719 14.523438 35.871094 C 14.519531 32.898438 15.582031 30.019531 17.515625 27.761719 C 17.449219 27.679688 17.285156 27.46875 17.058594 27.167969 C 16.757812 26.925781 16.089844 26.472656 15.152344 26.292969 C 13.710938 26.011719 12.714844 26.378906 12.714844 26.378906 C 12.714844 26.378906 13.363281 27.035156 14.578125 27.5 C 15.863281 27.992188 16.710938 27.816406 17.257812 27.71875 C 17.257812 27.722656 17.195312 27.933594 16.984375 27.992188 L 16.878906 28.019531 C 15.132812 30.265625 14.1875 33.027344 14.191406 35.871094 C 14.191406 42.945312 19.925781 48.675781 27 48.675781 C 34.070312 48.675781 39.804688 42.945312 39.804688 35.871094 C 39.804688 33.402344 39.09375 31.078125 37.882812 29.121094 C 37.824219 29.0625 37.78125 28.984375 37.757812 28.902344 C 38.292969 29.050781 39.183594 29.300781 40.503906 28.921875 C 41.757812 28.566406 42.460938 27.972656 42.460938 27.972656 C 42.460938 27.972656 41.5 27.519531 40.042969 27.671875 C 39.09375 27.773438 38.382812 28.164062 38.0625 28.378906 C 37.863281 28.605469 37.65625 28.828125 37.445312 29.046875 Z M 37.445312 29.046875 "/>
<path fill-rule="evenodd" fill="rgb(100%, 100%, 100%)" fill-opacity="1" d="M 14.933594 35.871094 C 14.933594 29.207031 20.335938 23.804688 27 23.804688 C 33.660156 23.804688 39.0625 29.207031 39.0625 35.871094 C 39.0625 42.53125 33.660156 47.933594 27 47.933594 C 20.335938 47.933594 14.933594 42.53125 14.933594 35.871094 Z M 14.933594 35.871094 "/>
<path fill-rule="evenodd" fill="rgb(0%, 0%, 0%)" fill-opacity="1" d="M 18.480469 35.871094 C 18.480469 31.164062 22.292969 27.351562 27 27.351562 C 31.703125 27.351562 35.515625 31.164062 35.515625 35.871094 C 35.515625 40.574219 31.703125 44.390625 27 44.390625 C 22.292969 44.390625 18.480469 40.574219 18.480469 35.871094 Z M 14.996094 24.285156 C 14.746094 24.042969 12.910156 23.207031 12.878906 23.292969 C 12.847656 23.382812 12.929688 23.480469 13.058594 23.554688 C 13.480469 23.796875 14.234375 24.261719 14.996094 24.285156 Z M 13.539062 20.96875 C 13.359375 20.6875 11.839844 19.523438 11.789062 19.597656 C 11.742188 19.671875 11.796875 19.78125 11.898438 19.875 C 12.238281 20.191406 12.835938 20.78125 13.539062 20.96875 Z M 15.589844 23.84375 C 15.5625 23.496094 16.105469 21.550781 16.191406 21.582031 C 16.28125 21.617188 16.304688 21.742188 16.277344 21.886719 C 16.191406 22.367188 16.0625 23.242188 15.589844 23.84375 Z M 14.167969 20.746094 C 14.132812 20.414062 14.582031 18.554688 14.664062 18.578125 C 14.75 18.605469 14.777344 18.726562 14.757812 18.867188 C 14.691406 19.324219 14.597656 20.15625 14.167969 20.746094 Z M 14.167969 20.746094 "/>
<path fill-rule="evenodd" fill="rgb(0%, 0%, 0%)" fill-opacity="1" d="M 40.371094 25.6875 C 40.640625 25.464844 42.542969 24.792969 42.566406 24.882812 C 42.589844 24.972656 42.5 25.066406 42.367188 25.125 C 41.921875 25.332031 41.132812 25.726562 40.371094 25.6875 Z M 42.113281 22.507812 C 42.316406 22.246094 43.929688 21.214844 43.972656 21.292969 C 44.015625 21.371094 43.949219 21.476562 43.839844 21.5625 C 43.472656 21.847656 42.828125 22.382812 42.113281 22.507812 Z M 41.503906 22.230469 C 41.570312 21.90625 41.285156 20.011719 41.199219 20.03125 C 41.109375 20.050781 41.074219 20.167969 41.082031 20.308594 C 41.109375 20.769531 41.128906 21.609375 41.503906 22.230469 Z M 15.546875 37.179688 C 15.574219 37.261719 15.601562 37.320312 15.628906 37.355469 C 15.675781 37.410156 15.746094 37.429688 15.835938 37.40625 L 17.488281 37.011719 C 17.574219 36.988281 17.625 36.945312 17.644531 36.875 C 17.65625 36.832031 17.65625 36.769531 17.640625 36.679688 L 17.726562 36.65625 L 17.972656 37.679688 C 18.070312 38.09375 18.035156 38.4375 17.867188 38.707031 C 17.714844 38.953125 17.46875 39.113281 17.132812 39.195312 C 16.828125 39.269531 16.546875 39.230469 16.289062 39.082031 C 16 38.917969 15.808594 38.640625 15.71875 38.257812 L 15.460938 37.199219 Z M 15.828125 38.019531 C 15.804688 38.050781 15.800781 38.101562 15.816406 38.175781 C 15.867188 38.375 15.972656 38.519531 16.144531 38.613281 C 16.316406 38.707031 16.601562 38.707031 17 38.613281 C 17.234375 38.554688 17.429688 38.472656 17.585938 38.363281 C 17.832031 38.1875 17.921875 37.964844 17.859375 37.703125 C 17.839844 37.613281 17.804688 37.5625 17.761719 37.546875 C 17.734375 37.535156 17.6875 37.535156 17.617188 37.550781 L 15.96875 37.949219 C 15.902344 37.96875 15.855469 37.992188 15.828125 38.019531 Z M 16.203125 40.054688 L 16.28125 40.011719 C 16.332031 40.097656 16.378906 40.152344 16.417969 40.175781 C 16.480469 40.21875 16.554688 40.210938 16.640625 40.164062 L 18.105469 39.371094 C 18.195312 39.320312 18.238281 39.261719 18.238281 39.1875 C 18.238281 39.140625 18.21875 39.074219 18.175781 38.984375 L 18.25 38.941406 L 19.199219 40.6875 L 18.585938 41.019531 L 18.546875 40.945312 C 18.722656 40.800781 18.820312 40.664062 18.839844 40.53125 C 18.863281 40.398438 18.808594 40.214844 18.675781 39.96875 C 18.625 39.878906 18.585938 39.824219 18.550781 39.808594 C 18.519531 39.792969 18.472656 39.800781 18.417969 39.832031 L 17.714844 40.214844 C 17.808594 40.386719 17.902344 40.488281 18 40.515625 C 18.097656 40.539062 18.242188 40.523438 18.429688 40.460938 L 18.472656 40.539062 L 17.449219 41.09375 L 17.40625 41.015625 C 17.566406 40.902344 17.664062 40.792969 17.699219 40.6875 C 17.734375 40.582031 17.703125 40.441406 17.609375 40.269531 L 16.878906 40.667969 C 16.8125 40.703125 16.777344 40.742188 16.773438 40.789062 C 16.769531 40.835938 16.792969 40.910156 16.847656 41.011719 C 16.953125 41.203125 17.078125 41.34375 17.21875 41.421875 C 17.359375 41.503906 17.558594 41.539062 17.816406 41.519531 L 17.863281 41.605469 L 17.164062 41.824219 Z M 18.460938 43.480469 C 18.5625 43.5625 18.644531 43.597656 18.703125 43.585938 C 18.761719 43.574219 18.820312 43.53125 18.875 43.460938 L 19.894531 42.179688 C 19.953125 42.109375 19.972656 42.046875 19.957031 41.996094 C 19.941406 41.941406 19.890625 41.878906 19.804688 41.800781 L 19.859375 41.730469 L 20.539062 42.273438 L 20.078125 43.941406 L 20.101562 43.960938 L 21.621094 43.132812 L 22.300781 43.671875 L 22.246094 43.742188 C 22.148438 43.675781 22.074219 43.640625 22.019531 43.644531 C 21.964844 43.644531 21.894531 43.695312 21.8125 43.800781 L 20.863281 44.992188 C 20.785156 45.089844 20.75 45.167969 20.761719 45.226562 C 20.769531 45.28125 20.816406 45.351562 20.90625 45.425781 L 20.851562 45.496094 L 19.957031 44.78125 L 20.011719 44.714844 C 20.09375 44.773438 20.164062 44.808594 20.222656 44.816406 C 20.28125 44.824219 20.34375 44.789062 20.410156 44.707031 L 21.457031 43.386719 L 21.4375 43.371094 L 19.515625 44.433594 L 19.445312 44.375 L 20.011719 42.289062 L 20 42.28125 L 19.03125 43.5 C 18.957031 43.589844 18.921875 43.667969 18.925781 43.738281 C 18.925781 43.804688 18.980469 43.886719 19.089844 43.980469 L 19.035156 44.050781 L 18.40625 43.546875 Z M 23.167969 46.03125 C 23.28125 45.898438 23.390625 45.710938 23.496094 45.464844 C 23.640625 45.128906 23.703125 44.851562 23.675781 44.636719 C 23.648438 44.425781 23.550781 44.28125 23.378906 44.207031 C 23.140625 44.101562 22.914062 44.171875 22.703125 44.417969 C 22.589844 44.550781 22.484375 44.738281 22.378906 44.976562 C 22.269531 45.222656 22.207031 45.433594 22.191406 45.605469 C 22.15625 45.921875 22.257812 46.132812 22.496094 46.238281 C 22.730469 46.339844 22.957031 46.273438 23.167969 46.03125 Z M 24.085938 44.753906 C 24.210938 45.058594 24.203125 45.378906 24.058594 45.710938 C 23.914062 46.042969 23.6875 46.265625 23.378906 46.382812 C 23.078125 46.496094 22.765625 46.484375 22.449219 46.34375 C 22.113281 46.199219 21.886719 45.964844 21.769531 45.648438 C 21.664062 45.351562 21.675781 45.050781 21.808594 44.75 C 21.953125 44.417969 22.171875 44.191406 22.472656 44.070312 C 22.777344 43.945312 23.09375 43.957031 23.425781 44.097656 C 23.746094 44.238281 23.964844 44.457031 24.085938 44.753906 Z M 24.140625 46.84375 C 24.265625 46.855469 24.351562 46.84375 24.394531 46.800781 C 24.4375 46.761719 24.464844 46.699219 24.476562 46.609375 L 24.6875 44.992188 C 24.597656 44.863281 24.542969 44.785156 24.523438 44.761719 C 24.496094 44.734375 24.464844 44.714844 24.425781 44.707031 L 24.4375 44.621094 L 25.164062 44.714844 L 26.148438 46.308594 L 26.164062 46.3125 L 26.296875 45.296875 C 26.3125 45.179688 26.300781 45.097656 26.265625 45.042969 C 26.230469 44.984375 26.152344 44.945312 26.023438 44.917969 L 26.035156 44.832031 L 26.773438 44.929688 L 26.761719 45.015625 C 26.652344 45.019531 26.578125 45.03125 26.535156 45.058594 C 26.496094 45.082031 26.46875 45.148438 26.457031 45.253906 L 26.191406 47.265625 L 26.097656 47.253906 L 24.832031 45.226562 L 24.808594 45.222656 L 24.632812 46.566406 C 24.621094 46.671875 24.625 46.746094 24.648438 46.792969 C 24.683594 46.867188 24.773438 46.917969 24.914062 46.941406 L 24.902344 47.03125 L 24.128906 46.929688 Z M 27.019531 44.929688 L 29.085938 44.730469 L 29.15625 45.421875 L 29.054688 45.429688 C 29 45.1875 28.890625 45.027344 28.730469 44.957031 C 28.640625 44.917969 28.507812 44.902344 28.335938 44.914062 L 28.511719 46.71875 C 28.523438 46.84375 28.550781 46.925781 28.601562 46.964844 C 28.648438 47 28.742188 47.011719 28.882812 47 L 28.890625 47.085938 L 27.667969 47.203125 L 27.660156 47.117188 C 27.792969 47.105469 27.878906 47.074219 27.921875 47.03125 C 27.960938 46.984375 27.972656 46.898438 27.960938 46.773438 L 27.789062 44.96875 C 27.621094 44.988281 27.496094 45.027344 27.410156 45.082031 C 27.253906 45.1875 27.179688 45.363281 27.179688 45.609375 L 27.082031 45.621094 Z M 30.105469 46.882812 L 30.074219 46.800781 C 30.167969 46.765625 30.230469 46.730469 30.257812 46.695312 C 30.308594 46.640625 30.316406 46.5625 30.28125 46.472656 L 29.726562 44.898438 C 29.691406 44.804688 29.640625 44.75 29.566406 44.742188 C 29.523438 44.734375 29.453125 44.746094 29.355469 44.773438 L 29.328125 44.691406 L 31.199219 44.027344 L 31.429688 44.683594 L 31.351562 44.710938 C 31.234375 44.515625 31.113281 44.398438 30.988281 44.355469 C 30.863281 44.3125 30.667969 44.335938 30.410156 44.429688 C 30.308594 44.464844 30.25 44.5 30.230469 44.53125 C 30.210938 44.558594 30.210938 44.605469 30.234375 44.667969 L 30.5 45.417969 C 30.683594 45.355469 30.796875 45.277344 30.839844 45.183594 C 30.878906 45.089844 30.886719 44.945312 30.855469 44.75 L 30.9375 44.722656 L 31.328125 45.820312 L 31.242188 45.847656 C 31.15625 45.671875 31.0625 45.558594 30.964844 45.507812 C 30.867188 45.457031 30.722656 45.464844 30.539062 45.53125 L 30.816406 46.316406 C 30.84375 46.386719 30.875 46.425781 30.917969 46.441406 C 30.964844 46.453125 31.042969 46.4375 31.152344 46.398438 C 31.359375 46.324219 31.515625 46.226562 31.617188 46.097656 C 31.71875 45.972656 31.78125 45.78125 31.804688 45.523438 L 31.894531 45.492188 L 32.003906 46.210938 Z M 32.710938 45.753906 C 32.804688 45.6875 32.859375 45.625 32.875 45.570312 C 32.886719 45.511719 32.859375 45.433594 32.789062 45.324219 L 31.949219 44.054688 C 31.875 43.945312 31.804688 43.886719 31.742188 43.878906 C 31.699219 43.875 31.625 43.902344 31.523438 43.960938 L 31.472656 43.886719 L 32.398438 43.273438 C 32.589844 43.148438 32.757812 43.066406 32.902344 43.027344 C 33.1875 42.957031 33.398438 43.027344 33.539062 43.238281 C 33.644531 43.394531 33.667969 43.554688 33.609375 43.71875 C 33.570312 43.839844 33.503906 43.945312 33.417969 44.035156 L 34.535156 44.46875 C 34.5625 44.480469 34.589844 44.484375 34.617188 44.480469 C 34.640625 44.472656 34.667969 44.464844 34.691406 44.449219 L 34.734375 44.519531 L 34.148438 44.90625 L 32.957031 44.40625 L 32.882812 44.453125 L 33.253906 45.015625 C 33.320312 45.117188 33.382812 45.175781 33.441406 45.1875 C 33.496094 45.199219 33.578125 45.175781 33.679688 45.113281 L 33.730469 45.183594 L 32.757812 45.828125 Z M 33.171875 44.015625 C 33.21875 43.914062 33.183594 43.769531 33.0625 43.589844 C 32.988281 43.476562 32.914062 43.398438 32.84375 43.355469 C 32.71875 43.28125 32.582031 43.292969 32.441406 43.386719 C 32.367188 43.4375 32.320312 43.480469 32.308594 43.515625 C 32.300781 43.546875 32.308594 43.589844 32.335938 43.632812 L 32.820312 44.363281 C 33.007812 44.234375 33.125 44.121094 33.171875 44.015625 Z M 34.917969 44.117188 C 34.988281 44.027344 35.023438 43.953125 35.023438 43.894531 C 35.019531 43.835938 34.972656 43.765625 34.875 43.683594 L 33.71875 42.695312 C 33.617188 42.609375 33.53125 42.570312 33.46875 42.582031 C 33.425781 42.59375 33.363281 42.636719 33.28125 42.71875 L 33.214844 42.664062 L 33.933594 41.820312 C 34.082031 41.644531 34.222656 41.519531 34.351562 41.441406 C 34.605469 41.296875 34.828125 41.304688 35.019531 41.46875 C 35.164062 41.59375 35.230469 41.738281 35.222656 41.914062 C 35.214844 42.046875 35.183594 42.167969 35.121094 42.269531 L 36.316406 42.378906 C 36.34375 42.382812 36.371094 42.378906 36.398438 42.367188 C 36.417969 42.359375 36.4375 42.339844 36.460938 42.320312 L 36.523438 42.371094 L 36.066406 42.910156 L 34.78125 42.753906 L 34.722656 42.820312 L 35.238281 43.261719 C 35.328125 43.339844 35.40625 43.375 35.464844 43.375 C 35.519531 43.371094 35.589844 43.324219 35.671875 43.234375 L 35.738281 43.289062 L 34.984375 44.175781 Z M 34.882812 42.320312 C 34.898438 42.207031 34.824219 42.082031 34.660156 41.9375 C 34.558594 41.851562 34.464844 41.796875 34.382812 41.777344 C 34.242188 41.738281 34.117188 41.785156 34.007812 41.914062 C 33.945312 41.984375 33.917969 42.039062 33.914062 42.074219 C 33.914062 42.109375 33.933594 42.144531 33.972656 42.179688 L 34.640625 42.75 C 34.785156 42.574219 34.863281 42.433594 34.882812 42.320312 Z M 36.761719 41.992188 L 36.683594 41.957031 C 36.722656 41.863281 36.742188 41.796875 36.738281 41.75 C 36.730469 41.675781 36.683594 41.617188 36.597656 41.574219 L 35.09375 40.855469 C 35 40.8125 34.925781 40.816406 34.863281 40.859375 C 34.828125 40.886719 34.789062 40.941406 34.738281 41.027344 L 34.660156 40.992188 L 35.515625 39.199219 L 36.140625 39.5 L 36.105469 39.574219 C 35.886719 39.519531 35.71875 39.519531 35.597656 39.582031 C 35.480469 39.640625 35.359375 39.792969 35.242188 40.042969 C 35.195312 40.140625 35.175781 40.203125 35.183594 40.242188 C 35.191406 40.273438 35.226562 40.304688 35.285156 40.335938 L 36.003906 40.675781 C 36.089844 40.5 36.117188 40.367188 36.078125 40.273438 C 36.042969 40.175781 35.945312 40.070312 35.785156 39.953125 L 35.820312 39.875 L 36.871094 40.375 L 36.835938 40.457031 C 36.648438 40.394531 36.5 40.378906 36.394531 40.414062 C 36.292969 40.445312 36.195312 40.550781 36.113281 40.730469 L 36.863281 41.089844 C 36.929688 41.121094 36.984375 41.125 37.023438 41.101562 C 37.0625 41.078125 37.109375 41.015625 37.160156 40.910156 C 37.253906 40.710938 37.292969 40.53125 37.273438 40.367188 C 37.257812 40.207031 37.167969 40.027344 37 39.828125 L 37.042969 39.742188 L 37.628906 40.175781 Z M 35.898438 37.855469 L 35.984375 37.875 C 35.964844 37.992188 35.957031 38.066406 35.960938 38.105469 C 35.964844 38.136719 35.988281 38.164062 36.019531 38.167969 C 36.035156 38.171875 36.054688 38.171875 36.074219 38.171875 C 36.089844 38.167969 36.125 38.160156 36.179688 38.148438 L 37.082031 37.910156 L 37.085938 37.878906 L 36.574219 37.386719 C 36.539062 37.351562 36.5 37.316406 36.457031 37.285156 C 36.386719 37.230469 36.332031 37.199219 36.292969 37.191406 C 36.234375 37.175781 36.191406 37.191406 36.160156 37.234375 C 36.140625 37.261719 36.113281 37.332031 36.082031 37.4375 L 35.996094 37.417969 L 36.160156 36.679688 L 36.246094 36.699219 C 36.242188 36.753906 36.246094 36.800781 36.25 36.835938 C 36.265625 36.882812 36.289062 36.921875 36.324219 36.957031 L 37.226562 37.832031 L 37.847656 37.96875 C 37.976562 37.996094 38.0625 37.992188 38.109375 37.957031 C 38.15625 37.921875 38.195312 37.84375 38.222656 37.726562 L 38.308594 37.742188 L 38.050781 38.910156 L 37.964844 38.890625 C 37.988281 38.765625 37.984375 38.679688 37.957031 38.628906 C 37.925781 38.578125 37.847656 38.542969 37.726562 38.511719 L 37.230469 38.402344 L 35.980469 38.769531 C 35.898438 38.796875 35.835938 38.832031 35.792969 38.886719 C 35.765625 38.921875 35.746094 38.960938 35.734375 39 L 35.648438 38.980469 Z M 16.09375 32.375 L 16.921875 30.472656 L 17.5625 30.746094 L 17.519531 30.835938 C 17.28125 30.769531 17.089844 30.785156 16.949219 30.894531 C 16.871094 30.953125 16.792969 31.058594 16.722656 31.214844 L 18.382812 31.9375 C 18.5 31.988281 18.585938 32.003906 18.640625 31.980469 C 18.699219 31.953125 18.753906 31.878906 18.808594 31.75 L 18.890625 31.785156 L 18.398438 32.910156 L 18.320312 32.875 C 18.375 32.753906 18.390625 32.664062 18.371094 32.605469 C 18.347656 32.546875 18.28125 32.492188 18.164062 32.445312 L 16.503906 31.71875 C 16.4375 31.875 16.410156 32.003906 16.421875 32.105469 C 16.4375 32.292969 16.554688 32.445312 16.769531 32.5625 L 16.730469 32.65625 Z M 18.96875 31.496094 L 18.898438 31.445312 C 18.953125 31.363281 18.980469 31.296875 18.988281 31.25 C 18.996094 31.175781 18.957031 31.109375 18.878906 31.054688 L 17.519531 30.085938 C 17.4375 30.027344 17.363281 30.015625 17.296875 30.046875 C 17.257812 30.066406 17.207031 30.113281 17.144531 30.191406 L 17.074219 30.140625 L 18.226562 28.527344 L 18.792969 28.929688 L 18.742188 28.996094 C 18.535156 28.90625 18.371094 28.878906 18.242188 28.914062 C 18.113281 28.953125 17.96875 29.085938 17.808594 29.308594 C 17.75 29.394531 17.71875 29.457031 17.71875 29.492188 C 17.722656 29.53125 17.75 29.566406 17.800781 29.601562 L 18.449219 30.066406 C 18.566406 29.90625 18.613281 29.777344 18.59375 29.679688 C 18.574219 29.582031 18.496094 29.460938 18.359375 29.316406 L 18.410156 29.246094 L 19.359375 29.921875 L 19.308594 29.992188 C 19.132812 29.898438 18.992188 29.859375 18.882812 29.875 C 18.773438 29.890625 18.660156 29.976562 18.546875 30.136719 L 19.226562 30.621094 C 19.285156 30.664062 19.335938 30.675781 19.378906 30.660156 C 19.425781 30.644531 19.480469 30.589844 19.546875 30.496094 C 19.675781 30.316406 19.746094 30.144531 19.753906 29.984375 C 19.765625 29.820312 19.707031 29.625 19.582031 29.402344 L 19.636719 29.324219 L 20.136719 29.855469 Z M 19.929688 26.972656 C 20.074219 26.914062 20.152344 26.875 20.164062 26.867188 C 20.195312 26.839844 20.210938 26.800781 20.207031 26.757812 C 20.207031 26.71875 20.195312 26.679688 20.175781 26.644531 L 20.246094 26.582031 L 20.789062 27.175781 L 20.726562 27.234375 C 20.546875 27.160156 20.390625 27.117188 20.257812 27.101562 C 20.011719 27.074219 19.816406 27.128906 19.664062 27.265625 C 19.496094 27.421875 19.441406 27.605469 19.503906 27.820312 C 19.566406 28.03125 19.710938 28.261719 19.9375 28.507812 C 20.105469 28.6875 20.261719 28.820312 20.414062 28.898438 C 20.691406 29.046875 20.941406 29.023438 21.152344 28.828125 C 21.285156 28.707031 21.371094 28.558594 21.417969 28.382812 C 21.445312 28.28125 21.457031 28.144531 21.460938 27.972656 L 21.59375 27.964844 C 21.59375 28.167969 21.582031 28.328125 21.550781 28.445312 C 21.5 28.65625 21.386719 28.84375 21.226562 28.988281 C 20.976562 29.21875 20.699219 29.335938 20.390625 29.339844 C 20.054688 29.347656 19.757812 29.214844 19.5 28.933594 C 19.25 28.65625 19.132812 28.351562 19.15625 28.015625 C 19.175781 27.703125 19.3125 27.433594 19.554688 27.207031 C 19.660156 27.109375 19.785156 27.03125 19.929688 26.972656 Z M 21.820312 28.230469 C 21.933594 28.171875 21.996094 28.113281 22.011719 28.058594 C 22.023438 28 22.007812 27.929688 21.96875 27.851562 L 21.242188 26.390625 C 21.09375 26.332031 21.003906 26.300781 20.976562 26.292969 C 20.9375 26.285156 20.902344 26.289062 20.867188 26.300781 L 20.828125 26.222656 L 21.480469 25.898438 L 23.1875 26.667969 L 23.203125 26.660156 L 22.746094 25.742188 C 22.695312 25.640625 22.636719 25.574219 22.578125 25.550781 C 22.515625 25.523438 22.425781 25.535156 22.308594 25.582031 L 22.269531 25.503906 L 22.933594 25.171875 L 22.972656 25.25 C 22.882812 25.316406 22.832031 25.371094 22.8125 25.414062 C 22.792969 25.457031 22.804688 25.523438 22.851562 25.617188 L 23.757812 27.433594 L 23.671875 27.476562 L 21.496094 26.503906 L 21.472656 26.515625 L 22.078125 27.726562 C 22.125 27.820312 22.171875 27.878906 22.214844 27.90625 C 22.289062 27.949219 22.390625 27.941406 22.519531 27.882812 L 22.558594 27.960938 L 21.859375 28.308594 Z M 25.355469 26.425781 C 25.371094 26.253906 25.347656 26.035156 25.292969 25.777344 C 25.210938 25.417969 25.097656 25.160156 24.949219 25.003906 C 24.804688 24.84375 24.640625 24.785156 24.457031 24.824219 C 24.203125 24.882812 24.0625 25.074219 24.035156 25.398438 C 24.023438 25.570312 24.042969 25.78125 24.101562 26.039062 C 24.160156 26.300781 24.230469 26.507812 24.316406 26.65625 C 24.476562 26.9375 24.683594 27.046875 24.9375 26.992188 C 25.1875 26.933594 25.328125 26.746094 25.355469 26.425781 Z M 25.351562 24.855469 C 25.632812 25.027344 25.8125 25.289062 25.890625 25.644531 C 25.96875 25.996094 25.917969 26.3125 25.734375 26.585938 C 25.558594 26.855469 25.300781 27.027344 24.960938 27.105469 C 24.601562 27.183594 24.285156 27.128906 24.003906 26.9375 C 23.742188 26.761719 23.578125 26.511719 23.503906 26.191406 C 23.425781 25.839844 23.472656 25.523438 23.644531 25.25 C 23.816406 24.96875 24.078125 24.789062 24.433594 24.710938 C 24.769531 24.636719 25.078125 24.683594 25.351562 24.855469 Z M 26.027344 26.710938 C 26.121094 26.707031 26.1875 26.695312 26.230469 26.675781 C 26.296875 26.640625 26.332031 26.570312 26.332031 26.472656 L 26.347656 24.804688 C 26.347656 24.703125 26.316406 24.636719 26.25 24.601562 C 26.214844 24.578125 26.144531 24.5625 26.046875 24.558594 L 26.046875 24.46875 L 27.25 24.480469 L 27.25 24.566406 C 27.109375 24.570312 27.015625 24.589844 26.96875 24.625 C 26.921875 24.660156 26.898438 24.746094 26.898438 24.882812 L 26.882812 26.507812 C 26.882812 26.585938 26.902344 26.632812 26.941406 26.660156 C 26.980469 26.683594 27.058594 26.699219 27.175781 26.699219 C 27.382812 26.699219 27.554688 26.65625 27.695312 26.566406 C 27.839844 26.476562 27.960938 26.300781 28.066406 26.035156 L 28.167969 26.035156 L 28.019531 26.816406 L 26.027344 26.796875 Z M 29.917969 26.738281 C 30.007812 26.589844 30.089844 26.386719 30.15625 26.128906 C 30.246094 25.773438 30.261719 25.492188 30.203125 25.285156 C 30.144531 25.078125 30.023438 24.949219 29.84375 24.902344 C 29.589844 24.835938 29.378906 24.945312 29.207031 25.21875 C 29.117188 25.367188 29.039062 25.570312 28.972656 25.824219 C 28.90625 26.082031 28.878906 26.300781 28.886719 26.472656 C 28.902344 26.792969 29.035156 26.984375 29.289062 27.050781 C 29.539062 27.113281 29.746094 27.011719 29.917969 26.738281 Z M 30.625 25.332031 C 30.796875 25.613281 30.839844 25.929688 30.746094 26.28125 C 30.65625 26.632812 30.46875 26.890625 30.183594 27.054688 C 29.902344 27.210938 29.59375 27.25 29.257812 27.160156 C 28.902344 27.070312 28.644531 26.875 28.480469 26.578125 C 28.328125 26.300781 28.292969 26.003906 28.375 25.6875 C 28.464844 25.335938 28.648438 25.078125 28.925781 24.910156 C 29.207031 24.738281 29.523438 24.699219 29.871094 24.789062 C 30.207031 24.878906 30.460938 25.058594 30.625 25.332031 Z M 31.753906 25.84375 C 32.070312 25.753906 32.386719 25.796875 32.691406 25.976562 C 32.8125 26.050781 32.921875 26.144531 33.015625 26.261719 C 33.113281 26.378906 33.175781 26.449219 33.203125 26.464844 C 33.234375 26.484375 33.269531 26.488281 33.300781 26.476562 C 33.332031 26.464844 33.367188 26.441406 33.40625 26.402344 L 33.492188 26.453125 L 33.082031 27.148438 L 33.007812 27.101562 C 33.023438 26.910156 33.019531 26.746094 32.996094 26.617188 C 32.953125 26.375 32.84375 26.203125 32.667969 26.097656 C 32.476562 25.984375 32.289062 25.984375 32.101562 26.101562 C 31.914062 26.214844 31.734375 26.421875 31.554688 26.722656 C 31.410156 26.972656 31.320312 27.214844 31.289062 27.457031 C 31.257812 27.699219 31.359375 27.890625 31.589844 28.027344 C 31.71875 28.101562 31.816406 28.125 31.894531 28.097656 C 31.9375 28.082031 31.976562 28.046875 32.011719 27.984375 L 32.195312 27.671875 C 32.25 27.582031 32.253906 27.507812 32.21875 27.445312 C 32.191406 27.40625 32.125 27.355469 32.015625 27.289062 L 32.0625 27.214844 L 33.078125 27.8125 L 33.035156 27.886719 C 32.929688 27.832031 32.847656 27.8125 32.792969 27.832031 C 32.738281 27.847656 32.679688 27.90625 32.621094 28.011719 L 32.398438 28.386719 C 32.308594 28.390625 32.179688 28.367188 32.007812 28.324219 C 31.820312 28.269531 31.644531 28.191406 31.476562 28.09375 C 31.148438 27.898438 30.945312 27.640625 30.871094 27.316406 C 30.804688 27.011719 30.855469 26.714844 31.027344 26.421875 C 31.203125 26.128906 31.441406 25.933594 31.753906 25.84375 Z M 31.753906 25.84375 "/>
<path fill-rule="evenodd" fill="rgb(0%, 0%, 0%)" fill-opacity="1" d="M 32.457031 28.515625 C 32.53125 28.582031 32.589844 28.617188 32.636719 28.628906 C 32.714844 28.648438 32.785156 28.621094 32.851562 28.542969 L 33.957031 27.296875 C 34.023438 27.21875 34.046875 27.144531 34.019531 27.078125 C 34.003906 27.035156 33.957031 26.976562 33.882812 26.90625 L 33.941406 26.839844 L 34.84375 27.636719 L 34.785156 27.703125 C 34.703125 27.636719 34.636719 27.59375 34.59375 27.582031 C 34.519531 27.566406 34.449219 27.59375 34.382812 27.671875 L 33.277344 28.917969 C 33.214844 28.992188 33.191406 29.058594 33.210938 29.117188 C 33.226562 29.179688 33.277344 29.242188 33.359375 29.316406 L 33.300781 29.378906 L 32.398438 28.582031 Z M 36.054688 29.042969 C 36.105469 29.191406 36.136719 29.269531 36.148438 29.285156 C 36.171875 29.316406 36.210938 29.335938 36.253906 29.332031 C 36.292969 29.332031 36.332031 29.324219 36.367188 29.304688 L 36.429688 29.378906 L 35.808594 29.890625 L 35.75 29.824219 C 35.832031 29.648438 35.886719 29.496094 35.910156 29.363281 C 35.949219 29.121094 35.90625 28.921875 35.777344 28.761719 C 35.628906 28.585938 35.449219 28.523438 35.230469 28.574219 C 35.015625 28.625 34.78125 28.757812 34.519531 28.972656 C 34.332031 29.128906 34.191406 29.28125 34.105469 29.425781 C 33.945312 29.695312 33.953125 29.945312 34.136719 30.167969 C 34.25 30.304688 34.398438 30.402344 34.566406 30.457031 C 34.667969 30.484375 34.804688 30.507812 34.976562 30.519531 L 34.976562 30.652344 C 34.773438 30.644531 34.617188 30.621094 34.5 30.585938 C 34.292969 30.523438 34.109375 30.402344 33.972656 30.234375 C 33.757812 29.972656 33.65625 29.6875 33.664062 29.382812 C 33.675781 29.042969 33.824219 28.753906 34.117188 28.511719 C 34.40625 28.273438 34.71875 28.175781 35.050781 28.214844 C 35.367188 28.253906 35.628906 28.402344 35.839844 28.65625 C 35.929688 28.765625 36 28.894531 36.054688 29.042969 Z M 35.847656 32.289062 C 36.019531 32.261719 36.226562 32.191406 36.46875 32.078125 C 36.800781 31.921875 37.023438 31.75 37.144531 31.574219 C 37.265625 31.394531 37.289062 31.21875 37.207031 31.050781 C 37.09375 30.816406 36.878906 30.722656 36.554688 30.769531 C 36.386719 30.792969 36.179688 30.863281 35.945312 30.976562 C 35.703125 31.09375 35.515625 31.210938 35.390625 31.328125 C 35.15625 31.542969 35.09375 31.769531 35.207031 32.003906 C 35.316406 32.238281 35.53125 32.332031 35.847656 32.289062 Z M 37.382812 31.929688 C 37.273438 32.242188 37.058594 32.472656 36.730469 32.628906 C 36.40625 32.785156 36.085938 32.808594 35.777344 32.691406 C 35.476562 32.582031 35.25 32.367188 35.101562 32.054688 C 34.941406 31.722656 34.925781 31.398438 35.046875 31.085938 C 35.160156 30.789062 35.367188 30.570312 35.664062 30.429688 C 35.988281 30.277344 36.304688 30.25 36.613281 30.355469 C 36.921875 30.460938 37.15625 30.675781 37.3125 31 C 37.460938 31.316406 37.484375 31.625 37.382812 31.929688 Z M 37.382812 31.929688 "/>
<path fill-rule="evenodd" fill="rgb(100%, 100%, 100%)" fill-opacity="1" d="M 29.726562 37.738281 C 29.3125 38.046875 28.84375 39.152344 28.871094 39.378906 C 29.105469 39.285156 29.777344 37.828125 29.726562 37.738281 Z M 29.9375 37.816406 L 30.367188 38.050781 L 30.289062 38.140625 C 30.253906 38.351562 30.167969 38.582031 30.054688 38.84375 L 31.078125 39.394531 L 30.996094 39.542969 L 29.980469 38.988281 C 29.980469 38.988281 29.707031 39.425781 29.5625 39.554688 L 29.527344 39.730469 L 29.0625 39.523438 C 29.417969 39.179688 29.859375 38.328125 29.9375 37.816406 Z M 29.9375 37.816406 "/>
<path fill-rule="evenodd" fill="rgb(100%, 100%, 100%)" fill-opacity="1" d="M 30.171875 39.347656 L 30.578125 40.257812 C 30.578125 40.257812 30.824219 39.863281 30.875 39.742188 Z M 30.335938 38.746094 L 31.171875 39.195312 C 31.171875 39.195312 31.578125 38.359375 31.632812 38.199219 Z M 29.480469 39.933594 L 29.011719 42.351562 C 29.011719 42.351562 28.53125 42.8125 28.246094 42.863281 Z M 28.054688 40.992188 L 29.109375 39.789062 L 29.144531 39.808594 L 28.296875 41.203125 L 28.035156 41.074219 Z M 27.984375 41.296875 L 28.183594 41.398438 L 27.8125 42.007812 Z M 29.199219 43.695312 C 29.28125 43.429688 29.785156 42.644531 29.867188 42.914062 L 30.492188 43.214844 C 30.492188 43.214844 29.855469 43.527344 29.199219 43.695312 Z M 30.574219 42.082031 L 31.539062 42.554688 C 31.589844 42.0625 32.03125 41.304688 32.375 41.179688 L 31.445312 40.671875 C 31.222656 40.703125 30.65625 41.480469 30.574219 42.082031 Z M 32.964844 40.117188 C 32.90625 39.539062 33.378906 38.875 33.6875 38.636719 L 32.753906 38.09375 C 32.753906 38.09375 31.992188 38.753906 32.023438 39.609375 Z M 34.363281 36.359375 L 33.496094 35.796875 C 33.496094 35.796875 32.882812 36.613281 33.074219 36.996094 L 33.886719 37.492188 C 33.859375 37.210938 34.027344 36.8125 34.363281 36.359375 Z M 34.417969 34.785156 L 33.632812 34.25 C 33.492188 34.464844 33.171875 35.234375 33.582031 34.90625 L 34.1875 35.308594 C 34.1875 35.308594 34.226562 35.132812 34.417969 34.785156 Z M 33.28125 33.484375 C 33.28125 33.484375 33.09375 33.921875 33.148438 33.949219 C 33.214844 33.980469 33.527344 33.652344 33.527344 33.652344 Z M 30.59375 37.792969 L 32.191406 35.152344 C 32.292969 35.304688 32.328125 35.539062 32.3125 35.839844 Z M 30.488281 36.195312 C 30.488281 36.195312 30.980469 35.613281 31.144531 35.507812 L 30.78125 36.367188 Z M 30.40625 36.371094 L 30.707031 36.546875 L 30.214844 37.703125 L 30.148438 37.667969 Z M 30.40625 36.371094 "/>
<path fill-rule="evenodd" fill="rgb(100%, 100%, 100%)" fill-opacity="1" d="M 28.144531 39.375 C 28.300781 39.25 28.660156 38.585938 28.632812 38.371094 L 28.898438 37.890625 C 29.132812 37.746094 29.402344 37.175781 29.464844 36.925781 L 29.746094 36.476562 C 29.894531 36.480469 30.253906 35.964844 30.351562 35.613281 L 30.667969 35.210938 C 30.816406 35.363281 31.234375 34.660156 31.292969 34.484375 L 31.605469 34.1875 C 31.683594 34.578125 32.175781 33.78125 32.1875 33.699219 L 32.484375 33.539062 C 32.359375 33.960938 32.515625 34.011719 32.992188 33.390625 L 33.125 33.425781 C 32.699219 34.425781 33.355469 34.117188 33.570312 33.839844 L 34.375 34.390625 L 34.425781 34.566406 L 33.566406 33.984375 C 32.832031 35.164062 33.308594 35.296875 33.574219 35.15625 L 34.5 35.765625 L 34.453125 36.148438 L 33.441406 35.5 C 33.152344 35.820312 32.539062 36.949219 32.921875 37.179688 L 34.027344 37.84375 L 33.808594 38.441406 L 32.726562 37.808594 C 32.183594 38.214844 31.621094 39.191406 31.832031 39.761719 L 32.9375 40.367188 L 32.582031 41.027344 L 31.484375 40.429688 C 30.863281 40.570312 30.382812 41.589844 30.324219 42.214844 L 31.378906 42.726562 C 31.164062 42.871094 30.757812 43.085938 30.757812 43.085938 L 30.03125 42.742188 C 29.652344 42.320312 29.121094 43.226562 28.925781 43.761719 C 28.316406 43.925781 27.355469 43.980469 27.355469 43.980469 L 27.691406 42.535156 L 29.171875 40.097656 L 27.894531 43.128906 C 27.894531 43.128906 28.535156 43.1875 29.210938 42.46875 L 29.769531 39.65625 C 29.769531 39.65625 29.875 39.539062 29.957031 39.421875 L 30.558594 40.726562 C 31.230469 39.671875 31.824219 38.367188 32.070312 37.761719 L 30.441406 38.457031 C 30.441406 38.457031 30.46875 38.339844 30.484375 38.257812 L 32.53125 35.933594 C 32.554688 35.503906 32.542969 35.09375 32.144531 34.789062 L 30.425781 37.640625 L 31.539062 34.996094 C 31.261719 35.097656 30.601562 35.78125 30.269531 36.1875 L 29.988281 37.585938 L 29.824219 37.496094 C 29.441406 37.339844 28.335938 39.378906 28.742188 39.613281 L 28.957031 39.71875 L 28.128906 40.65625 C 28.234375 40.210938 28.375 39.90625 28.082031 39.519531 Z M 26.78125 40.4375 L 27.082031 39.753906 C 27.148438 39.828125 27.183594 39.90625 27.183594 39.992188 C 27.183594 40.15625 27.035156 40.3125 26.78125 40.4375 Z M 26.535156 40.539062 C 26.445312 40.570312 26.351562 40.597656 26.261719 40.621094 L 27.050781 37.667969 L 26.726562 37.773438 L 28.011719 33.097656 L 27.46875 33.269531 L 28.921875 28 C 29.015625 28.027344 29.597656 28.148438 30.335938 28.476562 L 28.71875 32.195312 L 29.734375 31.875 L 27.496094 37.019531 L 28.171875 36.804688 Z M 26.054688 40.664062 C 26.011719 40.671875 25.972656 40.675781 25.929688 40.683594 L 26.097656 38.855469 C 26.214844 38.878906 26.410156 38.90625 26.515625 38.933594 Z M 22.609375 42.660156 L 21.949219 40.121094 C 21.832031 39.136719 23.617188 38.570312 24.941406 38.574219 L 24.203125 36.785156 L 24.203125 33.921875 C 24.203125 33.921875 24.273438 33.816406 24.277344 33.742188 C 24.300781 33.496094 23.800781 33.367188 23.394531 33.367188 C 23.128906 33.371094 22.550781 33.421875 22.683594 33.683594 C 22.757812 33.832031 23.183594 33.894531 23.472656 33.882812 C 23.773438 33.867188 24.035156 33.726562 24.035156 33.726562 C 24.035156 33.726562 24.109375 33.703125 24.140625 33.777344 C 24.171875 33.859375 24.082031 33.894531 24.082031 33.894531 C 24.082031 33.894531 23.800781 34.046875 23.363281 34.054688 C 23.019531 34.058594 22.644531 33.980469 22.515625 33.738281 C 22.5 33.710938 22.5 33.652344 22.5 33.652344 C 22.414062 33.691406 22.398438 33.824219 22.46875 33.890625 C 22.535156 33.960938 22.519531 34.035156 22.519531 34.035156 L 22.519531 36.78125 L 20.859375 41.097656 C 21.328125 41.671875 22.035156 42.324219 22.609375 42.660156 Z M 22.609375 42.660156 "/>
<path fill-rule="evenodd" fill="rgb(100%, 100%, 100%)" fill-opacity="1" d="M 24.457031 39.273438 C 24.515625 39.265625 24.558594 39.226562 24.558594 39.167969 C 24.558594 39.109375 24.515625 39.058594 24.457031 39.058594 C 23.507812 39.179688 22.804688 39.554688 22.804688 39.996094 C 22.804688 40.53125 23.835938 40.96875 25.109375 40.96875 C 26.386719 40.96875 27.417969 40.53125 27.417969 39.996094 C 27.417969 39.835938 27.328125 39.6875 27.167969 39.554688 L 27.316406 39.207031 C 27.808594 39.441406 28.023438 39.707031 28.023438 40.015625 C 28.023438 40.644531 26.886719 41.164062 25.414062 41.226562 C 25.355469 41.226562 25.308594 41.277344 25.308594 41.332031 C 25.308594 41.390625 25.355469 41.4375 25.414062 41.4375 C 26.503906 41.382812 27.464844 41.0625 27.875 40.703125 L 27.105469 43.984375 C 25.769531 43.996094 24.183594 43.652344 22.867188 42.816406 L 22.347656 40.710938 C 22.886719 41.105469 23.613281 41.304688 24.292969 41.394531 C 24.355469 41.398438 24.398438 41.347656 24.398438 41.289062 C 24.398438 41.234375 24.359375 41.191406 24.296875 41.183594 C 23.070312 41.039062 22.171875 40.566406 22.171875 40.007812 C 22.171875 39.332031 23.476562 38.757812 25.304688 38.789062 L 25.320312 40.742188 C 25.253906 40.742188 25.179688 40.746094 25.105469 40.746094 C 23.960938 40.746094 23.027344 40.40625 23.027344 39.992188 C 23.027344 39.65625 23.625 39.371094 24.457031 39.273438 Z M 24.457031 39.273438 "/>
<path fill-rule="evenodd" fill="rgb(100%, 100%, 100%)" fill-opacity="1" d="M 25.503906 40.730469 L 25.421875 34.148438 L 25.089844 34.25 L 25.0625 31.101562 L 24.65625 31.230469 L 24.621094 28.152344 C 24.621094 28.152344 25.003906 28.019531 25.734375 27.890625 L 25.5 30.199219 L 25.960938 30.050781 L 25.617188 33.496094 L 26.46875 33.214844 L 25.726562 40.710938 C 25.652344 40.71875 25.578125 40.726562 25.503906 40.730469 Z M 20.257812 35.339844 L 20.257812 34.738281 C 20.445312 34.902344 20.675781 34.917969 20.675781 34.917969 C 20.722656 34.917969 20.792969 34.867188 20.792969 34.796875 C 20.796875 34.730469 20.746094 34.683594 20.679688 34.679688 C 20.679688 34.679688 20.445312 34.664062 20.257812 34.5 L 20.257812 33.90625 C 20.445312 34.066406 20.675781 34.082031 20.675781 34.082031 C 20.722656 34.085938 20.792969 34.035156 20.792969 33.964844 C 20.796875 33.898438 20.746094 33.851562 20.679688 33.84375 C 20.679688 33.84375 20.445312 33.828125 20.257812 33.667969 L 20.257812 33.074219 C 20.445312 33.234375 20.675781 33.25 20.675781 33.25 C 20.722656 33.253906 20.792969 33.203125 20.792969 33.128906 C 20.796875 33.0625 20.746094 33.015625 20.679688 33.011719 C 20.679688 33.011719 20.445312 32.996094 20.257812 32.835938 L 20.257812 32.148438 C 20.257812 32.148438 20.269531 32.09375 20.3125 32.132812 C 20.355469 32.167969 20.371094 32.1875 20.449219 32.222656 C 20.578125 32.28125 20.742188 32.3125 20.9375 32.316406 C 21.195312 32.324219 21.386719 32.289062 21.59375 32.195312 C 21.628906 32.179688 21.652344 32.136719 21.640625 32.101562 C 21.632812 32.070312 21.613281 32.046875 21.585938 32.039062 C 21.535156 32.019531 21.488281 32.054688 21.40625 32.085938 C 21.25 32.140625 21.082031 32.164062 20.917969 32.148438 C 20.722656 32.132812 20.4375 32.089844 20.4375 31.996094 C 20.433594 31.925781 20.582031 31.867188 20.71875 31.820312 C 20.898438 31.765625 21.160156 31.75 21.34375 31.75 C 21.652344 31.753906 21.910156 31.773438 21.910156 31.925781 C 21.914062 32.011719 21.828125 32.019531 21.800781 32.097656 C 21.792969 32.121094 21.785156 32.167969 21.785156 32.167969 L 21.78125 38 L 20.679688 40.871094 C 20.679688 40.871094 20.402344 40.523438 20.257812 40.296875 L 20.257812 39.738281 C 20.445312 39.902344 20.675781 39.917969 20.675781 39.917969 C 20.722656 39.921875 20.792969 39.867188 20.792969 39.796875 C 20.796875 39.730469 20.742188 39.683594 20.679688 39.679688 C 20.679688 39.679688 20.445312 39.664062 20.257812 39.5 L 20.257812 38.90625 C 20.445312 39.066406 20.675781 39.082031 20.675781 39.082031 C 20.722656 39.085938 20.792969 39.035156 20.792969 38.964844 C 20.796875 38.898438 20.742188 38.851562 20.679688 38.84375 C 20.679688 38.84375 20.445312 38.828125 20.257812 38.667969 L 20.257812 38.074219 C 20.445312 38.234375 20.675781 38.25 20.675781 38.25 C 20.722656 38.253906 20.792969 38.203125 20.792969 38.128906 C 20.796875 38.0625 20.742188 38.015625 20.679688 38.011719 C 20.679688 38.011719 20.445312 38 20.257812 37.835938 L 20.257812 37.238281 C 20.445312 37.402344 20.675781 37.417969 20.675781 37.417969 C 20.722656 37.417969 20.792969 37.367188 20.792969 37.296875 C 20.796875 37.230469 20.742188 37.183594 20.679688 37.179688 C 20.679688 37.179688 20.445312 37.164062 20.257812 37 L 20.257812 36.40625 C 20.445312 36.566406 20.675781 36.582031 20.675781 36.582031 C 20.722656 36.585938 20.792969 36.535156 20.792969 36.464844 C 20.796875 36.398438 20.742188 36.351562 20.679688 36.34375 C 20.679688 36.34375 20.445312 36.328125 20.257812 36.167969 L 20.257812 35.574219 C 20.445312 35.734375 20.675781 35.75 20.675781 35.75 C 20.722656 35.753906 20.792969 35.703125 20.792969 35.628906 C 20.796875 35.5625 20.742188 35.515625 20.679688 35.511719 C 20.679688 35.511719 20.445312 35.5 20.257812 35.339844 Z M 20.257812 35.339844 "/>
<path fill-rule="evenodd" fill="rgb(0%, 0%, 0%)" fill-opacity="1" d="M 16.828125 12.714844 C 16.480469 12.074219 16.101562 11.519531 16.28125 10.441406 C 16.441406 9.460938 17.121094 9.125 17.449219 7.347656 C 17.679688 7.375 17.996094 8.441406 17.996094 8.441406 C 17.996094 8.441406 18.039062 6.929688 17.269531 6.511719 C 17.269531 6.511719 17.371094 7.304688 17.058594 8.082031 C 16.730469 8.902344 16 9.632812 15.832031 10.394531 C 15.832031 10.394531 15.625 12.125 16.828125 12.714844 Z M 16.828125 12.714844 "/>
<path fill-rule="evenodd" fill="rgb(0%, 0%, 0%)" fill-opacity="1" d="M 16.964844 10.867188 C 16.964844 10.867188 16.753906 9.832031 17.804688 9.355469 C 18.496094 9.046875 18.765625 8.808594 19.1875 8.21875 C 19.1875 8.21875 19.09375 9.113281 19.28125 9.703125 C 19.472656 10.292969 19.777344 10.996094 19.292969 11.757812 C 19.292969 11.757812 19.441406 10.894531 19.199219 10.476562 C 18.957031 10.058594 18.839844 9.972656 18.785156 9.355469 C 18.785156 9.355469 18.484375 9.605469 17.996094 9.730469 C 17.078125 9.960938 16.964844 10.867188 16.964844 10.867188 Z M 16.964844 10.867188 "/>
<path fill-rule="evenodd" fill="rgb(0%, 0%, 0%)" fill-opacity="1" d="M 18.480469 7.378906 C 18.753906 6.992188 19.550781 6.097656 19.332031 4.167969 C 19.675781 5.105469 20.738281 6.316406 20.285156 8.023438 C 20.285156 8.023438 20.691406 8.066406 21.140625 7.460938 C 21.140625 7.460938 21 7.902344 20.980469 8.890625 C 20.96875 9.511719 20.84375 10.996094 19.976562 11.714844 C 19.976562 11.714844 20.84375 10.128906 20.71875 8.339844 C 20.71875 8.339844 20.222656 8.792969 19.785156 8.644531 C 19.785156 8.644531 20.527344 7.222656 19.585938 5.53125 C 19.585938 5.53125 19.558594 6.714844 18.480469 7.378906 Z M 18.480469 7.378906 "/>
<path fill-rule="evenodd" fill="rgb(100%, 100%, 100%)" fill-opacity="1" d="M 31.839844 23.75 C 31.691406 23.46875 31.511719 23.234375 31.308594 23.101562 C 31.175781 23.191406 31.058594 23.3125 30.957031 23.433594 C 31.257812 23.527344 31.550781 23.632812 31.839844 23.75 Z M 20.496094 16.300781 C 20.1875 16.175781 19.886719 16.078125 19.695312 16.09375 C 19.507812 16.109375 18.9375 16.480469 18.644531 16.652344 C 18.515625 16.726562 18.3125 16.773438 18.117188 16.847656 C 17.96875 16.921875 17.722656 17.050781 17.617188 17.398438 C 17.523438 17.859375 17.785156 17.757812 17.632812 18.304688 C 17.5 18.652344 17.640625 18.863281 17.957031 19.136719 C 18.125 19.316406 17.828125 19.605469 18.054688 19.894531 C 18.1875 20.074219 18.472656 20.125 18.492188 20.332031 C 18.507812 20.683594 18.40625 20.867188 18.726562 21.058594 C 19.136719 21.367188 19.351562 21.425781 20.035156 21.511719 C 20.046875 21.511719 19.914062 21.402344 19.828125 21.304688 C 19.78125 21.207031 19.652344 21.011719 19.902344 20.886719 C 20.136719 20.773438 20.417969 20.648438 20.777344 20.34375 C 21.246094 20.179688 21.523438 20.078125 21.589844 19.847656 C 21.636719 19.703125 21.566406 19.546875 21.429688 19.484375 C 21.171875 19.433594 20.65625 19.574219 20.484375 19.625 C 20.339844 19.667969 19.808594 19.960938 19.546875 20.121094 C 19.199219 20.335938 18.992188 19.839844 19.296875 19.828125 C 19.578125 19.714844 19.972656 19.503906 20.441406 19.246094 C 20.574219 19.179688 20.820312 19.183594 20.980469 19.167969 C 21.242188 19.144531 21.433594 19.152344 21.503906 19.074219 C 21.59375 18.988281 21.585938 18.707031 21.476562 18.605469 C 21.21875 18.460938 20.828125 18.503906 20.363281 18.453125 C 19.996094 18.484375 19.660156 18.757812 19.003906 19.035156 C 18.8125 19.066406 18.589844 18.707031 18.929688 18.648438 C 19.171875 18.609375 19.492188 18.378906 20.226562 18.078125 C 20.414062 18 20.765625 18.148438 21.09375 18.1875 C 21.199219 18.203125 21.324219 18.230469 21.40625 18.203125 C 21.597656 18.074219 21.519531 17.761719 21.464844 17.691406 C 21.273438 17.429688 20.402344 17.339844 20.160156 17.289062 C 19.910156 17.234375 19.171875 17.695312 18.996094 17.765625 C 18.914062 17.800781 18.867188 17.832031 18.738281 17.851562 C 18.644531 17.835938 18.496094 17.605469 18.839844 17.492188 C 19.351562 17.308594 19.75 16.964844 19.996094 16.914062 C 20.039062 16.902344 20.085938 16.90625 20.175781 16.925781 C 20.21875 16.675781 20.496094 16.300781 20.496094 16.300781 Z M 21.121094 24.867188 L 21.015625 24.542969 C 20.097656 25.027344 19.246094 25.625 18.472656 26.316406 C 18.355469 26.570312 18.246094 26.734375 18.167969 26.828125 C 18.03125 26.992188 17.847656 26.984375 17.847656 26.984375 C 17.847656 26.984375 18.511719 25.933594 18.609375 24.601562 C 18.707031 23.367188 18.410156 22.589844 18.410156 22.589844 C 18.410156 22.589844 17.679688 23.257812 17.34375 24.605469 C 17.082031 25.652344 17.292969 26.648438 17.367188 26.894531 C 17.542969 27.136719 17.703125 27.339844 17.792969 27.453125 C 18.75 26.410156 19.875 25.535156 21.121094 24.867188 Z M 21.121094 24.867188 "/>
<path fill-rule="evenodd" fill="rgb(100%, 100%, 100%)" fill-opacity="1" d="M 22.4375 24.257812 C 22.320312 23.765625 21.5625 20.277344 21.5625 20.277344 C 21.421875 20.40625 20.976562 20.59375 20.855469 20.632812 C 20.535156 20.875 20.542969 20.859375 20.179688 21.058594 C 20.179688 21.058594 21.125 24.027344 21.351562 24.742188 C 21.703125 24.5625 22.066406 24.402344 22.4375 24.257812 Z M 36.679688 23.925781 C 36.785156 23.507812 36.894531 23.203125 36.957031 23.046875 C 35.363281 23.117188 34.257812 22.652344 33.675781 22.640625 C 32.785156 22.617188 32.097656 22.785156 31.699219 23 C 31.921875 23.257812 32.113281 23.46875 32.292969 23.941406 C 32.3125 23.949219 32.328125 23.957031 32.347656 23.964844 C 33.855469 23.386719 35.039062 23.90625 36.679688 23.925781 Z M 36.679688 23.925781 "/>
<path fill-rule="evenodd" fill="rgb(100%, 100%, 100%)" fill-opacity="1" d="M 37.035156 23.921875 C 36.925781 24.230469 36.753906 24.84375 36.742188 25.683594 C 36.726562 27.019531 37.296875 28.125 37.296875 28.125 C 37.296875 28.125 37.109375 28.117188 36.992188 27.941406 C 36.933594 27.855469 36.882812 27.765625 36.839844 27.671875 C 35.640625 26.234375 34.140625 25.074219 32.445312 24.277344 C 32.339844 24.3125 32.226562 24.355469 32.113281 24.402344 C 32.078125 24.292969 32.039062 24.183594 31.996094 24.078125 C 31.605469 23.910156 31.203125 23.765625 30.800781 23.636719 C 30.722656 23.746094 30.664062 23.847656 30.617188 23.929688 C 33.320312 24.746094 35.636719 26.457031 37.21875 28.71875 C 37.300781 28.625 37.539062 28.351562 37.785156 28.078125 C 37.878906 27.839844 38.175781 26.867188 38.003906 25.800781 C 37.855469 24.851562 37.492188 24.214844 37.277344 23.90625 C 37.183594 23.769531 37.117188 23.699219 37.117188 23.699219 C 37.117188 23.699219 37.085938 23.773438 37.035156 23.921875 Z M 23.035156 19.417969 C 22.992188 19.492188 22.941406 19.5625 22.886719 19.625 C 22.710938 19.804688 22.480469 19.738281 22.652344 19.53125 C 22.867188 19.273438 23.105469 18.816406 23.039062 18.367188 C 22.921875 17.585938 22.882812 16.921875 22.625 16.617188 C 22.421875 16.378906 22.121094 16.003906 21.878906 15.695312 C 21.757812 15.542969 21.273438 15.46875 21.109375 15.789062 C 21.003906 16.007812 20.894531 16.277344 20.53125 16.75 C 20.359375 16.976562 20.5625 17.054688 20.742188 17.121094 C 21.28125 17.320312 21.578125 16.996094 21.664062 16.882812 C 21.75 16.769531 21.867188 17.011719 21.699219 17.234375 C 21.6875 17.25 21.585938 17.332031 21.585938 17.332031 C 21.371094 17.476562 21.34375 17.308594 21.542969 17.417969 C 21.636719 17.476562 21.785156 17.675781 21.777344 17.949219 C 21.769531 18.066406 21.761719 18.242188 21.609375 18.378906 C 21.714844 18.472656 21.835938 18.644531 21.8125 18.851562 C 21.808594 19.050781 21.777344 19.210938 21.621094 19.289062 C 21.8125 19.414062 21.90625 19.777344 21.792969 20.007812 L 21.953125 20.730469 C 21.984375 20.695312 22.011719 20.660156 22.039062 20.625 C 22.214844 20.371094 22.257812 20.242188 22.355469 20.289062 C 22.421875 20.476562 22.296875 20.808594 22.019531 21.054688 C 22.019531 21.054688 22.519531 23.378906 22.695312 24.15625 C 23.585938 23.828125 24.511719 23.605469 25.457031 23.492188 C 25.195312 23.144531 24.964844 22.863281 24.789062 22.585938 C 24.378906 21.949219 24.039062 21.316406 23.910156 20.9375 C 23.78125 20.558594 23.691406 20.226562 23.074219 19.472656 C 23.058594 19.457031 23.046875 19.4375 23.035156 19.417969 Z M 23.035156 19.417969 "/>
<path fill-rule="evenodd" fill="rgb(100%, 100%, 100%)" fill-opacity="1" d="M 23.894531 20.117188 C 23.792969 19.085938 23.496094 16.203125 23.210938 14.121094 C 23.210938 14.121094 22.996094 14.324219 22.796875 14.457031 C 22.535156 14.628906 22.277344 14.746094 22.277344 14.746094 C 22.277344 14.746094 22.390625 15.40625 22.527344 16.046875 C 22.691406 16.25 22.824219 16.40625 22.824219 16.40625 C 23.136719 16.746094 23.1875 17.292969 23.269531 18.082031 C 23.300781 18.363281 23.324219 18.675781 23.257812 18.925781 C 23.238281 18.992188 23.21875 19.050781 23.195312 19.113281 C 23.378906 19.464844 23.660156 19.707031 23.894531 20.117188 Z M 25.460938 23.015625 C 25.566406 23.15625 25.679688 23.300781 25.796875 23.453125 C 26.199219 23.414062 26.601562 23.398438 27.003906 23.398438 C 28.148438 23.398438 29.25 23.550781 30.304688 23.839844 C 30.425781 23.625 30.554688 23.300781 30.933594 23.007812 C 30.9375 23.011719 30.246094 22.6875 29.359375 22.703125 C 28.28125 22.726562 27.082031 23.007812 26.238281 23.007812 C 25.710938 23.007812 25.585938 23.019531 25.460938 23.015625 Z M 38.578125 22.699219 C 38.570312 22.304688 38.597656 21.90625 38.652344 21.515625 C 38.40625 20.691406 38.175781 19.859375 37.964844 19.023438 C 37.390625 17.039062 36.992188 14.691406 36.992188 14.691406 C 36.992188 14.691406 36.617188 14.6875 36.414062 14.523438 C 36.414062 14.523438 37.371094 18.929688 38.414062 22.523438 C 38.417969 22.535156 38.484375 22.605469 38.578125 22.699219 Z M 38.578125 22.699219 "/>
<path fill-rule="evenodd" fill="rgb(0%, 0%, 0%)" fill-opacity="1" d="M 17.089844 27.464844 C 16.785156 27.261719 14.71875 26.769531 14.703125 26.867188 C 14.6875 26.960938 14.792969 27.050781 14.9375 27.097656 C 15.425781 27.265625 16.296875 27.589844 17.089844 27.464844 Z M 17.609375 26.867188 C 17.550781 26.523438 17.917969 24.539062 18.011719 24.5625 C 18.101562 24.585938 18.136719 24.710938 18.121094 24.855469 C 18.078125 25.34375 18.023438 26.226562 17.609375 26.867188 Z M 24.335938 15.125 L 24.644531 17.308594 C 24.644531 17.308594 25.140625 17.460938 25.664062 17.484375 C 26.1875 17.511719 26.515625 17.359375 26.515625 17.359375 L 26.140625 15.1875 C 26.140625 15.1875 25.804688 15.230469 25.394531 15.214844 C 24.71875 15.191406 24.335938 15.125 24.335938 15.125 Z M 24.078125 14.855469 C 24.078125 14.855469 24.550781 14.96875 25.386719 14.972656 C 25.894531 14.972656 26.304688 14.9375 26.304688 14.9375 L 26.777344 17.605469 C 26.777344 17.605469 26.359375 17.792969 25.714844 17.765625 C 25.070312 17.734375 24.464844 17.5625 24.464844 17.5625 Z M 26.140625 21.621094 C 26.769531 21.621094 27.925781 21.285156 28.738281 21.242188 C 29.644531 21.195312 30.128906 21.417969 30.269531 21.464844 C 30.449219 21.523438 30.429688 21.746094 30.273438 21.6875 C 30.132812 21.632812 29.621094 21.429688 28.746094 21.480469 C 27.871094 21.527344 26.894531 21.839844 26.316406 21.84375 C 25.792969 21.847656 25.140625 21.777344 24.933594 21.738281 C 24.707031 21.695312 24.765625 21.507812 24.941406 21.53125 C 25.109375 21.550781 25.679688 21.617188 26.140625 21.621094 Z M 26.140625 21.621094 "/>
<path fill-rule="evenodd" fill="rgb(0%, 0%, 0%)" fill-opacity="1" d="M 24.527344 15.398438 C 24.527344 15.398438 24.980469 15.46875 25.324219 15.464844 C 25.613281 15.457031 25.988281 15.457031 25.988281 15.457031 L 26.058594 15.828125 L 25.980469 15.8125 C 25.980469 15.8125 26 15.722656 25.886719 15.699219 C 25.773438 15.675781 25.539062 15.695312 25.539062 15.695312 C 25.539062 15.695312 25.6875 16.796875 25.695312 16.867188 C 25.703125 16.910156 25.703125 16.988281 25.730469 17.023438 C 25.769531 17.074219 25.960938 17.21875 25.960938 17.21875 C 25.960938 17.21875 25.78125 17.265625 25.597656 17.253906 C 25.386719 17.242188 25.222656 17.242188 25.222656 17.242188 C 25.222656 17.242188 25.351562 17.070312 25.378906 17.023438 C 25.40625 16.976562 25.394531 16.898438 25.386719 16.851562 L 25.230469 15.800781 C 25.230469 15.800781 25.238281 15.652344 25.082031 15.671875 C 25.082031 15.671875 24.859375 15.640625 24.773438 15.640625 C 24.683594 15.640625 24.644531 15.84375 24.644531 15.84375 L 24.582031 15.84375 Z M 26.054688 20.507812 C 26.664062 20.519531 27.835938 20.207031 28.628906 20.164062 C 29.511719 20.117188 29.945312 20.3125 30.089844 20.347656 C 30.230469 20.378906 30.226562 20.609375 30.082031 20.574219 C 29.9375 20.539062 29.492188 20.359375 28.640625 20.410156 C 27.789062 20.457031 26.839844 20.738281 26.226562 20.730469 C 25.566406 20.71875 24.96875 20.617188 24.800781 20.566406 C 24.578125 20.5 24.640625 20.304688 24.804688 20.359375 C 24.980469 20.414062 25.496094 20.496094 26.054688 20.507812 Z M 25.828125 18.34375 C 26.414062 18.367188 27.550781 18.078125 28.316406 18.046875 C 29.171875 18.015625 29.628906 18.226562 29.765625 18.265625 C 29.902344 18.300781 29.894531 18.527344 29.753906 18.492188 C 29.617188 18.453125 29.148438 18.257812 28.328125 18.292969 C 27.503906 18.324219 26.582031 18.589844 25.988281 18.570312 C 25.351562 18.546875 24.757812 18.421875 24.597656 18.367188 C 24.386719 18.296875 24.449219 18.101562 24.605469 18.160156 C 24.777344 18.21875 25.285156 18.324219 25.828125 18.34375 Z M 26.867188 16.007812 C 27.332031 15.964844 27.671875 15.914062 28.058594 15.925781 C 28.914062 15.953125 29.316406 16.1875 29.449219 16.230469 C 29.585938 16.277344 29.5625 16.503906 29.425781 16.457031 C 29.289062 16.410156 28.875 16.195312 28.050781 16.171875 C 27.628906 16.160156 27.328125 16.207031 26.910156 16.246094 C 26.910156 16.246094 26.769531 16.269531 26.753906 16.144531 C 26.738281 16.015625 26.867188 16.007812 26.867188 16.007812 Z M 26.671875 14.917969 C 27.128906 14.878906 27.460938 14.832031 27.863281 14.851562 C 28.679688 14.886719 29.0625 15.125 29.191406 15.171875 C 29.316406 15.21875 29.289062 15.449219 29.160156 15.398438 C 29.03125 15.347656 28.640625 15.128906 27.847656 15.09375 C 27.410156 15.074219 27.125 15.121094 26.714844 15.15625 C 26.714844 15.15625 26.589844 15.164062 26.574219 15.066406 C 26.550781 14.925781 26.671875 14.917969 26.671875 14.917969 Z M 36.347656 21.605469 C 35.058594 21.511719 34.308594 21.214844 33.4375 21.179688 C 32.558594 21.144531 31.984375 21.386719 31.839844 21.433594 C 31.660156 21.488281 31.738281 21.710938 31.890625 21.65625 C 32.035156 21.601562 32.617188 21.390625 33.414062 21.410156 C 34.300781 21.433594 34.863281 21.71875 36.199219 21.804688 C 36.636719 21.835938 37.042969 21.792969 37.25 21.753906 C 37.480469 21.710938 37.417969 21.523438 37.242188 21.546875 C 37.074219 21.570312 36.746094 21.632812 36.347656 21.605469 Z M 36.101562 20.578125 C 34.824219 20.484375 34.078125 20.191406 33.21875 20.15625 C 32.351562 20.121094 31.78125 20.359375 31.636719 20.40625 C 31.457031 20.464844 31.535156 20.6875 31.6875 20.628906 C 31.832031 20.574219 32.40625 20.363281 33.195312 20.386719 C 34.070312 20.410156 34.628906 20.691406 35.953125 20.78125 C 36.386719 20.808594 36.785156 20.769531 36.992188 20.730469 C 37.21875 20.6875 37.160156 20.5 36.984375 20.523438 C 36.816406 20.542969 36.492188 20.609375 36.101562 20.578125 Z M 35.601562 18.523438 C 34.355469 18.410156 33.628906 18.101562 32.785156 18.050781 C 31.9375 18 31.375 18.234375 31.234375 18.277344 C 31.058594 18.332031 31.128906 18.554688 31.277344 18.5 C 31.417969 18.449219 31.988281 18.246094 32.761719 18.28125 C 33.617188 18.320312 34.160156 18.613281 35.453125 18.722656 C 35.878906 18.761719 36.273438 18.726562 36.472656 18.691406 C 36.699219 18.652344 36.640625 18.464844 36.46875 18.484375 C 36.304688 18.503906 35.984375 18.5625 35.601562 18.523438 Z M 35.085938 16.363281 C 33.867188 16.25 33.160156 15.941406 32.339844 15.890625 C 31.511719 15.839844 30.964844 16.070312 30.824219 16.117188 C 30.652344 16.167969 30.722656 16.394531 30.871094 16.339844 C 31.007812 16.289062 31.5625 16.085938 32.316406 16.121094 C 33.152344 16.160156 33.675781 16.453125 34.9375 16.5625 C 35.351562 16.597656 35.738281 16.5625 35.933594 16.53125 C 36.152344 16.488281 36.097656 16.300781 35.929688 16.320312 C 35.769531 16.339844 35.457031 16.398438 35.085938 16.363281 Z M 34.839844 15.28125 C 33.640625 15.167969 32.941406 14.859375 32.132812 14.8125 C 31.316406 14.761719 30.777344 14.992188 30.644531 15.039062 C 30.472656 15.09375 30.539062 15.316406 30.683594 15.261719 C 30.820312 15.210938 31.367188 15.007812 32.109375 15.042969 C 32.933594 15.078125 33.449219 15.371094 34.695312 15.480469 C 35.101562 15.519531 35.480469 15.484375 35.671875 15.449219 C 35.890625 15.410156 35.835938 15.21875 35.667969 15.242188 C 35.511719 15.257812 35.207031 15.316406 34.839844 15.28125 Z M 25.886719 19.410156 C 26.492188 19.433594 27.664062 19.140625 28.453125 19.109375 C 29.328125 19.078125 29.761719 19.28125 29.902344 19.316406 C 30.042969 19.355469 30.035156 19.582031 29.890625 19.542969 C 29.746094 19.507812 29.308594 19.320312 28.460938 19.355469 C 27.613281 19.390625 26.664062 19.65625 26.050781 19.632812 C 25.394531 19.613281 24.871094 19.484375 24.703125 19.433594 C 24.488281 19.363281 24.554688 19.167969 24.714844 19.222656 C 24.890625 19.285156 25.328125 19.390625 25.886719 19.410156 Z M 27.058594 17.089844 C 27.5 17.035156 27.75 16.972656 28.160156 16.984375 C 29.058594 17.011719 29.480469 17.246094 29.621094 17.289062 C 29.761719 17.335938 29.738281 17.5625 29.59375 17.515625 C 29.449219 17.46875 29.019531 17.253906 28.152344 17.230469 C 27.707031 17.21875 27.496094 17.277344 27.101562 17.332031 C 27.101562 17.332031 26.953125 17.359375 26.9375 17.234375 C 26.917969 17.105469 27.058594 17.089844 27.058594 17.089844 Z M 35.355469 17.445312 C 34.121094 17.328125 33.402344 17.023438 32.566406 16.972656 C 31.726562 16.921875 31.171875 17.152344 31.03125 17.195312 C 30.855469 17.25 30.925781 17.476562 31.074219 17.421875 C 31.214844 17.367188 31.777344 17.167969 32.542969 17.199219 C 33.390625 17.238281 33.925781 17.53125 35.207031 17.644531 C 35.628906 17.679688 36.015625 17.644531 36.214844 17.609375 C 36.4375 17.570312 36.382812 17.382812 36.210938 17.402344 C 36.050781 17.421875 35.734375 17.480469 35.355469 17.445312 Z M 35.84375 19.554688 C 34.589844 19.460938 33.851562 19.164062 33.003906 19.128906 C 32.148438 19.09375 31.589844 19.335938 31.449219 19.382812 C 31.273438 19.4375 31.347656 19.664062 31.496094 19.605469 C 31.636719 19.550781 32.207031 19.339844 32.984375 19.359375 C 33.847656 19.382812 34.394531 19.667969 35.699219 19.753906 C 36.125 19.785156 36.519531 19.742188 36.722656 19.703125 C 36.949219 19.660156 36.886719 19.472656 36.714844 19.496094 C 36.550781 19.519531 36.230469 19.582031 35.84375 19.554688 Z M 37.546875 28.027344 C 37.632812 27.691406 37.4375 25.683594 37.34375 25.699219 C 37.253906 25.714844 37.207031 25.835938 37.207031 25.984375 C 37.210938 26.472656 37.183594 27.355469 37.546875 28.027344 Z M 39.816406 25.195312 C 39.875 24.847656 39.503906 22.867188 39.414062 22.890625 C 39.324219 22.914062 39.289062 23.039062 39.304688 23.183594 C 39.347656 23.671875 39.398438 24.554688 39.816406 25.195312 Z M 38.007812 28.671875 C 38.332031 28.496094 40.429688 28.183594 40.4375 28.28125 C 40.445312 28.378906 40.332031 28.457031 40.183594 28.492188 C 39.683594 28.617188 38.789062 28.867188 38.007812 28.671875 Z M 38.007812 28.671875 "/>
<path fill-rule="evenodd" fill="rgb(100%, 100%, 100%)" fill-opacity="1" d="M 20.359375 14.910156 C 20.070312 14.9375 19.699219 15.011719 19.328125 15.121094 C 18.964844 15.222656 18.640625 15.347656 18.382812 15.472656 L 18.644531 16.289062 C 19.171875 15.953125 19.601562 15.773438 19.792969 15.789062 C 20.023438 15.804688 20.449219 15.960938 20.59375 16.03125 C 20.601562 16.023438 20.605469 16.015625 20.609375 16.011719 Z M 20.445312 14.542969 C 20.203125 14.390625 19.992188 13.953125 19.925781 13.363281 C 19.855469 12.769531 19.976562 12.414062 20.195312 12.304688 C 19.917969 12.242188 19.441406 12.292969 18.835938 12.445312 C 19.195312 12.492188 19.628906 12.859375 19.789062 13.390625 C 19.945312 13.90625 19.839844 14.40625 19.554688 14.667969 C 19.929688 14.578125 20.183594 14.546875 20.445312 14.542969 Z M 17.90625 13.988281 C 18.125 14.539062 18.117188 15.011719 17.988281 15.277344 C 18.207031 15.136719 18.519531 14.992188 18.894531 14.863281 C 17.652344 14.453125 17.765625 12.917969 18.203125 12.632812 C 17.65625 12.8125 17.328125 13 17.132812 13.179688 C 17.378906 13.199219 17.6875 13.441406 17.90625 13.988281 Z M 17.90625 13.988281 "/>
<path fill-rule="evenodd" fill="rgb(100%, 100%, 100%)" fill-opacity="1" d="M 18.171875 13.863281 C 18.011719 13.332031 18.179688 12.820312 18.550781 12.71875 C 18.917969 12.621094 19.347656 12.96875 19.507812 13.5 C 19.667969 14.027344 19.496094 14.539062 19.128906 14.640625 C 18.761719 14.742188 18.332031 14.390625 18.171875 13.863281 Z M 20.925781 13.3125 C 20.894531 13.121094 20.804688 13.007812 20.738281 13.027344 C 20.667969 13.046875 20.589844 13.183594 20.621094 13.375 C 20.652344 13.566406 20.734375 13.726562 20.875 13.699219 C 20.925781 13.6875 20.957031 13.5 20.925781 13.3125 Z M 17.148438 14.914062 C 17.1875 14.921875 17.222656 14.917969 17.257812 14.90625 C 17.449219 14.847656 17.484375 14.597656 17.40625 14.308594 C 17.34375 14.070312 17.128906 13.824219 16.9375 13.882812 C 16.902344 13.894531 16.855469 13.925781 16.84375 13.953125 C 16.832031 13.671875 16.882812 13.476562 17.015625 13.433594 C 17.214844 13.367188 17.539062 13.707031 17.714844 14.253906 C 17.894531 14.796875 17.882812 15.191406 17.683594 15.253906 C 17.542969 15.300781 17.332031 15.175781 17.148438 14.914062 Z M 17.148438 14.914062 "/>
<path fill-rule="evenodd" fill="rgb(100%, 100%, 100%)" fill-opacity="1" d="M 16.886719 14.507812 C 16.839844 14.390625 16.828125 14.277344 16.847656 14.199219 C 16.859375 14.15625 16.878906 14.121094 16.910156 14.101562 C 17 14.046875 17.128906 14.148438 17.199219 14.328125 C 17.269531 14.507812 17.28125 14.691406 17.1875 14.738281 C 17.0625 14.796875 16.933594 14.628906 16.886719 14.507812 Z M 20.90625 13.867188 C 20.886719 14.136719 20.808594 14.335938 20.6875 14.359375 C 20.507812 14.390625 20.285156 14.003906 20.191406 13.472656 C 20.097656 12.945312 20.179688 12.523438 20.359375 12.492188 C 20.476562 12.472656 20.621094 12.617188 20.722656 12.859375 C 20.691406 12.855469 20.65625 12.855469 20.625 12.859375 C 20.425781 12.890625 20.347656 13.125 20.40625 13.414062 C 20.460938 13.707031 20.621094 13.921875 20.820312 13.890625 C 20.84375 13.886719 20.886719 13.878906 20.90625 13.867188 Z M 20.90625 13.867188 "/>
<path fill-rule="evenodd" fill="rgb(0%, 0%, 0%)" fill-opacity="1" d="M 18.378906 13.832031 C 18.503906 14.191406 18.785156 14.300781 18.988281 14.207031 C 19.195312 14.113281 19.257812 13.796875 19.121094 13.496094 C 18.964844 13.152344 18.710938 13.097656 18.523438 13.183594 C 18.371094 13.253906 18.269531 13.523438 18.378906 13.832031 Z M 18.378906 13.832031 "/>
<path fill-rule="evenodd" fill="rgb(100%, 100%, 100%)" fill-opacity="1" d="M 18.539062 13.8125 C 18.464844 13.617188 18.503906 13.417969 18.625 13.359375 C 18.75 13.304688 18.910156 13.414062 18.988281 13.605469 C 19.0625 13.796875 19.023438 14 18.902344 14.058594 C 18.777344 14.113281 18.613281 14.003906 18.539062 13.8125 Z M 18.539062 13.8125 "/>
</svg>
