<?xml version="1.0" encoding="UTF-8"?>
<svg xmlns="http://www.w3.org/2000/svg" xmlns:xlink="http://www.w3.org/1999/xlink" width="277.808633" height="55" viewBox="0 0 277.808633 55">
<path fill-rule="nonzero" fill="rgb(0%, 0%, 0%)" fill-opacity="1" d="M 69.285156 0 L 77.71875 0 C 77.71875 15.207031 77.71875 30.40625 77.71875 45.601562 C 77.738281 45.941406 77.71875 46.335938 77.945312 46.617188 C 78.25 46.933594 78.726562 46.902344 79.132812 46.925781 L 84.316406 46.925781 C 84.316406 49.25 84.316406 51.574219 84.316406 53.898438 L 75.949219 53.898438 C 74.171875 53.886719 72.261719 53.382812 71.058594 51.992188 C 69.636719 50.347656 69.332031 48.066406 69.285156 45.960938 C 69.285156 30.640625 69.285156 15.320312 69.285156 0 Z M 69.285156 0 "/>
<path fill-rule="nonzero" fill="rgb(0%, 0%, 0%)" fill-opacity="1" d="M 6.375 5.867188 C 9.015625 5.867188 11.65625 5.867188 14.300781 5.867188 C 14.300781 8.800781 14.300781 11.734375 14.300781 14.667969 C 17.113281 14.667969 19.925781 14.667969 22.738281 14.667969 L 22.738281 21.132812 C 19.925781 21.132812 17.113281 21.132812 14.304688 21.132812 C 14.304688 29.289062 14.292969 37.445312 14.304688 45.601562 C 14.269531 46.242188 14.726562 46.921875 15.414062 46.921875 C 17.851562 46.957031 20.292969 46.921875 22.730469 46.9375 L 22.730469 53.910156 C 19.355469 53.910156 15.980469 53.910156 12.601562 53.910156 C 10.871094 53.902344 9.066406 53.324219 7.875 52.027344 C 6.289062 50.304688 5.882812 47.863281 5.851562 45.605469 C 5.847656 37.445312 5.847656 29.285156 5.855469 21.125 L 0 21.125 C 0 18.972656 0 16.820312 0 14.667969 L 5.859375 14.667969 C 6.03125 11.734375 6.203125 8.800781 6.375 5.867188 Z M 6.375 5.867188 "/>
<path fill-rule="nonzero" fill="rgb(0%, 0%, 0%)" fill-opacity="1" d="M 138.445312 17.25 C 143.304688 13.621094 149.882812 12.710938 155.667969 14.304688 C 159.488281 15.359375 162.832031 17.886719 165.046875 21.152344 C 166.035156 22.605469 166.847656 24.167969 167.46875 25.8125 C 165.121094 26.816406 162.769531 27.820312 160.417969 28.828125 C 159.410156 26.554688 157.957031 24.394531 155.871094 22.984375 C 153.261719 21.199219 149.835938 20.859375 146.839844 21.710938 C 144.316406 22.445312 142.167969 24.113281 140.828125 26.371094 C 139.058594 29.285156 138.566406 32.824219 138.898438 36.171875 C 139.207031 39.285156 140.453125 42.394531 142.777344 44.554688 C 144.792969 46.421875 147.460938 47.425781 150.207031 47.351562 C 152.726562 47.34375 155.175781 46.539062 157.207031 45.050781 C 158.847656 43.863281 160.199219 42.316406 161.378906 40.683594 C 163.335938 42.003906 165.292969 43.320312 167.253906 44.640625 C 165.722656 47.230469 163.839844 49.675781 161.410156 51.480469 C 159.273438 53.050781 156.804688 54.113281 154.191406 54.578125 C 149.519531 55.4375 144.472656 55.050781 140.265625 52.710938 C 137.617188 51.253906 135.375 49.160156 133.742188 46.617188 C 131.855469 43.730469 130.792969 40.355469 130.472656 36.933594 C 130.09375 32.976562 130.621094 28.917969 132.191406 25.257812 C 133.527344 22.082031 135.6875 19.316406 138.445312 17.25 Z M 138.445312 17.25 "/>
<path fill-rule="nonzero" fill="rgb(0%, 0%, 0%)" fill-opacity="1" d="M 183.316406 15.53125 C 189.804688 12.410156 197.960938 13.011719 203.847656 17.191406 C 207.859375 19.992188 210.671875 24.332031 211.902344 29.039062 C 209.097656 29.050781 206.289062 29.027344 203.480469 29.050781 C 202.445312 26.542969 200.582031 24.363281 198.164062 23.101562 C 194.265625 21.058594 189.285156 21.117188 185.488281 23.386719 C 183.308594 24.714844 181.597656 26.691406 180.589844 29.039062 C 177.800781 29.039062 175.011719 29.039062 172.222656 29.039062 C 173.730469 23.113281 177.796875 18.160156 183.316406 15.53125 Z M 183.316406 15.53125 "/>
<path fill-rule="nonzero" fill="rgb(0%, 0%, 0%)" fill-opacity="1" d="M 234.003906 14.554688 C 236.859375 13.417969 240.007812 13.238281 242.976562 14.042969 C 245.84375 14.816406 248.253906 16.898438 249.628906 19.507812 C 250.265625 20.636719 250.6875 21.878906 251.082031 23.117188 L 251.476562 23.085938 C 252.539062 20.222656 254.253906 17.492188 256.8125 15.75 C 259.722656 13.738281 263.445312 13.246094 266.890625 13.730469 C 269.84375 14.140625 272.648438 15.667969 274.476562 18.039062 C 276.902344 21.125 277.769531 25.148438 277.808594 29.007812 C 277.808594 37.300781 277.808594 45.597656 277.808594 53.902344 L 269.363281 53.902344 C 269.363281 45.917969 269.363281 37.933594 269.363281 29.949219 C 269.324219 27.90625 269.023438 25.78125 267.953125 24 C 267.128906 22.628906 265.792969 21.640625 264.242188 21.253906 C 261.347656 20.539062 258.058594 21.203125 255.851562 23.265625 C 253.441406 25.472656 252.359375 28.824219 252.363281 32.03125 C 252.363281 39.320312 252.363281 46.609375 252.363281 53.898438 L 243.933594 53.898438 C 243.933594 46.035156 243.933594 38.179688 243.933594 30.320312 C 243.917969 28.144531 243.671875 25.863281 242.539062 23.953125 C 241.722656 22.585938 240.386719 21.609375 238.839844 21.234375 C 235.855469 20.535156 232.429688 21.210938 230.230469 23.449219 C 227.96875 25.730469 227.101562 29.066406 227.15625 32.210938 C 227.15625 39.441406 227.15625 46.667969 227.15625 53.890625 C 224.339844 53.890625 221.527344 53.890625 218.710938 53.890625 C 218.710938 40.808594 218.710938 27.730469 218.710938 14.648438 C 221.277344 14.648438 223.847656 14.648438 226.417969 14.648438 C 226.441406 17.121094 226.472656 19.59375 226.488281 22.0625 C 226.894531 22.179688 226.972656 21.730469 227.117188 21.480469 C 228.519531 18.480469 230.886719 15.824219 234.003906 14.554688 Z M 234.003906 14.554688 "/>
<path fill-rule="nonzero" fill="rgb(0%, 0%, 0%)" fill-opacity="1" d="M 33.835938 17.828125 C 37.324219 15.035156 41.695312 13.582031 46.160156 13.722656 C 49.917969 13.796875 53.699219 15.003906 56.636719 17.382812 C 60.210938 20.207031 62.367188 24.542969 63.089844 28.992188 C 63.601562 31.921875 63.382812 34.90625 63.429688 37.863281 C 53.726562 37.871094 44.019531 37.871094 34.3125 37.863281 C 34.644531 40.421875 35.945312 42.753906 37.953125 44.375 C 40.996094 46.863281 45.175781 47.722656 49.011719 47.105469 C 52.40625 46.539062 55.359375 44.53125 57.699219 42.089844 C 59.371094 43.746094 61.027344 45.414062 62.703125 47.066406 C 61.0625 49.148438 59.042969 50.898438 56.75 52.226562 C 50.351562 55.914062 41.976562 55.9375 35.601562 52.179688 C 32.457031 50.355469 29.90625 47.660156 28.25 44.425781 C 26.222656 40.449219 25.640625 35.824219 26.230469 31.417969 C 26.957031 26.164062 29.648438 21.136719 33.835938 17.828125 Z M 38.144531 24.015625 C 35.992188 25.84375 34.617188 28.421875 34.308594 31.226562 C 41.273438 31.238281 48.238281 31.238281 55.207031 31.226562 C 55.128906 28.753906 54.371094 26.21875 52.675781 24.367188 C 51.027344 22.527344 48.570312 21.574219 46.136719 21.449219 C 43.242188 21.238281 40.375 22.160156 38.144531 24.015625 Z M 38.144531 24.015625 "/>
<path fill-rule="nonzero" fill="rgb(0%, 0%, 0%)" fill-opacity="1" d="M 95.8125 16.996094 C 101.351562 13.144531 109.042969 12.59375 115.023438 15.746094 C 118.0625 17.390625 120.511719 19.941406 122.035156 23.042969 C 123.574219 26.101562 124.257812 29.546875 124.277344 32.960938 C 124.277344 34.59375 124.277344 36.226562 124.277344 37.863281 C 114.574219 37.863281 104.871094 37.863281 95.167969 37.863281 C 95.492188 40.433594 96.808594 42.78125 98.832031 44.402344 C 101.878906 46.871094 106.042969 47.726562 109.871094 47.105469 C 113.265625 46.539062 116.210938 44.527344 118.554688 42.097656 C 120.214844 43.761719 121.890625 45.414062 123.550781 47.082031 C 121.941406 49.121094 119.972656 50.839844 117.734375 52.160156 C 111.214844 55.984375 102.582031 55.96875 96.132812 51.988281 C 93.152344 50.171875 90.734375 47.570312 89.140625 44.464844 C 87.191406 40.667969 86.574219 36.269531 87.027344 32.046875 C 87.640625 26.09375 90.828125 20.378906 95.8125 16.996094 Z M 98.71875 24.261719 C 96.722656 26.074219 95.460938 28.554688 95.171875 31.234375 C 102.136719 31.234375 109.101562 31.234375 116.0625 31.234375 C 115.992188 28.636719 115.144531 25.957031 113.273438 24.097656 C 111.550781 22.34375 109.082031 21.503906 106.660156 21.441406 C 103.746094 21.308594 100.894531 22.320312 98.71875 24.261719 Z M 98.71875 24.261719 "/>
<path fill-rule="nonzero" fill="rgb(0%, 0%, 0%)" fill-opacity="1" d="M 171.628906 33.648438 L 179.78125 33.648438 C 179.617188 36.910156 180.6875 40.253906 182.933594 42.660156 C 185.644531 45.617188 189.597656 47.113281 193.585938 46.695312 C 196.828125 46.351562 199.78125 44.683594 201.746094 42.082031 C 203.554688 39.710938 204.261719 36.664062 204.128906 33.71875 L 212.414062 33.71875 C 212.804688 37.941406 211.8125 42.308594 209.453125 45.855469 C 205.90625 51.289062 199.589844 54.636719 193.152344 54.957031 C 186.867188 55.347656 180.445312 52.730469 176.3125 47.957031 C 172.878906 44.015625 171.191406 38.855469 171.628906 33.648438 Z M 171.628906 33.648438 "/>
</svg>
