<?xml version="1.0" encoding="UTF-8"?>
<svg xmlns="http://www.w3.org/2000/svg" xmlns:xlink="http://www.w3.org/1999/xlink" width="247.952059" height="55" viewBox="0 0 247.952059 55">
<path fill-rule="nonzero" fill="rgb(0%, 0%, 0%)" fill-opacity="1" d="M 242.488281 0 L 228.964844 28.929688 L 223.878906 17.96875 L 218.378906 17.96875 L 226.742188 35.902344 L 231.1875 35.902344 L 247.953125 0 Z M 242.488281 0 "/>
<path fill-rule="nonzero" fill="rgb(0%, 0%, 0%)" fill-opacity="1" d="M 184.476562 53.71875 L 195.363281 53.71875 L 195.363281 33.792969 C 195.363281 29.234375 198 26.03125 201.917969 26.03125 C 205.683594 26.03125 207.644531 28.667969 207.644531 32.472656 L 207.644531 53.71875 L 218.53125 53.71875 L 218.53125 30.402344 C 218.53125 22.488281 213.785156 16.914062 206.097656 16.914062 C 201.203125 16.914062 197.773438 19.023438 195.210938 22.867188 L 194.984375 22.867188 L 194.984375 17.96875 L 184.4375 17.96875 Z M 163.078125 16.988281 C 151.703125 16.988281 144.09375 25.164062 144.09375 35.9375 C 144.09375 46.636719 151.703125 54.886719 163.078125 54.886719 C 174.457031 54.886719 182.066406 46.636719 182.066406 35.9375 C 182.101562 25.164062 174.457031 16.988281 163.078125 16.988281 Z M 163.003906 46.824219 C 157.84375 46.824219 155.09375 42.492188 155.09375 35.9375 C 155.09375 29.308594 157.804688 25.050781 163.003906 25.050781 C 168.164062 25.050781 171.027344 29.308594 171.027344 35.9375 C 171.066406 42.492188 168.203125 46.824219 163.003906 46.824219 Z M 113.050781 53.71875 L 143.640625 53.71875 L 143.640625 45.128906 L 126.3125 45.128906 L 126.3125 44.902344 L 142.886719 26.332031 L 142.886719 17.929688 L 113.050781 17.929688 L 113.050781 26.558594 L 129.816406 26.558594 L 129.816406 26.785156 L 113.050781 45.507812 Z M 99.074219 53.71875 L 110.039062 53.71875 L 110.039062 17.96875 L 99.074219 17.96875 Z M 73.648438 53.71875 L 84.570312 53.71875 L 84.570312 37.292969 C 84.570312 29.835938 89.054688 26.519531 95.875 27.460938 L 96.097656 27.460938 L 96.097656 18.042969 C 95.535156 17.820312 94.894531 17.78125 93.875 17.78125 C 89.621094 17.78125 86.757812 19.738281 84.308594 23.921875 L 84.082031 23.921875 L 84.082031 17.96875 L 73.648438 17.96875 Z M 53.605469 46.863281 C 48.785156 46.863281 45.847656 43.734375 45.28125 38.914062 L 71.046875 38.914062 C 71.125 31.230469 69.089844 25.089844 64.832031 21.246094 C 61.820312 18.457031 57.863281 16.914062 52.816406 16.914062 C 42.042969 16.914062 34.582031 25.089844 34.582031 35.789062 C 34.582031 46.5625 41.703125 54.773438 53.53125 54.773438 C 58.015625 54.773438 61.554688 53.570312 64.492188 51.570312 C 67.621094 49.425781 69.878906 46.261719 70.484375 43.132812 L 60.011719 43.132812 C 58.992188 45.46875 56.808594 46.863281 53.605469 46.863281 Z M 53.042969 24.710938 C 56.882812 24.710938 59.519531 27.574219 59.972656 31.757812 L 45.355469 31.757812 C 46.222656 27.539062 48.519531 24.710938 53.042969 24.710938 Z M 12.808594 53.71875 L 24.261719 53.71875 L 36.691406 17.96875 L 25.730469 17.96875 L 18.761719 40.949219 L 18.609375 40.949219 L 11.640625 17.96875 L 0.375 17.96875 Z M 99.074219 5.234375 L 110.039062 5.234375 L 110.039062 14.957031 L 99.074219 14.957031 Z M 99.074219 5.234375 "/>
</svg>
