<?xml version="1.0" encoding="UTF-8"?>
<svg xmlns="http://www.w3.org/2000/svg" xmlns:xlink="http://www.w3.org/1999/xlink" width="169.753086" height="55" viewBox="0 0 169.753086 55">
<path fill-rule="evenodd" fill="rgb(0%, 0%, 0%)" fill-opacity="1" d="M 11.179688 33.265625 L 6.808594 18.308594 C 6.453125 17.324219 5.628906 15.949219 3.699219 15.949219 C 1.808594 15.949219 0 17.050781 0 19.214844 C 0 19.84375 0.15625 20.316406 0.472656 21.144531 L 6.179688 37.28125 C 7.28125 40.46875 8.34375 41.53125 11.179688 41.53125 L 11.730469 41.53125 C 14.640625 41.53125 15.351562 40.46875 16.453125 37.359375 L 22.238281 21.144531 C 22.511719 20.316406 22.671875 19.804688 22.671875 19.214844 C 22.671875 17.050781 20.9375 15.949219 18.972656 15.949219 C 17.042969 15.949219 16.175781 17.324219 15.902344 18.308594 L 11.453125 33.265625 Z M 81.984375 3.824219 C 81.984375 1.542969 83.441406 0.0078125 85.445312 0.0078125 C 87.535156 0.0078125 88.988281 1.542969 88.988281 3.824219 L 88.988281 37.675781 C 88.988281 39.957031 87.535156 41.492188 85.445312 41.492188 C 83.441406 41.492188 81.984375 39.957031 81.984375 37.675781 Z M 94.578125 19.609375 C 94.578125 17.363281 96.035156 15.910156 98.121094 15.910156 C 100.207031 15.910156 101.585938 17.363281 101.585938 19.609375 L 101.585938 37.675781 C 101.585938 39.957031 100.207031 41.492188 98.121094 41.492188 C 96.035156 41.492188 94.578125 39.957031 94.578125 37.675781 Z M 130.039062 37.753906 C 130.039062 39.996094 128.503906 41.492188 126.5 41.492188 C 124.492188 41.492188 122.957031 39.957031 122.957031 37.753906 L 122.957031 26.222656 C 122.957031 23.425781 121.421875 21.578125 118.507812 21.578125 C 115.675781 21.578125 113.902344 23.03125 113.902344 26.222656 L 113.902344 37.753906 C 113.902344 39.996094 112.445312 41.492188 110.359375 41.492188 C 108.355469 41.492188 106.898438 39.957031 106.898438 37.753906 L 106.898438 27.285156 C 106.898438 19.492188 110.992188 15.671875 118.507812 15.671875 C 125.867188 15.671875 130.039062 19.492188 130.039062 27.203125 Z M 26.410156 19.410156 C 26.410156 17.167969 27.945312 15.671875 29.953125 15.671875 C 31.960938 15.671875 33.414062 17.207031 33.414062 19.410156 L 33.414062 31.023438 C 33.414062 33.816406 34.949219 35.628906 37.863281 35.628906 C 40.695312 35.628906 42.507812 34.25 42.507812 31.023438 L 42.507812 19.410156 C 42.507812 17.167969 43.964844 15.671875 46.050781 15.671875 C 48.058594 15.671875 49.511719 17.207031 49.511719 19.410156 L 49.511719 30 C 49.511719 37.714844 45.417969 41.609375 37.902344 41.609375 C 30.542969 41.609375 26.371094 37.714844 26.371094 30 L 26.371094 19.410156 Z M 152.003906 23.582031 C 152.003906 22.757812 150.390625 21.578125 147.476562 21.578125 C 143.105469 21.578125 141.414062 24.371094 141.414062 28.738281 C 141.414062 33.738281 143.066406 35.628906 146.648438 35.628906 C 150.191406 35.628906 152.003906 33.265625 152.003906 28.542969 Z M 155.425781 17.324219 C 157.355469 18.152344 158.613281 19.332031 158.613281 21.578125 L 158.613281 42.59375 C 158.613281 50.113281 154.640625 55.03125 145.824219 55.03125 C 141.492188 55.03125 135.867188 52.75 135.867188 49.757812 C 135.867188 48.222656 137.046875 46.84375 138.421875 46.84375 C 140.667969 46.84375 142.320312 48.773438 146.335938 48.773438 C 150.347656 48.773438 151.964844 46.765625 151.964844 43.421875 L 151.964844 39.445312 C 150.78125 40.625 148.617188 41.609375 145.507812 41.609375 C 138.976562 41.609375 134.449219 36.808594 134.449219 28.738281 C 134.449219 20.867188 139.527344 15.671875 147.238281 15.671875 C 151.175781 15.671875 153.890625 16.617188 155.425781 17.324219 Z M 70.648438 26.378906 C 70.453125 23.03125 68.917969 21.027344 65.648438 21.027344 C 62.382812 21.027344 60.925781 22.480469 60.652344 26.378906 Z M 60.652344 31.023438 C 61.085938 33.855469 62.539062 35.824219 66.082031 35.824219 C 69.546875 35.824219 71.515625 34.484375 73.246094 34.484375 C 74.625 34.484375 75.804688 35.941406 75.804688 37.320312 C 75.804688 40.035156 71.160156 41.492188 66.003906 41.492188 C 58.488281 41.492188 53.84375 36.570312 53.84375 28.621094 C 53.84375 20.710938 58.449219 15.476562 65.886719 15.476562 C 73.757812 15.476562 77.222656 20.75 77.222656 27.914062 C 77.222656 29.921875 76.394531 30.984375 74.386719 30.984375 L 60.652344 30.984375 Z M 60.652344 31.023438 "/>
<path fill-rule="evenodd" fill="rgb(0%, 0%, 0%)" fill-opacity="1" d="M 169.753906 6.816406 C 169.753906 9.375 168.101562 11.1875 165.226562 11.1875 C 162.394531 11.1875 160.699219 9.375 160.699219 6.816406 C 160.699219 4.257812 162.355469 2.449219 165.226562 2.449219 C 168.0625 2.449219 169.753906 4.257812 169.753906 6.816406 Z M 169.753906 6.816406 "/>
</svg>
