<svg id="svg" version="1.1" xmlns="http://www.w3.org/2000/svg" xmlns:xlink="http://www.w3.org/1999/xlink" width="400" height="400" viewBox="0, 0, 400,400"><g id="svgg"><path id="path0" d="M176.583 160.583 C 179.929 160.637,185.404 160.637,188.750 160.583 C 192.096 160.528,189.358 160.484,182.667 160.484 C 175.975 160.484,173.237 160.528,176.583 160.583 M232.938 160.583 C 236.296 160.637,241.696 160.637,244.938 160.583 C 248.181 160.528,245.433 160.484,238.833 160.484 C 232.233 160.484,229.581 160.529,232.938 160.583 M284.583 186.580 C 285.729 186.645,287.604 186.645,288.750 186.580 C 289.896 186.515,288.958 186.462,286.667 186.462 C 284.375 186.462,283.438 186.515,284.583 186.580 M179.487 230.167 C 179.488 238.967,179.531 242.519,179.583 238.060 C 179.636 233.602,179.636 226.402,179.583 222.060 C 179.530 217.719,179.487 221.367,179.487 230.167 M248.770 216.167 C 248.772 217.267,248.834 217.676,248.908 217.077 C 248.982 216.478,248.981 215.578,248.905 215.077 C 248.829 214.576,248.768 215.067,248.770 216.167 M259.153 232.167 C 259.153 240.050,259.197 243.227,259.250 239.227 C 259.303 235.228,259.303 228.778,259.250 224.894 C 259.196 221.011,259.153 224.283,259.153 232.167 M151.083 234.243 C 151.771 234.315,152.896 234.315,153.583 234.243 C 154.271 234.171,153.708 234.112,152.333 234.112 C 150.958 234.112,150.396 234.171,151.083 234.243 M100.417 237.582 C 102.388 237.641,105.612 237.641,107.583 237.582 C 109.554 237.523,107.942 237.475,104.000 237.475 C 100.058 237.475,98.446 237.523,100.417 237.582 M215.437 244.500 C 215.438 245.600,215.501 246.010,215.575 245.411 C 215.649 244.812,215.648 243.912,215.572 243.411 C 215.495 242.910,215.435 243.400,215.437 244.500 " stroke="none" fill="#f4f4ec" fill-rule="evenodd"></path><path id="path1" d="M341.773 125.667 C 341.773 126.858,341.834 127.346,341.908 126.750 C 341.982 126.154,341.982 125.179,341.908 124.583 C 341.834 123.987,341.773 124.475,341.773 125.667 M131.250 127.917 C 169.062 127.963,230.937 127.963,268.750 127.917 C 306.562 127.870,275.625 127.832,200.000 127.832 C 124.375 127.832,93.437 127.870,131.250 127.917 M341.749 202.083 L 341.667 276.333 199.917 276.417 L 58.167 276.501 199.927 276.584 C 313.090 276.650,341.720 276.583,341.846 276.250 C 341.933 276.021,341.965 242.533,341.918 201.833 L 341.832 127.833 341.749 202.083 M95.158 180.000 C 95.158 193.842,95.200 199.504,95.250 192.583 C 95.300 185.663,95.300 174.338,95.250 167.417 C 95.200 160.496,95.158 166.158,95.158 180.000 M163.825 180.000 C 163.825 193.842,163.866 199.504,163.917 192.583 C 163.967 185.663,163.967 174.338,163.917 167.417 C 163.866 160.496,163.825 166.158,163.825 180.000 M194.783 157.667 C 194.783 159.225,194.841 159.862,194.911 159.083 C 194.981 158.304,194.981 157.029,194.911 156.250 C 194.841 155.471,194.783 156.108,194.783 157.667 M250.785 157.833 C 250.784 159.483,250.840 160.200,250.910 159.427 C 250.980 158.653,250.981 157.303,250.912 156.427 C 250.843 155.550,250.786 156.183,250.785 157.833 M105.066 160.581 C 106.661 160.642,109.361 160.643,111.066 160.582 C 112.772 160.521,111.467 160.471,108.167 160.471 C 104.867 160.471,103.472 160.520,105.066 160.581 M282.493 170.500 L 282.500 180.833 286.417 180.850 L 290.334 180.867 286.505 180.756 L 282.676 180.646 282.581 170.406 L 282.485 160.167 282.493 170.500 M175.750 177.249 C 178.454 177.305,182.879 177.305,185.583 177.249 C 188.287 177.193,186.075 177.147,180.667 177.147 C 175.258 177.147,173.046 177.193,175.750 177.249 M236.417 177.250 L 246.000 177.344 246.000 179.833 L 246.000 182.323 236.333 182.419 L 226.666 182.515 236.417 182.508 L 246.167 182.500 246.263 179.750 L 246.360 177.000 236.597 177.078 L 226.833 177.156 236.417 177.250 M175.604 182.583 C 178.411 182.639,182.911 182.638,185.604 182.583 C 188.297 182.527,186.000 182.481,180.500 182.481 C 175.000 182.481,172.797 182.527,175.604 182.583 M282.480 196.000 C 282.480 201.225,282.526 203.362,282.583 200.750 C 282.639 198.137,282.639 193.862,282.583 191.250 C 282.526 188.637,282.480 190.775,282.480 196.000 M201.819 228.333 C 201.819 236.125,201.863 239.313,201.916 235.417 C 201.970 231.521,201.970 225.146,201.916 221.250 C 201.863 217.354,201.819 220.542,201.819 228.333 M251.417 217.914 C 252.838 217.977,255.162 217.977,256.583 217.914 C 258.004 217.852,256.842 217.801,254.000 217.801 C 251.158 217.801,249.996 217.852,251.417 217.914 M263.486 218.083 C 263.398 218.313,263.367 224.800,263.417 232.500 L 263.508 246.500 263.587 232.259 L 263.667 218.017 268.750 217.916 L 273.833 217.815 268.740 217.741 C 264.915 217.685,263.606 217.771,263.486 218.083 M98.291 234.092 C 98.433 234.234,101.089 234.308,104.192 234.257 L 109.833 234.165 103.933 233.999 C 100.687 233.908,98.148 233.950,98.291 234.092 M154.737 237.350 C 154.692 239.576,154.515 241.044,154.252 241.350 C 153.991 241.655,154.057 241.640,154.431 241.309 C 154.943 240.857,155.010 240.309,154.916 237.309 L 154.807 233.833 154.737 237.350 " stroke="none" fill="#f4f4e4" fill-rule="evenodd"></path><path id="path2" d="M275.492 180.000 C 275.492 193.842,275.533 199.504,275.583 192.583 C 275.634 185.663,275.634 174.338,275.583 167.417 C 275.533 160.496,275.492 166.158,275.492 180.000 M284.764 160.581 C 286.009 160.645,287.959 160.645,289.097 160.580 C 290.235 160.515,289.217 160.462,286.833 160.463 C 284.450 160.463,283.519 160.517,284.764 160.581 M190.452 179.833 C 190.451 181.483,190.507 182.200,190.577 181.427 C 190.647 180.653,190.648 179.303,190.579 178.427 C 190.510 177.550,190.453 178.183,190.452 179.833 M127.666 193.083 C 127.175 193.754,127.094 193.987,127.454 193.694 C 128.001 193.250,128.828 192.000,128.574 192.000 C 128.511 192.000,128.102 192.487,127.666 193.083 M176.772 199.583 C 180.221 199.637,185.771 199.637,189.105 199.583 C 192.439 199.528,189.617 199.484,182.833 199.484 C 176.050 199.484,173.322 199.529,176.772 199.583 M232.917 199.583 C 236.263 199.637,241.738 199.637,245.083 199.583 C 248.429 199.528,245.692 199.484,239.000 199.484 C 232.308 199.484,229.571 199.528,232.917 199.583 M197.153 214.417 C 197.065 214.646,197.032 221.958,197.080 230.667 L 197.167 246.500 197.334 230.250 C 197.425 221.312,197.458 214.000,197.406 214.000 C 197.355 214.000,197.241 214.188,197.153 214.417 M229.819 214.417 C 229.732 214.646,229.699 221.958,229.747 230.667 L 229.834 246.500 230.000 230.250 C 230.092 221.312,230.124 214.000,230.073 214.000 C 230.021 214.000,229.907 214.188,229.819 214.417 M234.488 230.333 C 234.488 239.225,234.531 242.862,234.583 238.417 C 234.636 233.971,234.636 226.696,234.583 222.250 C 234.531 217.804,234.488 221.442,234.488 230.333 M205.250 242.582 C 207.129 242.641,210.204 242.641,212.083 242.582 C 213.963 242.523,212.425 242.474,208.667 242.474 C 204.908 242.474,203.371 242.523,205.250 242.582 " stroke="none" fill="#fcf4ea" fill-rule="evenodd"></path><path id="path3" d="M58.333 199.999 L 58.333 276.332 200.083 276.416 L 341.833 276.500 341.751 202.000 C 341.705 161.025,341.668 126.638,341.667 125.583 L 341.667 123.667 200.000 123.667 L 58.333 123.667 58.333 199.999 M337.333 200.000 L 337.333 272.333 200.000 272.333 L 62.667 272.333 62.667 200.000 L 62.667 127.667 200.000 127.667 L 337.333 127.667 337.333 200.000 M95.167 180.000 L 95.167 205.400 106.667 205.209 C 118.106 205.020,119.348 204.958,120.367 204.526 C 120.660 204.402,121.035 204.340,121.200 204.389 C 121.365 204.438,122.025 204.269,122.667 204.013 C 123.308 203.758,123.983 203.523,124.167 203.492 C 124.807 203.384,125.837 202.867,126.274 202.435 C 126.516 202.196,127.004 202.000,127.357 202.000 C 127.711 202.000,128.000 201.875,128.000 201.723 C 128.000 201.571,128.641 200.986,129.424 200.423 C 131.601 198.861,134.333 196.141,134.333 195.539 C 134.333 195.242,134.483 195.000,134.667 195.000 C 134.850 195.000,135.000 194.775,135.000 194.500 C 135.000 194.225,135.150 194.000,135.333 194.000 C 135.517 194.000,135.667 193.775,135.667 193.500 C 135.667 193.225,135.826 193.000,136.020 193.000 C 136.214 193.000,136.302 192.885,136.215 192.745 C 136.128 192.604,136.403 191.742,136.824 190.828 C 137.246 189.914,137.525 189.054,137.443 188.917 C 137.361 188.779,137.420 188.667,137.574 188.667 C 137.818 188.667,137.992 187.899,138.085 186.417 C 138.099 186.188,138.199 186.000,138.306 186.000 C 138.412 186.000,138.516 185.512,138.535 184.917 C 138.554 184.321,138.651 182.220,138.750 180.248 C 138.849 178.276,138.797 176.581,138.636 176.481 C 138.475 176.381,138.395 175.970,138.459 175.567 C 138.523 175.163,138.385 174.196,138.154 173.417 C 137.922 172.637,137.811 172.000,137.907 172.000 C 138.003 172.000,137.895 171.775,137.667 171.500 C 137.438 171.225,137.363 171.000,137.500 171.000 C 137.637 171.000,137.542 170.752,137.291 170.449 C 137.039 170.146,136.874 169.808,136.924 169.699 C 137.125 169.261,134.756 165.104,133.587 163.844 C 132.902 163.105,132.339 162.350,132.335 162.167 C 132.332 161.983,131.787 161.464,131.124 161.013 C 130.461 160.561,129.507 159.807,129.003 159.336 C 128.001 158.400,126.754 157.710,125.083 157.166 C 124.671 157.032,124.333 156.794,124.333 156.638 C 124.333 156.482,124.108 156.441,123.833 156.546 C 123.558 156.652,123.333 156.563,123.333 156.349 C 123.333 156.136,123.196 156.046,123.028 156.149 C 122.860 156.253,122.331 156.189,121.853 156.007 C 121.374 155.825,120.649 155.607,120.241 155.522 C 119.834 155.437,119.125 155.266,118.667 155.142 C 118.208 155.017,112.733 154.845,106.500 154.758 L 95.167 154.600 95.167 180.000 M163.833 180.000 L 163.833 205.333 179.250 205.333 L 194.667 205.333 194.718 203.917 C 194.747 203.137,194.813 201.862,194.865 201.083 L 194.960 199.667 182.897 199.667 L 170.833 199.667 170.833 191.000 L 170.833 182.333 180.583 182.333 L 190.333 182.333 190.333 179.833 L 190.333 177.333 180.678 177.333 L 171.022 177.333 170.928 168.825 L 170.833 160.317 182.833 160.409 L 194.833 160.500 194.726 157.583 L 194.619 154.667 179.226 154.667 L 163.833 154.667 163.833 180.000 M219.748 179.917 L 219.833 205.167 235.333 205.251 L 250.833 205.335 250.937 202.505 L 251.041 199.675 238.937 199.588 L 226.833 199.500 226.744 190.907 L 226.655 182.314 236.411 182.407 L 246.167 182.500 246.058 179.917 L 245.949 177.333 236.308 177.333 L 226.667 177.333 226.667 168.833 L 226.667 160.333 238.667 160.333 L 250.667 160.333 250.667 157.500 L 250.667 154.667 235.165 154.667 L 219.662 154.667 219.748 179.917 M275.667 179.989 L 275.667 205.333 278.995 205.333 L 282.323 205.333 282.411 195.917 L 282.500 186.500 287.667 186.428 C 292.090 186.366,295.375 186.188,296.000 185.977 C 296.092 185.946,296.295 185.944,296.452 185.972 C 296.609 186.000,296.950 185.847,297.210 185.631 C 297.470 185.415,297.778 185.333,297.894 185.450 C 298.010 185.566,298.307 185.494,298.553 185.290 C 298.799 185.085,299.000 185.030,299.000 185.167 C 299.000 185.303,299.225 185.228,299.500 185.000 C 299.775 184.772,300.000 184.702,300.000 184.844 C 300.000 184.987,300.262 184.873,300.583 184.592 C 300.904 184.311,301.650 183.836,302.240 183.537 C 302.831 183.238,303.640 182.657,304.039 182.246 C 304.438 181.836,304.644 181.711,304.498 181.968 C 304.317 182.284,304.357 182.358,304.621 182.195 C 304.835 182.062,304.934 181.830,304.841 181.679 C 304.747 181.528,305.190 180.990,305.824 180.485 C 306.458 179.979,306.909 179.455,306.825 179.320 C 306.742 179.186,306.896 178.892,307.167 178.667 C 307.438 178.442,307.585 178.137,307.493 177.989 C 307.402 177.841,307.527 177.521,307.771 177.277 C 308.015 177.033,308.233 176.683,308.257 176.500 C 308.296 176.194,308.451 175.675,308.904 174.333 C 309.685 172.022,308.671 163.956,307.445 162.731 C 307.197 162.483,307.069 162.157,307.162 162.008 C 307.254 161.859,307.096 161.647,306.810 161.537 C 306.525 161.428,306.363 161.222,306.451 161.080 C 306.538 160.938,306.089 160.375,305.451 159.828 C 304.814 159.281,304.002 158.571,303.646 158.250 C 303.291 157.929,302.962 157.681,302.917 157.697 C 302.707 157.775,300.785 156.795,300.374 156.401 C 300.121 156.160,299.708 156.041,299.457 156.137 C 299.206 156.233,299.000 156.176,299.000 156.009 C 299.000 155.842,298.700 155.763,298.333 155.833 C 297.967 155.904,297.667 155.811,297.667 155.628 C 297.667 155.444,297.549 155.367,297.406 155.455 C 297.262 155.544,295.725 155.417,293.989 155.173 C 292.223 154.925,287.493 154.711,283.250 154.687 L 275.667 154.644 275.667 179.989 M116.499 160.665 C 116.568 160.776,117.265 160.905,118.049 160.951 C 118.833 160.997,119.644 161.176,119.851 161.348 C 120.058 161.520,120.327 161.562,120.447 161.442 C 120.568 161.321,120.667 161.404,120.667 161.626 C 120.667 161.848,120.854 161.995,121.083 161.953 C 121.748 161.832,123.817 162.847,124.696 163.726 C 125.139 164.169,125.773 164.636,126.105 164.764 C 126.454 164.897,126.608 165.159,126.470 165.382 C 126.320 165.624,126.376 165.680,126.618 165.530 C 126.842 165.392,127.100 165.546,127.232 165.896 C 127.357 166.228,127.693 166.683,127.979 166.906 C 128.266 167.129,128.359 167.317,128.186 167.323 C 128.014 167.329,128.118 167.521,128.418 167.750 C 128.718 167.979,129.009 168.388,129.065 168.659 C 129.121 168.929,129.356 169.354,129.586 169.602 C 129.817 169.851,129.921 170.192,129.817 170.360 C 129.713 170.529,129.802 170.667,130.016 170.667 C 130.230 170.667,130.318 170.892,130.213 171.167 C 130.107 171.442,130.182 171.667,130.379 171.667 C 130.577 171.667,130.657 171.877,130.559 172.134 C 130.460 172.391,130.481 172.704,130.606 172.829 C 130.731 172.953,130.846 173.156,130.862 173.278 C 130.878 173.400,130.998 173.740,131.129 174.034 C 131.259 174.327,131.341 174.702,131.310 174.867 C 131.280 175.032,131.287 175.242,131.327 175.333 C 131.422 175.550,131.722 179.257,131.731 180.333 C 131.749 182.328,131.240 186.204,130.919 186.526 C 130.805 186.639,130.793 186.942,130.892 187.199 C 130.991 187.456,130.889 187.667,130.667 187.667 C 130.444 187.667,130.348 187.891,130.454 188.167 C 130.559 188.442,130.532 188.667,130.394 188.667 C 130.255 188.667,130.117 188.991,130.088 189.387 C 130.058 189.783,129.905 190.195,129.748 190.303 C 129.591 190.412,129.276 190.960,129.049 191.522 C 128.633 192.554,125.538 196.167,125.071 196.167 C 124.931 196.167,124.455 196.504,124.013 196.917 C 123.258 197.619,122.852 197.801,122.250 197.706 C 122.112 197.684,122.000 197.826,122.000 198.020 C 122.000 198.214,121.860 198.286,121.690 198.181 C 121.519 198.075,121.285 198.142,121.170 198.328 C 121.055 198.514,120.603 198.667,120.167 198.667 C 119.730 198.667,119.274 198.827,119.153 199.023 C 119.032 199.219,118.709 199.293,118.436 199.188 C 118.163 199.084,117.766 199.110,117.553 199.248 C 117.341 199.385,113.792 199.498,109.667 199.499 L 102.167 199.500 102.255 179.891 L 102.344 160.283 109.359 160.372 C 113.217 160.422,116.430 160.553,116.499 160.665 M294.732 160.758 C 296.027 160.969,297.753 161.714,298.338 162.315 C 298.616 162.600,299.141 162.991,299.505 163.184 C 300.209 163.557,302.055 166.975,301.786 167.409 C 301.699 167.551,301.754 167.667,301.909 167.667 C 302.242 167.667,302.271 172.840,301.940 173.171 C 301.815 173.296,301.793 173.609,301.892 173.866 C 301.991 174.123,301.905 174.333,301.702 174.333 C 301.499 174.333,301.358 174.446,301.387 174.583 C 301.502 175.117,300.690 176.586,300.171 176.786 C 299.870 176.901,299.707 177.129,299.809 177.293 C 299.910 177.457,299.769 177.776,299.496 178.003 C 299.223 178.230,298.995 178.284,298.990 178.124 C 298.984 177.964,298.821 178.107,298.626 178.442 C 298.239 179.108,295.439 180.438,294.998 180.166 C 294.847 180.072,294.665 180.172,294.593 180.388 C 294.501 180.662,292.637 180.825,288.398 180.929 L 282.333 181.077 282.333 170.672 L 282.333 160.267 288.083 160.440 C 291.246 160.535,294.238 160.678,294.732 160.758 M144.105 214.100 C 144.006 214.260,143.642 214.317,143.296 214.227 C 142.950 214.137,142.577 214.209,142.467 214.387 C 142.356 214.566,142.056 214.632,141.800 214.533 C 141.543 214.435,141.333 214.500,141.333 214.677 C 141.333 214.855,141.221 214.968,141.083 214.929 C 140.946 214.890,140.516 215.035,140.127 215.251 C 139.739 215.467,139.326 215.548,139.210 215.433 C 139.095 215.317,139.000 215.387,139.000 215.589 C 139.000 215.941,138.034 216.409,137.644 216.246 C 137.443 216.162,133.667 219.898,133.667 220.181 C 133.667 220.272,133.278 220.961,132.804 221.713 C 132.330 222.465,131.871 223.474,131.784 223.956 C 131.698 224.439,131.495 224.881,131.332 224.938 C 131.170 224.996,131.121 225.260,131.223 225.526 C 131.325 225.791,131.258 226.194,131.074 226.421 C 130.876 226.665,130.799 228.260,130.886 230.333 C 131.080 234.988,131.119 235.333,131.452 235.333 C 131.609 235.333,131.652 235.558,131.546 235.833 C 131.441 236.108,131.488 236.333,131.651 236.333 C 131.814 236.333,132.051 236.808,132.179 237.389 C 132.306 237.969,132.693 238.748,133.039 239.118 C 133.384 239.489,133.667 239.989,133.667 240.230 C 133.667 240.470,133.784 240.667,133.928 240.667 C 134.072 240.667,134.457 241.119,134.784 241.673 C 135.111 242.226,135.510 242.597,135.672 242.497 C 135.834 242.397,136.132 242.623,136.333 243.000 C 136.535 243.377,136.844 243.597,137.019 243.488 C 137.195 243.380,137.428 243.525,137.537 243.810 C 137.647 244.096,137.871 244.247,138.035 244.145 C 138.199 244.044,138.333 244.128,138.333 244.333 C 138.333 244.538,138.483 244.613,138.667 244.500 C 138.850 244.387,139.000 244.462,139.000 244.667 C 139.000 244.872,139.150 244.947,139.333 244.833 C 139.517 244.720,139.667 244.811,139.667 245.036 C 139.667 245.261,139.761 245.350,139.877 245.234 C 139.993 245.118,140.405 245.198,140.794 245.412 C 141.509 245.806,142.028 245.957,143.083 246.076 C 143.404 246.112,143.667 246.222,143.667 246.321 C 143.667 246.650,150.477 246.419,152.167 246.033 C 154.418 245.518,154.361 245.537,155.541 244.912 C 156.114 244.608,156.676 244.454,156.791 244.569 C 156.906 244.684,157.000 244.635,157.000 244.461 C 157.000 244.286,157.450 243.878,158.000 243.553 L 159.000 242.962 159.000 236.814 L 159.000 230.667 153.833 230.667 L 148.667 230.667 148.667 232.167 C 148.667 233.000,148.824 233.667,149.020 233.667 C 149.214 233.667,149.303 233.779,149.218 233.917 C 149.133 234.054,150.399 234.114,152.032 234.050 L 155.000 233.934 155.000 237.426 C 155.000 240.124,154.886 241.013,154.500 241.333 C 154.225 241.562,154.000 241.646,154.000 241.522 C 154.000 241.397,153.587 241.508,153.083 241.768 C 152.579 242.028,151.714 242.386,151.160 242.563 C 149.714 243.024,143.867 242.914,143.263 242.414 C 142.993 242.189,142.673 242.104,142.553 242.225 C 142.432 242.346,142.333 242.269,142.333 242.056 C 142.333 241.842,142.044 241.667,141.690 241.667 C 141.337 241.667,140.823 241.442,140.548 241.167 C 140.273 240.892,139.962 240.667,139.857 240.667 C 139.632 240.667,138.333 239.401,138.333 239.182 C 138.333 239.098,137.950 238.647,137.482 238.179 C 137.014 237.711,136.715 237.192,136.817 237.026 C 136.920 236.860,136.867 236.673,136.699 236.612 C 136.532 236.550,136.343 236.200,136.281 235.833 C 136.218 235.467,136.060 235.086,135.930 234.988 C 135.642 234.772,135.321 232.372,135.332 230.520 C 135.336 229.776,135.339 228.867,135.338 228.500 C 135.333 227.313,136.057 224.667,136.386 224.667 C 136.562 224.667,136.613 224.517,136.500 224.333 C 136.387 224.150,136.453 224.000,136.647 224.000 C 136.841 224.000,137.000 223.858,137.000 223.683 C 137.000 223.509,137.446 222.706,137.991 221.898 C 139.013 220.384,140.000 219.380,140.000 219.855 C 140.000 220.004,140.309 219.794,140.687 219.389 C 141.064 218.983,141.514 218.739,141.687 218.846 C 141.859 218.952,142.000 218.897,142.000 218.723 C 142.000 218.103,148.874 217.409,149.805 217.935 C 149.972 218.030,150.551 218.142,151.091 218.184 C 151.631 218.227,152.500 218.578,153.023 218.964 C 153.545 219.351,154.192 219.667,154.459 219.667 C 154.726 219.667,155.003 219.842,155.075 220.057 C 155.449 221.180,157.954 220.056,157.989 218.750 C 157.995 218.521,158.150 218.333,158.333 218.333 C 159.482 218.333,156.500 216.132,154.247 215.317 C 153.561 215.069,153.000 214.784,152.999 214.683 C 152.999 214.582,152.565 214.485,152.036 214.466 C 151.506 214.448,150.794 214.317,150.453 214.176 C 149.575 213.812,144.322 213.749,144.105 214.100 M101.459 214.583 C 101.174 215.477,100.636 216.737,100.107 217.750 C 99.844 218.254,99.716 218.667,99.822 218.667 C 99.928 218.667,99.770 219.042,99.469 219.500 C 99.169 219.958,99.019 220.333,99.136 220.333 C 99.253 220.333,99.103 220.708,98.803 221.167 C 98.502 221.625,98.352 222.000,98.469 222.000 C 98.586 222.000,98.436 222.375,98.136 222.833 C 97.836 223.292,97.686 223.667,97.803 223.667 C 97.920 223.667,97.770 224.042,97.469 224.500 C 97.169 224.958,97.019 225.333,97.136 225.333 C 97.253 225.333,97.103 225.708,96.803 226.167 C 96.502 226.625,96.352 227.000,96.469 227.000 C 96.586 227.000,96.461 227.338,96.191 227.750 C 95.920 228.162,95.673 228.650,95.640 228.833 C 95.555 229.316,95.316 230.060,94.970 230.917 C 94.250 232.698,94.024 233.274,93.305 235.167 C 92.887 236.267,92.330 237.504,92.067 237.917 C 91.805 238.329,91.686 238.667,91.803 238.667 C 91.920 238.667,91.770 239.042,91.469 239.500 C 91.169 239.958,91.019 240.333,91.136 240.333 C 91.253 240.333,91.103 240.708,90.803 241.167 C 90.502 241.625,90.352 242.000,90.469 242.000 C 90.586 242.000,90.436 242.375,90.136 242.833 C 89.836 243.292,89.701 243.667,89.836 243.667 C 89.971 243.667,89.906 243.879,89.691 244.138 C 88.240 245.885,89.670 246.906,92.503 246.144 C 93.261 245.941,94.667 243.708,94.667 242.708 C 94.667 242.345,94.885 241.830,95.151 241.563 C 95.417 241.297,95.555 241.000,95.457 240.902 C 95.360 240.804,95.518 240.362,95.808 239.919 C 96.098 239.476,96.235 239.013,96.112 238.890 C 95.989 238.767,96.064 238.667,96.278 238.667 C 96.492 238.667,96.649 238.554,96.627 238.417 C 96.458 237.346,96.644 237.320,103.867 237.410 L 111.067 237.500 111.668 239.083 C 111.999 239.954,112.205 240.667,112.127 240.667 C 112.049 240.667,112.230 241.042,112.531 241.500 C 112.831 241.958,112.981 242.333,112.864 242.333 C 112.747 242.333,112.897 242.708,113.197 243.167 C 113.498 243.625,113.648 244.000,113.531 244.000 C 113.414 244.000,113.547 244.349,113.827 244.777 C 114.107 245.204,114.223 245.678,114.085 245.830 C 113.946 245.982,114.021 245.999,114.250 245.867 C 114.479 245.735,114.667 245.763,114.667 245.928 C 114.667 246.093,115.642 246.260,116.833 246.298 C 119.111 246.372,119.185 246.337,118.691 245.412 C 118.369 244.810,117.953 243.622,117.962 243.333 C 117.965 243.242,117.746 242.829,117.476 242.417 C 117.206 242.004,117.080 241.667,117.197 241.667 C 117.314 241.667,117.164 241.292,116.864 240.833 C 116.564 240.375,116.414 240.000,116.531 240.000 C 116.648 240.000,116.498 239.625,116.197 239.167 C 115.897 238.708,115.747 238.333,115.864 238.333 C 115.981 238.333,115.831 237.958,115.531 237.500 C 115.230 237.042,115.081 236.667,115.200 236.667 C 115.318 236.667,115.261 236.479,115.073 236.250 C 114.526 235.583,112.000 229.318,112.000 228.628 C 112.000 228.283,111.850 228.000,111.667 228.000 C 111.483 228.000,111.333 227.625,111.333 227.167 C 111.333 226.708,111.183 226.333,111.000 226.333 C 110.817 226.333,110.667 225.958,110.667 225.500 C 110.667 225.042,110.517 224.667,110.333 224.667 C 110.150 224.667,110.000 224.292,110.000 223.833 C 110.000 223.375,109.850 223.000,109.667 223.000 C 109.483 223.000,109.333 222.625,109.333 222.167 C 109.333 221.708,109.158 221.333,108.944 221.333 C 108.731 221.333,108.656 221.233,108.779 221.110 C 108.902 220.987,108.773 220.537,108.493 220.110 C 108.214 219.683,108.080 219.333,108.197 219.333 C 108.314 219.333,108.164 218.958,107.864 218.500 C 107.564 218.042,107.414 217.667,107.531 217.667 C 107.648 217.667,107.498 217.292,107.197 216.833 C 106.897 216.375,106.738 216.000,106.844 216.000 C 106.951 216.000,106.772 215.550,106.447 215.000 C 105.718 213.765,101.825 213.440,101.459 214.583 M175.222 214.222 C 175.100 214.344,175.000 221.619,175.000 230.389 L 175.000 246.333 177.250 246.333 L 179.500 246.333 179.410 230.167 L 179.321 214.000 177.383 214.000 C 176.317 214.000,175.344 214.100,175.222 214.222 M197.556 214.222 C 197.433 214.344,197.333 221.619,197.333 230.389 L 197.333 246.333 206.333 246.333 L 215.333 246.333 215.333 244.507 L 215.333 242.680 208.583 242.590 L 201.833 242.500 201.746 228.250 L 201.660 214.000 199.719 214.000 C 198.651 214.000,197.678 214.100,197.556 214.222 M230.222 214.222 C 230.100 214.344,230.000 221.619,230.000 230.389 L 230.000 246.333 232.160 246.333 L 234.321 246.333 234.410 230.167 L 234.500 214.000 232.472 214.000 C 231.357 214.000,230.344 214.100,230.222 214.222 M248.947 215.820 L 249.061 217.650 254.114 217.741 L 259.167 217.833 259.254 232.083 L 259.340 246.333 261.333 246.333 L 263.326 246.333 263.413 232.083 L 263.500 217.833 268.764 217.833 L 274.029 217.833 273.931 216.000 L 273.833 214.167 261.333 214.079 L 248.833 213.991 248.947 215.820 M284.604 214.174 C 284.367 214.411,285.072 215.994,285.417 215.997 C 285.554 215.999,285.667 216.166,285.667 216.368 C 285.667 216.571,286.135 217.431,286.707 218.279 C 287.280 219.127,287.778 220.023,287.814 220.271 C 287.851 220.518,288.021 220.820,288.193 220.943 C 288.747 221.339,290.333 223.969,290.333 224.493 C 290.333 224.772,290.446 225.004,290.583 225.009 C 290.889 225.020,292.542 227.650,292.394 227.890 C 292.336 227.984,292.561 228.267,292.894 228.520 C 293.228 228.772,293.382 228.984,293.237 228.989 C 293.092 228.995,293.280 229.328,293.654 229.730 C 294.027 230.131,294.333 230.656,294.333 230.896 C 294.333 231.137,294.483 231.333,294.667 231.333 C 294.850 231.333,295.000 231.633,295.000 232.000 C 295.000 232.367,295.150 232.667,295.333 232.667 C 295.545 232.667,295.667 235.167,295.667 239.500 L 295.667 246.333 298.180 246.333 L 300.694 246.333 300.597 239.833 C 300.544 236.258,300.612 233.333,300.750 233.333 C 300.887 233.333,301.000 233.029,301.000 232.656 C 301.000 232.284,301.224 231.893,301.498 231.788 C 301.772 231.683,301.913 231.463,301.812 231.298 C 301.710 231.134,301.795 231.000,302.000 231.000 C 302.205 231.000,302.290 230.866,302.188 230.702 C 302.087 230.537,302.229 230.317,302.505 230.211 C 302.781 230.105,302.979 229.902,302.945 229.759 C 302.846 229.339,303.747 227.667,304.073 227.667 C 304.238 227.667,304.280 227.517,304.167 227.333 C 304.053 227.150,304.120 227.000,304.314 227.000 C 304.508 227.000,304.667 226.850,304.667 226.667 C 304.667 226.483,304.972 226.028,305.345 225.655 C 305.719 225.281,305.949 224.854,305.857 224.705 C 305.765 224.556,305.990 224.112,306.358 223.717 C 306.725 223.323,306.908 222.998,306.763 222.995 C 306.618 222.992,306.725 222.848,307.000 222.674 C 307.275 222.500,307.510 222.240,307.522 222.095 C 307.568 221.548,308.802 219.333,309.062 219.333 C 309.211 219.333,309.333 219.162,309.333 218.953 C 309.333 218.744,309.567 218.403,309.852 218.194 C 310.137 217.986,310.407 217.594,310.451 217.324 C 310.577 216.560,311.383 215.195,311.882 214.900 C 312.986 214.248,312.258 213.929,309.964 214.059 C 308.089 214.165,307.496 214.329,307.124 214.846 C 306.866 215.206,306.433 215.762,306.164 216.083 C 305.894 216.404,305.765 216.667,305.877 216.667 C 305.990 216.667,305.893 216.893,305.663 217.171 C 305.263 217.653,304.743 218.552,303.495 220.917 C 303.181 221.512,302.782 222.000,302.609 222.000 C 302.436 222.000,302.381 222.141,302.487 222.313 C 302.594 222.485,302.466 222.747,302.204 222.896 C 301.942 223.045,301.347 224.029,300.882 225.083 C 300.417 226.137,299.853 227.000,299.629 227.000 C 299.405 227.000,299.323 227.100,299.445 227.223 C 299.568 227.346,299.453 227.683,299.191 227.973 C 298.705 228.510,298.667 228.622,298.667 229.500 C 298.667 230.315,298.188 230.074,297.504 228.917 C 297.152 228.321,296.890 227.833,296.923 227.833 C 297.223 227.833,296.483 226.334,296.113 226.192 C 295.844 226.089,295.718 225.854,295.832 225.669 C 295.946 225.484,295.880 225.333,295.686 225.333 C 295.492 225.333,295.333 225.108,295.333 224.833 C 295.333 224.558,295.174 224.333,294.980 224.333 C 294.786 224.333,294.720 224.183,294.833 224.000 C 294.947 223.817,294.911 223.667,294.753 223.667 C 294.596 223.667,294.288 223.171,294.069 222.565 C 293.850 221.959,293.407 221.166,293.085 220.802 C 292.763 220.438,292.450 219.921,292.389 219.654 C 292.328 219.386,291.988 218.895,291.632 218.563 C 291.276 218.232,291.072 217.819,291.179 217.647 C 291.285 217.474,291.214 217.333,291.020 217.333 C 290.826 217.333,290.667 217.170,290.667 216.970 C 290.667 215.049,285.919 212.859,284.604 214.174 M104.450 220.466 C 104.477 220.943,104.638 221.333,104.806 221.333 C 104.974 221.333,105.011 221.434,104.888 221.557 C 104.765 221.680,104.896 222.134,105.179 222.566 C 105.463 222.998,105.604 223.498,105.494 223.676 C 105.384 223.854,105.421 224.000,105.576 224.000 C 105.731 224.000,105.883 224.324,105.912 224.720 C 105.942 225.116,106.132 225.542,106.333 225.667 C 106.535 225.791,106.724 226.217,106.754 226.613 C 106.784 227.009,106.952 227.333,107.126 227.333 C 107.301 227.333,107.346 227.432,107.225 227.553 C 107.104 227.673,107.151 227.948,107.330 228.162 C 107.508 228.377,107.701 228.841,107.760 229.193 C 107.818 229.545,108.041 230.151,108.255 230.540 C 108.468 230.928,108.548 231.340,108.433 231.456 C 108.317 231.572,108.397 231.667,108.611 231.667 C 108.825 231.667,109.000 232.042,109.000 232.500 C 109.000 232.958,109.125 233.333,109.278 233.333 C 109.431 233.333,109.556 233.558,109.556 233.833 C 109.556 234.258,108.712 234.333,103.964 234.333 C 98.896 234.333,97.354 234.105,98.333 233.500 C 98.523 233.383,98.591 233.148,98.486 232.977 C 98.380 232.806,98.462 232.667,98.667 232.667 C 98.872 232.667,98.953 232.527,98.848 232.356 C 98.742 232.186,98.811 231.950,99.000 231.833 C 99.189 231.716,99.258 231.481,99.152 231.310 C 99.047 231.140,99.087 231.000,99.242 231.000 C 99.397 231.000,99.544 230.737,99.569 230.417 C 99.643 229.470,100.474 227.333,100.768 227.333 C 100.917 227.333,100.947 227.183,100.833 227.000 C 100.720 226.817,100.795 226.667,101.000 226.667 C 101.205 226.667,101.270 226.500,101.144 226.296 C 101.018 226.092,101.091 225.816,101.307 225.683 C 101.523 225.549,101.724 225.116,101.754 224.720 C 101.784 224.324,101.952 224.000,102.126 224.000 C 102.301 224.000,102.350 223.905,102.234 223.790 C 102.118 223.674,102.200 223.261,102.417 222.873 C 102.633 222.484,102.828 222.092,102.850 222.000 C 102.873 221.908,102.989 221.608,103.108 221.333 C 103.288 220.919,103.427 220.316,103.642 219.017 C 103.724 218.521,104.408 219.749,104.450 220.466 " stroke="none" fill="#f8f4ec" fill-rule="evenodd"></path><path id="path4" d="M58.333 199.999 L 58.333 276.332 200.083 276.416 L 341.833 276.500 341.751 202.000 C 341.705 161.025,341.668 126.638,341.667 125.583 L 341.667 123.667 200.000 123.667 L 58.333 123.667 58.333 199.999 M337.333 200.000 L 337.333 272.333 200.000 272.333 L 62.667 272.333 62.667 200.000 L 62.667 127.667 200.000 127.667 L 337.333 127.667 337.333 200.000 M95.167 180.000 L 95.167 205.400 106.667 205.209 C 118.106 205.020,119.348 204.958,120.367 204.526 C 120.660 204.402,121.035 204.340,121.200 204.389 C 121.365 204.438,122.025 204.269,122.667 204.013 C 123.308 203.758,123.983 203.523,124.167 203.492 C 124.807 203.384,125.837 202.867,126.274 202.435 C 126.516 202.196,127.004 202.000,127.357 202.000 C 127.711 202.000,128.000 201.875,128.000 201.723 C 128.000 201.571,128.641 200.986,129.424 200.423 C 131.601 198.861,134.333 196.141,134.333 195.539 C 134.333 195.242,134.483 195.000,134.667 195.000 C 134.850 195.000,135.000 194.775,135.000 194.500 C 135.000 194.225,135.150 194.000,135.333 194.000 C 135.517 194.000,135.667 193.775,135.667 193.500 C 135.667 193.225,135.826 193.000,136.020 193.000 C 136.214 193.000,136.302 192.885,136.215 192.745 C 136.128 192.604,136.403 191.742,136.824 190.828 C 137.246 189.914,137.525 189.054,137.443 188.917 C 137.361 188.779,137.420 188.667,137.574 188.667 C 137.818 188.667,137.992 187.899,138.085 186.417 C 138.099 186.188,138.199 186.000,138.306 186.000 C 138.412 186.000,138.516 185.512,138.535 184.917 C 138.554 184.321,138.651 182.220,138.750 180.248 C 138.849 178.276,138.797 176.581,138.636 176.481 C 138.475 176.381,138.395 175.970,138.459 175.567 C 138.523 175.163,138.385 174.196,138.154 173.417 C 137.922 172.637,137.811 172.000,137.907 172.000 C 138.003 172.000,137.895 171.775,137.667 171.500 C 137.438 171.225,137.363 171.000,137.500 171.000 C 137.637 171.000,137.542 170.752,137.291 170.449 C 137.039 170.146,136.874 169.808,136.924 169.699 C 137.125 169.261,134.756 165.104,133.587 163.844 C 132.902 163.105,132.339 162.350,132.335 162.167 C 132.332 161.983,131.787 161.464,131.124 161.013 C 130.461 160.561,129.507 159.807,129.003 159.336 C 128.001 158.400,126.754 157.710,125.083 157.166 C 124.671 157.032,124.333 156.794,124.333 156.638 C 124.333 156.482,124.108 156.441,123.833 156.546 C 123.558 156.652,123.333 156.563,123.333 156.349 C 123.333 156.136,123.196 156.046,123.028 156.149 C 122.860 156.253,122.331 156.189,121.853 156.007 C 121.374 155.825,120.649 155.607,120.241 155.522 C 119.834 155.437,119.125 155.266,118.667 155.142 C 118.208 155.017,112.733 154.845,106.500 154.758 L 95.167 154.600 95.167 180.000 M163.833 180.000 L 163.833 205.333 179.250 205.333 L 194.667 205.333 194.718 203.917 C 194.747 203.137,194.813 201.862,194.865 201.083 L 194.960 199.667 182.897 199.667 L 170.833 199.667 170.833 191.000 L 170.833 182.333 180.583 182.333 L 190.333 182.333 190.333 179.833 L 190.333 177.333 180.678 177.333 L 171.022 177.333 170.928 168.825 L 170.833 160.317 182.833 160.409 L 194.833 160.500 194.726 157.583 L 194.619 154.667 179.226 154.667 L 163.833 154.667 163.833 180.000 M219.748 179.917 L 219.833 205.167 235.333 205.251 L 250.833 205.335 250.937 202.505 L 251.041 199.675 238.937 199.588 L 226.833 199.500 226.744 190.907 L 226.655 182.314 236.411 182.407 L 246.167 182.500 246.058 179.917 L 245.949 177.333 236.308 177.333 L 226.667 177.333 226.667 168.833 L 226.667 160.333 238.667 160.333 L 250.667 160.333 250.667 157.500 L 250.667 154.667 235.165 154.667 L 219.662 154.667 219.748 179.917 M275.667 179.989 L 275.667 205.333 278.995 205.333 L 282.323 205.333 282.411 195.917 L 282.500 186.500 287.667 186.428 C 292.090 186.366,295.375 186.188,296.000 185.977 C 296.092 185.946,296.295 185.944,296.452 185.972 C 296.609 186.000,296.950 185.847,297.210 185.631 C 297.470 185.415,297.778 185.333,297.894 185.450 C 298.010 185.566,298.307 185.494,298.553 185.290 C 298.799 185.085,299.000 185.030,299.000 185.167 C 299.000 185.303,299.225 185.228,299.500 185.000 C 299.775 184.772,300.000 184.702,300.000 184.844 C 300.000 184.987,300.262 184.873,300.583 184.592 C 300.904 184.311,301.650 183.836,302.240 183.537 C 302.831 183.238,303.640 182.657,304.039 182.246 C 304.438 181.836,304.644 181.711,304.498 181.968 C 304.317 182.284,304.357 182.358,304.621 182.195 C 304.835 182.062,304.934 181.830,304.841 181.679 C 304.747 181.528,305.190 180.990,305.824 180.485 C 306.458 179.979,306.909 179.455,306.825 179.320 C 306.742 179.186,306.896 178.892,307.167 178.667 C 307.438 178.442,307.585 178.137,307.493 177.989 C 307.402 177.841,307.527 177.521,307.771 177.277 C 308.015 177.033,308.233 176.683,308.257 176.500 C 308.296 176.194,308.451 175.675,308.904 174.333 C 309.685 172.022,308.671 163.956,307.445 162.731 C 307.197 162.483,307.069 162.157,307.162 162.008 C 307.254 161.859,307.096 161.647,306.810 161.537 C 306.525 161.428,306.363 161.222,306.451 161.080 C 306.538 160.938,306.089 160.375,305.451 159.828 C 304.814 159.281,304.002 158.571,303.646 158.250 C 303.291 157.929,302.962 157.681,302.917 157.697 C 302.707 157.775,300.785 156.795,300.374 156.401 C 300.121 156.160,299.708 156.041,299.457 156.137 C 299.206 156.233,299.000 156.176,299.000 156.009 C 299.000 155.842,298.700 155.763,298.333 155.833 C 297.967 155.904,297.667 155.811,297.667 155.628 C 297.667 155.444,297.549 155.367,297.406 155.455 C 297.262 155.544,295.725 155.417,293.989 155.173 C 292.223 154.925,287.493 154.711,283.250 154.687 L 275.667 154.644 275.667 179.989 M116.499 160.665 C 116.568 160.776,117.265 160.905,118.049 160.951 C 118.833 160.997,119.644 161.176,119.851 161.348 C 120.058 161.520,120.327 161.562,120.447 161.442 C 120.568 161.321,120.667 161.404,120.667 161.626 C 120.667 161.848,120.854 161.995,121.083 161.953 C 121.748 161.832,123.817 162.847,124.696 163.726 C 125.139 164.169,125.773 164.636,126.105 164.764 C 126.454 164.897,126.608 165.159,126.470 165.382 C 126.320 165.624,126.376 165.680,126.618 165.530 C 126.842 165.392,127.100 165.546,127.232 165.896 C 127.357 166.228,127.693 166.683,127.979 166.906 C 128.266 167.129,128.359 167.317,128.186 167.323 C 128.014 167.329,128.118 167.521,128.418 167.750 C 128.718 167.979,129.009 168.388,129.065 168.659 C 129.121 168.929,129.356 169.354,129.586 169.602 C 129.817 169.851,129.921 170.192,129.817 170.360 C 129.713 170.529,129.802 170.667,130.016 170.667 C 130.230 170.667,130.318 170.892,130.213 171.167 C 130.107 171.442,130.182 171.667,130.379 171.667 C 130.577 171.667,130.657 171.877,130.559 172.134 C 130.460 172.391,130.481 172.704,130.606 172.829 C 130.731 172.953,130.846 173.156,130.862 173.278 C 130.878 173.400,130.998 173.740,131.129 174.034 C 131.259 174.327,131.341 174.702,131.310 174.867 C 131.280 175.032,131.287 175.242,131.327 175.333 C 131.422 175.550,131.722 179.257,131.731 180.333 C 131.749 182.328,131.240 186.204,130.919 186.526 C 130.805 186.639,130.793 186.942,130.892 187.199 C 130.991 187.456,130.889 187.667,130.667 187.667 C 130.444 187.667,130.348 187.891,130.454 188.167 C 130.559 188.442,130.532 188.667,130.394 188.667 C 130.255 188.667,130.117 188.991,130.088 189.387 C 130.058 189.783,129.905 190.195,129.748 190.303 C 129.591 190.412,129.276 190.960,129.049 191.522 C 128.633 192.554,125.538 196.167,125.071 196.167 C 124.931 196.167,124.455 196.504,124.013 196.917 C 123.258 197.619,122.852 197.801,122.250 197.706 C 122.112 197.684,122.000 197.826,122.000 198.020 C 122.000 198.214,121.860 198.286,121.690 198.181 C 121.519 198.075,121.285 198.142,121.170 198.328 C 121.055 198.514,120.603 198.667,120.167 198.667 C 119.730 198.667,119.274 198.827,119.153 199.023 C 119.032 199.219,118.709 199.293,118.436 199.188 C 118.163 199.084,117.766 199.110,117.553 199.248 C 117.341 199.385,113.792 199.498,109.667 199.499 L 102.167 199.500 102.255 179.891 L 102.344 160.283 109.359 160.372 C 113.217 160.422,116.430 160.553,116.499 160.665 M294.732 160.758 C 296.027 160.969,297.753 161.714,298.338 162.315 C 298.616 162.600,299.141 162.991,299.505 163.184 C 300.209 163.557,302.055 166.975,301.786 167.409 C 301.699 167.551,301.754 167.667,301.909 167.667 C 302.242 167.667,302.271 172.840,301.940 173.171 C 301.815 173.296,301.793 173.609,301.892 173.866 C 301.991 174.123,301.905 174.333,301.702 174.333 C 301.499 174.333,301.358 174.446,301.387 174.583 C 301.502 175.117,300.690 176.586,300.171 176.786 C 299.870 176.901,299.707 177.129,299.809 177.293 C 299.910 177.457,299.769 177.776,299.496 178.003 C 299.223 178.230,298.995 178.284,298.990 178.124 C 298.984 177.964,298.821 178.107,298.626 178.442 C 298.239 179.108,295.439 180.438,294.998 180.166 C 294.847 180.072,294.665 180.172,294.593 180.388 C 294.501 180.662,292.637 180.825,288.398 180.929 L 282.333 181.077 282.333 170.672 L 282.333 160.267 288.083 160.440 C 291.246 160.535,294.238 160.678,294.732 160.758 M144.105 214.100 C 144.006 214.260,143.642 214.317,143.296 214.227 C 142.950 214.137,142.577 214.209,142.467 214.387 C 142.356 214.566,142.056 214.632,141.800 214.533 C 141.543 214.435,141.333 214.500,141.333 214.677 C 141.333 214.855,141.221 214.968,141.083 214.929 C 140.946 214.890,140.516 215.035,140.127 215.251 C 139.739 215.467,139.326 215.548,139.210 215.433 C 139.095 215.317,139.000 215.387,139.000 215.589 C 139.000 215.941,138.034 216.409,137.644 216.246 C 137.443 216.162,133.667 219.898,133.667 220.181 C 133.667 220.272,133.278 220.961,132.804 221.713 C 132.330 222.465,131.871 223.474,131.784 223.956 C 131.698 224.439,131.495 224.881,131.332 224.938 C 131.170 224.996,131.121 225.260,131.223 225.526 C 131.325 225.791,131.258 226.194,131.074 226.421 C 130.876 226.665,130.799 228.260,130.886 230.333 C 131.080 234.988,131.119 235.333,131.452 235.333 C 131.609 235.333,131.652 235.558,131.546 235.833 C 131.441 236.108,131.488 236.333,131.651 236.333 C 131.814 236.333,132.051 236.808,132.179 237.389 C 132.306 237.969,132.693 238.748,133.039 239.118 C 133.384 239.489,133.667 239.989,133.667 240.230 C 133.667 240.470,133.784 240.667,133.928 240.667 C 134.072 240.667,134.457 241.119,134.784 241.673 C 135.111 242.226,135.510 242.597,135.672 242.497 C 135.834 242.397,136.132 242.623,136.333 243.000 C 136.535 243.377,136.844 243.597,137.019 243.488 C 137.195 243.380,137.428 243.525,137.537 243.810 C 137.647 244.096,137.871 244.247,138.035 244.145 C 138.199 244.044,138.333 244.128,138.333 244.333 C 138.333 244.538,138.483 244.613,138.667 244.500 C 138.850 244.387,139.000 244.462,139.000 244.667 C 139.000 244.872,139.150 244.947,139.333 244.833 C 139.517 244.720,139.667 244.811,139.667 245.036 C 139.667 245.261,139.761 245.350,139.877 245.234 C 139.993 245.118,140.405 245.198,140.794 245.412 C 141.509 245.806,142.028 245.957,143.083 246.076 C 143.404 246.112,143.667 246.222,143.667 246.321 C 143.667 246.650,150.477 246.419,152.167 246.033 C 154.418 245.518,154.361 245.537,155.541 244.912 C 156.114 244.608,156.676 244.454,156.791 244.569 C 156.906 244.684,157.000 244.635,157.000 244.461 C 157.000 244.286,157.450 243.878,158.000 243.553 L 159.000 242.962 159.000 236.814 L 159.000 230.667 153.833 230.667 L 148.667 230.667 148.667 232.167 C 148.667 233.000,148.824 233.667,149.020 233.667 C 149.214 233.667,149.303 233.779,149.218 233.917 C 149.133 234.054,150.399 234.114,152.032 234.050 L 155.000 233.934 155.000 237.426 C 155.000 240.124,154.886 241.013,154.500 241.333 C 154.225 241.562,154.000 241.646,154.000 241.522 C 154.000 241.397,153.587 241.508,153.083 241.768 C 152.579 242.028,151.714 242.386,151.160 242.563 C 149.714 243.024,143.867 242.914,143.263 242.414 C 142.993 242.189,142.673 242.104,142.553 242.225 C 142.432 242.346,142.333 242.269,142.333 242.056 C 142.333 241.842,142.044 241.667,141.690 241.667 C 141.337 241.667,140.823 241.442,140.548 241.167 C 140.273 240.892,139.962 240.667,139.857 240.667 C 139.632 240.667,138.333 239.401,138.333 239.182 C 138.333 239.098,137.950 238.647,137.482 238.179 C 137.014 237.711,136.715 237.192,136.817 237.026 C 136.920 236.860,136.867 236.673,136.699 236.612 C 136.532 236.550,136.343 236.200,136.281 235.833 C 136.218 235.467,136.060 235.086,135.930 234.988 C 135.642 234.772,135.321 232.372,135.332 230.520 C 135.336 229.776,135.339 228.867,135.338 228.500 C 135.333 227.313,136.057 224.667,136.386 224.667 C 136.562 224.667,136.613 224.517,136.500 224.333 C 136.387 224.150,136.453 224.000,136.647 224.000 C 136.841 224.000,137.000 223.858,137.000 223.683 C 137.000 223.509,137.446 222.706,137.991 221.898 C 139.013 220.384,140.000 219.380,140.000 219.855 C 140.000 220.004,140.309 219.794,140.687 219.389 C 141.064 218.983,141.514 218.739,141.687 218.846 C 141.859 218.952,142.000 218.897,142.000 218.723 C 142.000 218.103,148.874 217.409,149.805 217.935 C 149.972 218.030,150.551 218.142,151.091 218.184 C 151.631 218.227,152.500 218.578,153.023 218.964 C 153.545 219.351,154.192 219.667,154.459 219.667 C 154.726 219.667,155.003 219.842,155.075 220.057 C 155.449 221.180,157.954 220.056,157.989 218.750 C 157.995 218.521,158.150 218.333,158.333 218.333 C 159.482 218.333,156.500 216.132,154.247 215.317 C 153.561 215.069,153.000 214.784,152.999 214.683 C 152.999 214.582,152.565 214.485,152.036 214.466 C 151.506 214.448,150.794 214.317,150.453 214.176 C 149.575 213.812,144.322 213.749,144.105 214.100 M101.459 214.583 C 101.174 215.477,100.636 216.737,100.107 217.750 C 99.844 218.254,99.716 218.667,99.822 218.667 C 99.928 218.667,99.770 219.042,99.469 219.500 C 99.169 219.958,99.019 220.333,99.136 220.333 C 99.253 220.333,99.103 220.708,98.803 221.167 C 98.502 221.625,98.352 222.000,98.469 222.000 C 98.586 222.000,98.436 222.375,98.136 222.833 C 97.836 223.292,97.686 223.667,97.803 223.667 C 97.920 223.667,97.770 224.042,97.469 224.500 C 97.169 224.958,97.019 225.333,97.136 225.333 C 97.253 225.333,97.103 225.708,96.803 226.167 C 96.502 226.625,96.352 227.000,96.469 227.000 C 96.586 227.000,96.461 227.338,96.191 227.750 C 95.920 228.162,95.673 228.650,95.640 228.833 C 95.555 229.316,95.316 230.060,94.970 230.917 C 94.250 232.698,94.024 233.274,93.305 235.167 C 92.887 236.267,92.330 237.504,92.067 237.917 C 91.805 238.329,91.686 238.667,91.803 238.667 C 91.920 238.667,91.770 239.042,91.469 239.500 C 91.169 239.958,91.019 240.333,91.136 240.333 C 91.253 240.333,91.103 240.708,90.803 241.167 C 90.502 241.625,90.352 242.000,90.469 242.000 C 90.586 242.000,90.436 242.375,90.136 242.833 C 89.836 243.292,89.701 243.667,89.836 243.667 C 89.971 243.667,89.906 243.879,89.691 244.138 C 88.240 245.885,89.670 246.906,92.503 246.144 C 93.261 245.941,94.667 243.708,94.667 242.708 C 94.667 242.345,94.885 241.830,95.151 241.563 C 95.417 241.297,95.555 241.000,95.457 240.902 C 95.360 240.804,95.518 240.362,95.808 239.919 C 96.098 239.476,96.235 239.013,96.112 238.890 C 95.989 238.767,96.064 238.667,96.278 238.667 C 96.492 238.667,96.649 238.554,96.627 238.417 C 96.458 237.346,96.644 237.320,103.867 237.410 L 111.067 237.500 111.668 239.083 C 111.999 239.954,112.205 240.667,112.127 240.667 C 112.049 240.667,112.230 241.042,112.531 241.500 C 112.831 241.958,112.981 242.333,112.864 242.333 C 112.747 242.333,112.897 242.708,113.197 243.167 C 113.498 243.625,113.648 244.000,113.531 244.000 C 113.414 244.000,113.547 244.349,113.827 244.777 C 114.107 245.204,114.223 245.678,114.085 245.830 C 113.946 245.982,114.021 245.999,114.250 245.867 C 114.479 245.735,114.667 245.763,114.667 245.928 C 114.667 246.093,115.642 246.260,116.833 246.298 C 119.111 246.372,119.185 246.337,118.691 245.412 C 118.369 244.810,117.953 243.622,117.962 243.333 C 117.965 243.242,117.746 242.829,117.476 242.417 C 117.206 242.004,117.080 241.667,117.197 241.667 C 117.314 241.667,117.164 241.292,116.864 240.833 C 116.564 240.375,116.414 240.000,116.531 240.000 C 116.648 240.000,116.498 239.625,116.197 239.167 C 115.897 238.708,115.747 238.333,115.864 238.333 C 115.981 238.333,115.831 237.958,115.531 237.500 C 115.230 237.042,115.081 236.667,115.200 236.667 C 115.318 236.667,115.261 236.479,115.073 236.250 C 114.526 235.583,112.000 229.318,112.000 228.628 C 112.000 228.283,111.850 228.000,111.667 228.000 C 111.483 228.000,111.333 227.625,111.333 227.167 C 111.333 226.708,111.183 226.333,111.000 226.333 C 110.817 226.333,110.667 225.958,110.667 225.500 C 110.667 225.042,110.517 224.667,110.333 224.667 C 110.150 224.667,110.000 224.292,110.000 223.833 C 110.000 223.375,109.850 223.000,109.667 223.000 C 109.483 223.000,109.333 222.625,109.333 222.167 C 109.333 221.708,109.158 221.333,108.944 221.333 C 108.731 221.333,108.656 221.233,108.779 221.110 C 108.902 220.987,108.773 220.537,108.493 220.110 C 108.214 219.683,108.080 219.333,108.197 219.333 C 108.314 219.333,108.164 218.958,107.864 218.500 C 107.564 218.042,107.414 217.667,107.531 217.667 C 107.648 217.667,107.498 217.292,107.197 216.833 C 106.897 216.375,106.738 216.000,106.844 216.000 C 106.951 216.000,106.772 215.550,106.447 215.000 C 105.718 213.765,101.825 213.440,101.459 214.583 M175.222 214.222 C 175.100 214.344,175.000 221.619,175.000 230.389 L 175.000 246.333 177.250 246.333 L 179.500 246.333 179.410 230.167 L 179.321 214.000 177.383 214.000 C 176.317 214.000,175.344 214.100,175.222 214.222 M197.556 214.222 C 197.433 214.344,197.333 221.619,197.333 230.389 L 197.333 246.333 206.333 246.333 L 215.333 246.333 215.333 244.507 L 215.333 242.680 208.583 242.590 L 201.833 242.500 201.746 228.250 L 201.660 214.000 199.719 214.000 C 198.651 214.000,197.678 214.100,197.556 214.222 M230.222 214.222 C 230.100 214.344,230.000 221.619,230.000 230.389 L 230.000 246.333 232.160 246.333 L 234.321 246.333 234.410 230.167 L 234.500 214.000 232.472 214.000 C 231.357 214.000,230.344 214.100,230.222 214.222 M248.947 215.820 L 249.061 217.650 254.114 217.741 L 259.167 217.833 259.254 232.083 L 259.340 246.333 261.333 246.333 L 263.326 246.333 263.413 232.083 L 263.500 217.833 268.764 217.833 L 274.029 217.833 273.931 216.000 L 273.833 214.167 261.333 214.079 L 248.833 213.991 248.947 215.820 M284.604 214.174 C 284.367 214.411,285.072 215.994,285.417 215.997 C 285.554 215.999,285.667 216.166,285.667 216.368 C 285.667 216.571,286.135 217.431,286.707 218.279 C 287.280 219.127,287.778 220.023,287.814 220.271 C 287.851 220.518,288.021 220.820,288.193 220.943 C 288.747 221.339,290.333 223.969,290.333 224.493 C 290.333 224.772,290.446 225.004,290.583 225.009 C 290.889 225.020,292.542 227.650,292.394 227.890 C 292.336 227.984,292.561 228.267,292.894 228.520 C 293.228 228.772,293.382 228.984,293.237 228.989 C 293.092 228.995,293.280 229.328,293.654 229.730 C 294.027 230.131,294.333 230.656,294.333 230.896 C 294.333 231.137,294.483 231.333,294.667 231.333 C 294.850 231.333,295.000 231.633,295.000 232.000 C 295.000 232.367,295.150 232.667,295.333 232.667 C 295.545 232.667,295.667 235.167,295.667 239.500 L 295.667 246.333 298.180 246.333 L 300.694 246.333 300.597 239.833 C 300.544 236.258,300.612 233.333,300.750 233.333 C 300.887 233.333,301.000 233.029,301.000 232.656 C 301.000 232.284,301.224 231.893,301.498 231.788 C 301.772 231.683,301.913 231.463,301.812 231.298 C 301.710 231.134,301.795 231.000,302.000 231.000 C 302.205 231.000,302.290 230.866,302.188 230.702 C 302.087 230.537,302.229 230.317,302.505 230.211 C 302.781 230.105,302.979 229.902,302.945 229.759 C 302.846 229.339,303.747 227.667,304.073 227.667 C 304.238 227.667,304.280 227.517,304.167 227.333 C 304.053 227.150,304.120 227.000,304.314 227.000 C 304.508 227.000,304.667 226.850,304.667 226.667 C 304.667 226.483,304.972 226.028,305.345 225.655 C 305.719 225.281,305.949 224.854,305.857 224.705 C 305.765 224.556,305.990 224.112,306.358 223.717 C 306.725 223.323,306.908 222.998,306.763 222.995 C 306.618 222.992,306.725 222.848,307.000 222.674 C 307.275 222.500,307.510 222.240,307.522 222.095 C 307.568 221.548,308.802 219.333,309.062 219.333 C 309.211 219.333,309.333 219.162,309.333 218.953 C 309.333 218.744,309.567 218.403,309.852 218.194 C 310.137 217.986,310.407 217.594,310.451 217.324 C 310.577 216.560,311.383 215.195,311.882 214.900 C 312.986 214.248,312.258 213.929,309.964 214.059 C 308.089 214.165,307.496 214.329,307.124 214.846 C 306.866 215.206,306.433 215.762,306.164 216.083 C 305.894 216.404,305.765 216.667,305.877 216.667 C 305.990 216.667,305.893 216.893,305.663 217.171 C 305.263 217.653,304.743 218.552,303.495 220.917 C 303.181 221.512,302.782 222.000,302.609 222.000 C 302.436 222.000,302.381 222.141,302.487 222.313 C 302.594 222.485,302.466 222.747,302.204 222.896 C 301.942 223.045,301.347 224.029,300.882 225.083 C 300.417 226.137,299.853 227.000,299.629 227.000 C 299.405 227.000,299.323 227.100,299.445 227.223 C 299.568 227.346,299.453 227.683,299.191 227.973 C 298.705 228.510,298.667 228.622,298.667 229.500 C 298.667 230.315,298.188 230.074,297.504 228.917 C 297.152 228.321,296.890 227.833,296.923 227.833 C 297.223 227.833,296.483 226.334,296.113 226.192 C 295.844 226.089,295.718 225.854,295.832 225.669 C 295.946 225.484,295.880 225.333,295.686 225.333 C 295.492 225.333,295.333 225.108,295.333 224.833 C 295.333 224.558,295.174 224.333,294.980 224.333 C 294.786 224.333,294.720 224.183,294.833 224.000 C 294.947 223.817,294.911 223.667,294.753 223.667 C 294.596 223.667,294.288 223.171,294.069 222.565 C 293.850 221.959,293.407 221.166,293.085 220.802 C 292.763 220.438,292.450 219.921,292.389 219.654 C 292.328 219.386,291.988 218.895,291.632 218.563 C 291.276 218.232,291.072 217.819,291.179 217.647 C 291.285 217.474,291.214 217.333,291.020 217.333 C 290.826 217.333,290.667 217.170,290.667 216.970 C 290.667 215.049,285.919 212.859,284.604 214.174 M104.450 220.466 C 104.477 220.943,104.638 221.333,104.806 221.333 C 104.974 221.333,105.011 221.434,104.888 221.557 C 104.765 221.680,104.896 222.134,105.179 222.566 C 105.463 222.998,105.604 223.498,105.494 223.676 C 105.384 223.854,105.421 224.000,105.576 224.000 C 105.731 224.000,105.883 224.324,105.912 224.720 C 105.942 225.116,106.132 225.542,106.333 225.667 C 106.535 225.791,106.724 226.217,106.754 226.613 C 106.784 227.009,106.952 227.333,107.126 227.333 C 107.301 227.333,107.346 227.432,107.225 227.553 C 107.104 227.673,107.151 227.948,107.330 228.162 C 107.508 228.377,107.701 228.841,107.760 229.193 C 107.818 229.545,108.041 230.151,108.255 230.540 C 108.468 230.928,108.548 231.340,108.433 231.456 C 108.317 231.572,108.397 231.667,108.611 231.667 C 108.825 231.667,109.000 232.042,109.000 232.500 C 109.000 232.958,109.125 233.333,109.278 233.333 C 109.431 233.333,109.556 233.558,109.556 233.833 C 109.556 234.258,108.712 234.333,103.964 234.333 C 98.896 234.333,97.354 234.105,98.333 233.500 C 98.523 233.383,98.591 233.148,98.486 232.977 C 98.380 232.806,98.462 232.667,98.667 232.667 C 98.872 232.667,98.953 232.527,98.848 232.356 C 98.742 232.186,98.811 231.950,99.000 231.833 C 99.189 231.716,99.258 231.481,99.152 231.310 C 99.047 231.140,99.087 231.000,99.242 231.000 C 99.397 231.000,99.544 230.737,99.569 230.417 C 99.643 229.470,100.474 227.333,100.768 227.333 C 100.917 227.333,100.947 227.183,100.833 227.000 C 100.720 226.817,100.795 226.667,101.000 226.667 C 101.205 226.667,101.270 226.500,101.144 226.296 C 101.018 226.092,101.091 225.816,101.307 225.683 C 101.523 225.549,101.724 225.116,101.754 224.720 C 101.784 224.324,101.952 224.000,102.126 224.000 C 102.301 224.000,102.350 223.905,102.234 223.790 C 102.118 223.674,102.200 223.261,102.417 222.873 C 102.633 222.484,102.828 222.092,102.850 222.000 C 102.873 221.908,102.989 221.608,103.108 221.333 C 103.288 220.919,103.427 220.316,103.642 219.017 C 103.724 218.521,104.408 219.749,104.450 220.466 " stroke="none" fill="#f8f4ec" fill-rule="evenodd"></path></g></svg>